  0
SECTION
  2
HEADER
  9
$ACADVER
  1
AC1027
  9
$ACADMAINTVER
 70
   105
  9
$DWGCODEPAGE
  3
ANSI_1252
  9
$REQUIREDVERSIONS
160
                 0
  9
$INSBASE
 10
0.0
 20
0.0
 30
0.0
  9
$EXTMIN
 10
-209.9801952381
 20
-209.9801952381
 30
0.0
  9
$EXTMAX
 10
209.9801952381
 20
209.9801952381
 30
0.0
  9
$LIMMIN
 10
0.0
 20
0.0
  9
$LIMMAX
 10
420.0
 20
297.0
  9
$ORTHOMODE
 70
     0
  9
$REGENMODE
 70
     1
  9
$FILLMODE
 70
     1
  9
$QTEXTMODE
 70
     0
  9
$MIRRTEXT
 70
     1
  9
$LTSCALE
 40
1.0
  9
$ATTMODE
 70
     1
  9
$TEXTSIZE
 40
3.5
  9
$TRACEWID
 40
1.0
  9
$TEXTSTYLE
  7
Standard
  9
$CLAYER
  8
0
  9
$CELTYPE
  6
ByLayer
  9
$CECOLOR
 62
   256
  9
$CELTSCALE
 40
1.0
  9
$DISPSILH
 70
     0
  9
$DIMSCALE
 40
1.0
  9
$DIMASZ
 40
3.302
  9
$DIMEXO
 40
1.0
  9
$DIMDLI
 40
3.75
  9
$DIMRND
 40
0.0
  9
$DIMDLE
 40
0.0
  9
$DIMEXE
 40
1.0
  9
$DIMTP
 40
0.0
  9
$DIMTM
 40
0.0
  9
$DIMTXT
 40
3.5
  9
$DIMCEN
 40
2.5
  9
$DIMTSZ
 40
0.0
  9
$DIMTOL
 70
     0
  9
$DIMLIM
 70
     0
  9
$DIMTIH
 70
     1
  9
$DIMTOH
 70
     1
  9
$DIMSE1
 70
     0
  9
$DIMSE2
 70
     0
  9
$DIMTAD
 70
     1
  9
$DIMZIN
 70
     0
  9
$DIMBLK
  1

  9
$DIMASO
 70
     1
  9
$DIMSHO
 70
     1
  9
$DIMPOST
  1

  9
$DIMAPOST
  1

  9
$DIMALT
 70
     0
  9
$DIMALTD
 70
     3
  9
$DIMALTF
 40
0.0393700787
  9
$DIMLFAC
 40
1.0
  9
$DIMTOFL
 70
     1
  9
$DIMTVP
 40
0.0
  9
$DIMTIX
 70
     0
  9
$DIMSOXD
 70
     0
  9
$DIMSAH
 70
     0
  9
$DIMBLK1
  1

  9
$DIMBLK2
  1

  9
$DIMSTYLE
  2
ISO-25
  9
$DIMCLRD
 70
     0
  9
$DIMCLRE
 70
     0
  9
$DIMCLRT
 70
     0
  9
$DIMTFAC
 40
1.0
  9
$DIMGAP
 40
1.524
  9
$DIMJUST
 70
     0
  9
$DIMSD1
 70
     0
  9
$DIMSD2
 70
     0
  9
$DIMTOLJ
 70
     0
  9
$DIMTZIN
 70
     0
  9
$DIMALTZ
 70
     0
  9
$DIMALTTZ
 70
     0
  9
$DIMUPT
 70
     0
  9
$DIMDEC
 70
     2
  9
$DIMTDEC
 70
     2
  9
$DIMALTU
 70
     2
  9
$DIMALTTD
 70
     3
  9
$DIMTXSTY
  7
Standard
  9
$DIMAUNIT
 70
     0
  9
$DIMADEC
 70
     2
  9
$DIMALTRND
 40
0.0
  9
$DIMAZIN
 70
     0
  9
$DIMDSEP
 70
    44
  9
$DIMATFIT
 70
     3
  9
$DIMFRAC
 70
     0
  9
$DIMLDRBLK
  1

  9
$DIMLUNIT
 70
     2
  9
$DIMLWD
 70
    -2
  9
$DIMLWE
 70
    -2
  9
$DIMTMOVE
 70
     0
  9
$DIMFXL
 40
1.0
  9
$DIMFXLON
 70
     0
  9
$DIMJOGANG
 40
0.7853981634
  9
$DIMTFILL
 70
     0
  9
$DIMTFILLCLR
 70
     0
  9
$DIMARCSYM
 70
     0
  9
$DIMLTYPE
  6

  9
$DIMLTEX1
  6

  9
$DIMLTEX2
  6

  9
$DIMTXTDIRECTION
 70
     0
  9
$LUNITS
 70
     2
  9
$LUPREC
 70
     2
  9
$SKETCHINC
 40
1.0
  9
$FILLETRAD
 40
10.0
  9
$AUNITS
 70
     0
  9
$AUPREC
 70
     2
  9
$MENU
  1
.
  9
$ELEVATION
 40
0.0
  9
$PELEVATION
 40
0.0
  9
$THICKNESS
 40
0.0
  9
$LIMCHECK
 70
     0
  9
$CHAMFERA
 40
0.0
  9
$CHAMFERB
 40
0.0
  9
$CHAMFERC
 40
0.0
  9
$CHAMFERD
 40
0.0
  9
$SKPOLY
 70
     0
  9
$TDCREATE
 40
2458079.595133194
  9
$TDUCREATE
 40
2458079.595133194
  9
$TDUPDATE
 40
2458079.595252859
  9
$TDUUPDATE
 40
2458079.595252859
  9
$TDINDWG
 40
0.0000000116
  9
$TDUSRTIMER
 40
0.0000000116
  9
$USRTIMER
 70
     1
  9
$ANGBASE
 50
0.0
  9
$ANGDIR
 70
     0
  9
$PDMODE
 70
     0
  9
$PDSIZE
 40
-1.0
  9
$PLINEWID
 40
0.0
  9
$SPLFRAME
 70
     0
  9
$SPLINETYPE
 70
     6
  9
$SPLINESEGS
 70
     8
  9
$HANDSEED
  5
D6
  9
$SURFTAB1
 70
     6
  9
$SURFTAB2
 70
     6
  9
$SURFTYPE
 70
     6
  9
$SURFU
 70
     6
  9
$SURFV
 70
     6
  9
$UCSBASE
  2

  9
$UCSNAME
  2

  9
$UCSORG
 10
0.0
 20
0.0
 30
0.0
  9
$UCSXDIR
 10
1.0
 20
0.0
 30
0.0
  9
$UCSYDIR
 10
0.0
 20
1.0
 30
0.0
  9
$UCSORTHOREF
  2

  9
$UCSORTHOVIEW
 70
     0
  9
$UCSORGTOP
 10
0.0
 20
0.0
 30
0.0
  9
$UCSORGBOTTOM
 10
0.0
 20
0.0
 30
0.0
  9
$UCSORGLEFT
 10
0.0
 20
0.0
 30
0.0
  9
$UCSORGRIGHT
 10
0.0
 20
0.0
 30
0.0
  9
$UCSORGFRONT
 10
0.0
 20
0.0
 30
0.0
  9
$UCSORGBACK
 10
0.0
 20
0.0
 30
0.0
  9
$PUCSBASE
  2

  9
$PUCSNAME
  2

  9
$PUCSORG
 10
0.0
 20
0.0
 30
0.0
  9
$PUCSXDIR
 10
1.0
 20
0.0
 30
0.0
  9
$PUCSYDIR
 10
0.0
 20
1.0
 30
0.0
  9
$PUCSORTHOREF
  2

  9
$PUCSORTHOVIEW
 70
     0
  9
$PUCSORGTOP
 10
0.0
 20
0.0
 30
0.0
  9
$PUCSORGBOTTOM
 10
0.0
 20
0.0
 30
0.0
  9
$PUCSORGLEFT
 10
0.0
 20
0.0
 30
0.0
  9
$PUCSORGRIGHT
 10
0.0
 20
0.0
 30
0.0
  9
$PUCSORGFRONT
 10
0.0
 20
0.0
 30
0.0
  9
$PUCSORGBACK
 10
0.0
 20
0.0
 30
0.0
  9
$USERI1
 70
     0
  9
$USERI2
 70
     0
  9
$USERI3
 70
     0
  9
$USERI4
 70
     0
  9
$USERI5
 70
     0
  9
$USERR1
 40
0.0
  9
$USERR2
 40
0.0
  9
$USERR3
 40
0.0
  9
$USERR4
 40
0.0
  9
$USERR5
 40
0.0
  9
$WORLDVIEW
 70
     1
  9
$SHADEDGE
 70
     3
  9
$SHADEDIF
 70
    70
  9
$TILEMODE
 70
     1
  9
$MAXACTVP
 70
    64
  9
$PINSBASE
 10
0.0
 20
0.0
 30
0.0
  9
$PLIMCHECK
 70
     0
  9
$PEXTMIN
 10
1.0000000000E+20
 20
1.0000000000E+20
 30
1.0000000000E+20
  9
$PEXTMAX
 10
-1.0000000000E+20
 20
-1.0000000000E+20
 30
-1.0000000000E+20
  9
$PLIMMIN
 10
0.0
 20
0.0
  9
$PLIMMAX
 10
420.0
 20
297.0
  9
$UNITMODE
 70
     0
  9
$VISRETAIN
 70
     1
  9
$PLINEGEN
 70
     0
  9
$PSLTSCALE
 70
     1
  9
$TREEDEPTH
 70
  3020
  9
$CMLSTYLE
  2
Standard
  9
$CMLJUST
 70
     0
  9
$CMLSCALE
 40
20.0
  9
$PROXYGRAPHICS
 70
     1
  9
$MEASUREMENT
 70
     1
  9
$CELWEIGHT
370
    -1
  9
$ENDCAPS
280
     0
  9
$JOINSTYLE
280
     0
  9
$LWDISPLAY
290
     1
  9
$INSUNITS
 70
     4
  9
$HYPERLINKBASE
  1

  9
$STYLESHEET
  1

  9
$XEDIT
290
     1
  9
$CEPSNTYPE
380
     0
  9
$PSTYLEMODE
290
     1
  9
$FINGERPRINTGUID
  2
{0DF615B7-9488-4090-B07F-1143452E1204}
  9
$VERSIONGUID
  2
{FAEB1C32-E019-11D5-929B-00C0DF256EC4}
  9
$EXTNAMES
290
     1
  9
$PSVPSCALE
 40
0.0
  9
$OLESTARTUP
290
     0
  9
$SORTENTS
280
   127
  9
$INDEXCTL
280
     0
  9
$HIDETEXT
280
     1
  9
$XCLIPFRAME
280
     2
  9
$HALOGAP
280
     0
  9
$OBSCOLOR
 70
   257
  9
$OBSLTYPE
280
     0
  9
$INTERSECTIONDISPLAY
280
     0
  9
$INTERSECTIONCOLOR
 70
   257
  9
$DIMASSOC
280
     2
  9
$PROJECTNAME
  1

  9
$CAMERADISPLAY
290
     0
  9
$LENSLENGTH
 40
50.0
  9
$CAMERAHEIGHT
 40
0.0
  9
$STEPSPERSEC
 40
2.0
  9
$STEPSIZE
 40
6.0
  9
$3DDWFPREC
 40
2.0
  9
$PSOLWIDTH
 40
5.0
  9
$PSOLHEIGHT
 40
80.0
  9
$LOFTANG1
 40
1.5707963268
  9
$LOFTANG2
 40
1.5707963268
  9
$LOFTMAG1
 40
0.0
  9
$LOFTMAG2
 40
0.0
  9
$LOFTPARAM
 70
     7
  9
$LOFTNORMALS
280
     1
  9
$LATITUDE
 40
37.795
  9
$LONGITUDE
 40
-122.394
  9
$NORTHDIRECTION
 40
0.0
  9
$TIMEZONE
 70
 -8000
  9
$LIGHTGLYPHDISPLAY
280
     1
  9
$TILEMODELIGHTSYNCH
280
     1
  9
$CMATERIAL
347
44
  9
$SOLIDHIST
280
     0
  9
$SHOWHIST
280
     1
  9
$DWFFRAME
280
     2
  9
$DGNFRAME
280
     2
  9
$REALWORLDSCALE
290
     1
  9
$INTERFERECOLOR
 62
   256
  9
$CSHADOW
280
     0
  9
$SHADOWPLANELOCATION
 40
0.0
  0
ENDSEC
  0
SECTION
  2
CLASSES
  0
CLASS
  1
ACDBDICTIONARYWDFLT
  2
AcDbDictionaryWithDefault
  3
ObjectDBX Classes
 90
        0
 91
        4
280
     0
281
     0
  0
CLASS
  1
VISUALSTYLE
  2
AcDbVisualStyle
  3
ObjectDBX Classes
 90
     4095
 91
        4
280
     0
281
     0
  0
CLASS
  1
MATERIAL
  2
AcDbMaterial
  3
ObjectDBX Classes
 90
     1153
 91
        4
280
     0
281
     0
  0
CLASS
  1
SCALE
  2
AcDbScale
  3
ObjectDBX Classes
 90
     1153
 91
        4
280
     0
281
     0
  0
CLASS
  1
TABLESTYLE
  2
AcDbTableStyle
  3
ObjectDBX Classes
 90
     4095
 91
        4
280
     0
281
     0
  0
CLASS
  1
MLEADERSTYLE
  2
AcDbMLeaderStyle
  3
ACDB_MLEADERSTYLE_CLASS
 90
     4095
 91
        4
280
     0
281
     0
  0
CLASS
  1
SUN
  2
AcDbSun
  3
SCENEOE
 90
     1153
 91
        4
280
     0
281
     0
  0
CLASS
  1
DICTIONARYVAR
  2
AcDbDictionaryVar
  3
ObjectDBX Classes
 90
        0
 91
        4
280
     0
281
     0
  0
CLASS
  1
CELLSTYLEMAP
  2
AcDbCellStyleMap
  3
ObjectDBX Classes
 90
     1152
 91
        4
280
     0
281
     0
  0
ENDSEC
  0
SECTION
  2
TABLES
  0
TABLE
  2
VPORT
  5
8
330
0
100
AcDbSymbolTable
 70
     1
  0
VPORT
  5
29
330
8
100
AcDbSymbolTableRecord
100
AcDbViewportTableRecord
  2
*Active
 70
     0
 10
0.0
 20
0.0
 11
1.0
 21
1.0
 12
0.0
 22
0.0
 13
0.0
 23
0.0
 14
10.0
 24
10.0
 15
10.0
 25
10.0
 16
0.0
 26
0.0
 36
1.0
 17
0.0
 27
0.0
 37
0.0
 40
428.3595982857
 41
1.0
 42
50.0
 43
0.0
 44
0.0
 50
0.0
 51
0.0
 71
     0
 72
   100
 73
     1
 74
     3
 75
     0
 76
     0
 77
     0
 78
     0
281
     0
 65
     1
110
0.0
120
0.0
130
0.0
111
1.0
121
0.0
131
0.0
112
0.0
122
1.0
132
0.0
 79
     0
146
0.0
348
2F
 60
     3
 61
     5
292
     1
282
     1
141
0.0
142
0.0
 63
   250
361
6D
  0
ENDTAB
  0
TABLE
  2
LTYPE
  5
5
330
0
100
AcDbSymbolTable
 70
     6
  0
LTYPE
  5
14
330
5
100
AcDbSymbolTableRecord
100
AcDbLinetypeTableRecord
  2
ByBlock
 70
     0
  3

 72
    65
 73
     0
 40
0.0
  0
LTYPE
  5
15
330
5
100
AcDbSymbolTableRecord
100
AcDbLinetypeTableRecord
  2
ByLayer
 70
     0
  3

 72
    65
 73
     0
 40
0.0
  0
LTYPE
  5
16
330
5
100
AcDbSymbolTableRecord
100
AcDbLinetypeTableRecord
  2
Continuous
 70
     0
  3
Solid line
 72
    65
 73
     0
 40
0.0
  0
LTYPE
  5
6E
330
5
100
AcDbSymbolTableRecord
100
AcDbLinetypeTableRecord
  2
HIDDEN
 70
     0
  3
Hidden __ __ __ __ __ __ __ __ __ __ __ __ __ __
 72
    65
 73
     2
 40
1.905
 49
1.27
 74
     0
 49
-0.635
 74
     0
  0
LTYPE
  5
6F
330
5
100
AcDbSymbolTableRecord
100
AcDbLinetypeTableRecord
  2
PHANTOM
 70
     0
  3
Phantom ______  __  __  ______  __  __  ______
 72
    65
 73
     6
 40
12.7
 49
6.35
 74
     0
 49
-1.27
 74
     0
 49
1.27
 74
     0
 49
-1.27
 74
     0
 49
1.27
 74
     0
 49
-1.27
 74
     0
  0
LTYPE
  5
70
330
5
100
AcDbSymbolTableRecord
100
AcDbLinetypeTableRecord
  2
CENTER
 70
     0
  3
Center ____ _ ____ _ ____ _ ____ _ ____ _ ____
 72
    65
 73
     4
 40
10.16
 49
6.35
 74
     0
 49
-1.27
 74
     0
 49
1.27
 74
     0
 49
-1.27
 74
     0
  0
LTYPE
  5
71
330
5
100
AcDbSymbolTableRecord
100
AcDbLinetypeTableRecord
  2
CENTERX2
 70
     0
  3
Center (2x) ________  __  ________  __  _____
 72
    65
 73
     4
 40
20.32
 49
12.7
 74
     0
 49
-2.54
 74
     0
 49
2.54
 74
     0
 49
-2.54
 74
     0
  0
LTYPE
  5
72
330
5
100
AcDbSymbolTableRecord
100
AcDbLinetypeTableRecord
  2
DOT2
 70
     0
  3
Dot (.5x) ........................................
 72
    65
 73
     2
 40
0.635
 49
0.0
 74
     0
 49
-0.635
 74
     0
  0
ENDTAB
  0
TABLE
  2
LAYER
  5
2
330
0
100
AcDbSymbolTable
 70
     1
  0
LAYER
  5
10
330
2
100
AcDbSymbolTableRecord
100
AcDbLayerTableRecord
  2
0
 70
     0
 62
     7
  6
Continuous
370
    -3
390
F
347
46
348
0
  0
ENDTAB
  0
TABLE
  2
STYLE
  5
3
330
0
100
AcDbSymbolTable
 70
     1
  0
STYLE
  5
11
330
3
100
AcDbSymbolTableRecord
100
AcDbTextStyleTableRecord
  2
Standard
 70
     0
 40
0.0
 41
1.0
 50
0.0
 71
     0
 42
3.5
  3
txt
  4

  0
ENDTAB
  0
TABLE
  2
VIEW
  5
6
330
0
100
AcDbSymbolTable
 70
     0
  0
ENDTAB
  0
TABLE
  2
UCS
  5
7
330
0
100
AcDbSymbolTable
 70
     0
  0
ENDTAB
  0
TABLE
  2
APPID
  5
9
330
0
100
AcDbSymbolTable
 70
     1
  0
APPID
  5
12
330
9
100
AcDbSymbolTableRecord
100
AcDbRegAppTableRecord
  2
ACAD
 70
     0
  0
ENDTAB
  0
TABLE
  2
DIMSTYLE
  5
A
330
0
100
AcDbSymbolTable
 70
     1
100
AcDbDimStyleTable
  0
DIMSTYLE
105
27
330
A
100
AcDbSymbolTableRecord
100
AcDbDimStyleTableRecord
  2
ISO-25
 70
     0
 41
2.5
 42
0.625
 43
3.75
 44
1.25
 73
     0
 74
     0
 77
     1
 78
     8
140
2.5
141
2.5
143
0.0393700787
147
0.625
171
     3
172
     1
178
     0
271
     2
272
     2
274
     3
278
    44
283
     0
284
     8
340
11
  0
ENDTAB
  0
TABLE
  2
BLOCK_RECORD
  5
1
330
0
100
AcDbSymbolTable
 70
     1
  0
BLOCK_RECORD
  5
1F
330
1
100
AcDbSymbolTableRecord
100
AcDbBlockTableRecord
  2
*Model_Space
340
22
 70
     0
280
     1
281
     0
  0
BLOCK_RECORD
  5
1B
330
1
100
AcDbSymbolTableRecord
100
AcDbBlockTableRecord
  2
*Paper_Space
340
1E
 70
     0
280
     1
281
     0
  0
BLOCK_RECORD
  5
23
330
1
100
AcDbSymbolTableRecord
100
AcDbBlockTableRecord
  2
*Paper_Space0
340
26
 70
     0
280
     1
281
     0
  0
ENDTAB
  0
ENDSEC
  0
SECTION
  2
BLOCKS
  0
BLOCK
  5
20
330
1F
100
AcDbEntity
  8
0
100
AcDbBlockBegin
  2
*Model_Space
 70
     0
 10
0.0
 20
0.0
 30
0.0
  3
*Model_Space
  1

  0
ENDBLK
  5
21
330
1F
100
AcDbEntity
  8
0
100
AcDbBlockEnd
  0
BLOCK
  5
1C
330
1B
100
AcDbEntity
 67
     1
  8
0
100
AcDbBlockBegin
  2
*Paper_Space
 70
     0
 10
0.0
 20
0.0
 30
0.0
  3
*Paper_Space
  1

  0
ENDBLK
  5
1D
330
1B
100
AcDbEntity
 67
     1
  8
0
100
AcDbBlockEnd
  0
BLOCK
  5
24
330
23
100
AcDbEntity
  8
0
100
AcDbBlockBegin
  2
*Paper_Space0
 70
     0
 10
0.0
 20
0.0
 30
0.0
  3
*Paper_Space0
  1

  0
ENDBLK
  5
25
330
23
100
AcDbEntity
  8
0
100
AcDbBlockEnd
  0
ENDSEC
  0
SECTION
  2
ENTITIES
  0
CIRCLE
  5
73
330
1F
100
AcDbEntity
  8
0
  6
CENTERX2
 62
     7
100
AcDbCircle
 10
0.0
 20
0.0
 30
0.0
 40
202.2745
  0
CIRCLE
  5
74
330
1F
100
AcDbEntity
  8
0
  6
CENTERX2
 62
     7
100
AcDbCircle
 10
0.0
 20
0.0
 30
0.0
 40
190.0758550231592
  0
CIRCLE
  5
75
330
1F
100
AcDbEntity
  8
0
  6
CENTERX2
 62
     7
100
AcDbCircle
 10
0.0
 20
0.0
 30
0.0
 40
195.6997651218183
  0
CIRCLE
  5
76
330
1F
100
AcDbEntity
  8
0
  6
CENTERX2
 62
     7
100
AcDbCircle
 10
0.0
 20
0.0
 30
0.0
 40
209.9801952380952
  0
CIRCLE
  5
77
330
1F
100
AcDbEntity
  8
0
  6
CENTERX2
 62
     7
100
AcDbCircle
 10
0.0
 20
0.0
 30
0.0
 40
192.6423809523809
  0
CIRCLE
  5
78
330
1F
100
AcDbEntity
  8
0
  6
Continuous
 62
     7
370
    25
100
AcDbCircle
 10
0.0
 20
0.0
 30
0.0
 40
4.049999999999994
  0
SPLINE
  5
7A
330
1F
100
AcDbEntity
  8
0
  6
Continuous
 62
     7
370
    25
100
AcDbSpline
210
0.0
220
0.0
230
1.0
 70
     8
 71
     3
 72
    65
 73
    61
 74
     0
 42
0.000000001
 43
0.00000001
 40
0.0094716307191536
 40
0.0094716307191536
 40
0.0094716307191536
 40
0.0094716307191536
 40
0.048419668697029
 40
0.0716540199566521
 40
0.0942380491570338
 40
0.1161717562981901
 40
0.1374551413801415
 40
0.1580882044029067
 40
0.1780709453665061
 40
0.1974033642709654
 40
0.2160854611163109
 40
0.2341172359025704
 40
0.2514986886297796
 40
0.268229819297972
 40
0.2843106279071896
 40
0.2997411144574795
 40
0.3145212789488909
 40
0.328651121381486
 40
0.3616959171496819
 40
0.3667921535946941
 40
0.3721063472831696
 40
0.3777510250171395
 40
0.3838738905804148
 40
0.3906671241098182
 40
0.3983737145639812
 40
0.4072803532253546
 40
0.4176743974130075
 40
0.4297326826127864
 40
0.4433372861934083
 40
0.4568916686723009
 40
0.4999999999999999
 40
0.5431083313276988
 40
0.5566627138065914
 40
0.5702673173872134
 40
0.5823256025869922
 40
0.5927196467746452
 40
0.6016262854360186
 40
0.6093328758901816
 40
0.616126109419585
 40
0.6222489749828604
 40
0.6278936527168302
 40
0.6332078464053057
 40
0.6383040828503179
 40
0.6713488786185138
 40
0.6854787210511089
 40
0.7002588855425202
 40
0.7156893720928101
 40
0.7317701807020278
 40
0.7485013113702201
 40
0.7658827640974294
 40
0.7839145388836889
 40
0.8025966357290344
 40
0.8219290546334937
 40
0.8419117955970933
 40
0.8625448586198585
 40
0.8838282437018099
 40
0.9057619508429663
 40
0.9283459800433479
 40
0.951580331302971
 40
0.9905283692808471
 40
0.9905283692808471
 40
0.9905283692808471
 40
0.9905283692808471
 10
4.569035075870017
 20
209.9304797086504
 30
0.0
 10
4.805631917672498
 20
209.3966142014884
 30
0.0
 10
5.175009444851858
 20
208.5405644812699
 30
0.0
 10
5.659360628129328
 20
207.3655589933462
 30
0.0
 10
6.034814834085688
 20
206.4216717079665
 30
0.0
 10
6.388060397571005
 20
205.5005123919757
 30
0.0
 10
6.719720468370979
 20
204.6024825880998
 30
0.0
 10
7.030424849695835
 20
203.7279718533819
 30
0.0
 10
7.320809518515548
 20
202.8773576390482
 30
0.0
 10
7.591516837064952
 20
202.0510053013146
 30
0.0
 10
7.843194022985514
 20
201.2492676241611
 30
0.0
 10
8.076497603594094
 20
200.4724860966058
 30
0.0
 10
8.292076730981785
 20
199.7209859922553
 30
0.0
 10
8.490631153817985
 20
198.9950933576697
 30
0.0
 10
8.672706010476594
 20
198.2950747833805
 30
0.0
 10
8.839412272651948
 20
197.6213487798856
 30
0.0
 10
8.98989939804723
 20
196.9737442009083
 30
0.0
 10
9.194947126411668
 20
196.0680879183663
 30
0.0
 10
9.320122010573028
 20
195.2912427211491
 30
0.0
 10
9.51866212097048
 20
194.6703338098443
 30
0.0
 10
9.60266490433724
 20
194.4446671716517
 30
0.0
 10
9.704749952414883
 20
194.209632319863
 30
0.0
 10
9.831421104666463
 20
193.9616210906125
 30
0.0
 10
9.99216037719325
 20
193.6971093482491
 30
0.0
 10
10.20052661085924
 20
193.4140519833718
 30
0.0
 10
10.47471392059886
 20
193.1148671274948
 30
0.0
 10
10.83588600940755
 20
192.8112209893372
 30
0.0
 10
11.30118041601941
 20
192.5316206357931
 30
0.0
 10
11.85519171487896
 20
192.3205355365464
 30
0.0
 10
12.90179325376201
 20
192.1692629861333
 30
0.0
 10
14.39881605505312
 20
192.1388473628344
 30
0.0
 10
15.88365156195531
 20
191.9458035979293
 30
0.0
 10
16.94110943010135
 20
191.9393986938009
 30
0.0
 10
17.52039348203843
 20
192.0655550474235
 30
0.0
 10
18.02216320488226
 20
192.272683963231
 30
0.0
 10
18.42455740841506
 20
192.5191087183098
 30
0.0
 10
18.74027346137083
 20
192.7740864285404
 30
0.0
 10
18.98849992748336
 20
193.0229269008608
 30
0.0
 10
19.1868673046549
 20
193.2605273201674
 30
0.0
 10
19.34908780043935
 20
193.4868891133096
 30
0.0
 10
19.48506276981618
 20
193.7040838330874
 30
0.0
 10
19.60176117865453
 20
193.9147099961847
 30
0.0
 10
19.89062543128753
 20
194.4990929999804
 30
0.0
 10
20.13018498407675
 20
195.2486051297898
 30
0.0
 10
20.46792356345768
 20
196.113585201822
 30
0.0
 10
20.7132503260354
 20
196.7315276305202
 30
0.0
 10
20.97850826734184
 20
197.3728823921049
 30
0.0
 10
21.26288185296388
 20
198.0379454880422
 30
0.0
 10
21.56740727020689
 20
198.7261375005114
 30
0.0
 10
21.89258383544258
 20
199.4371135679184
 30
0.0
 10
22.23905488700768
 20
200.1704469932464
 30
0.0
 10
22.6074138469853
 20
200.9257193848274
 30
0.0
 10
22.99825901352749
 20
201.7024952174746
 30
0.0
 10
23.41217779566557
 20
202.5003291847293
 30
0.0
 10
23.84975092746053
 20
203.3187642719797
 30
0.0
 10
24.31155102635897
 20
204.1573324563689
 30
0.0
 10
24.79814280072507
 20
205.0155546645865
 30
0.0
 10
25.31008259343846
 20
205.8929409631507
 30
0.0
 10
25.96414945487144
 20
206.9826338126126
 30
0.0
 10
26.45698893052206
 20
207.7740693010208
 30
0.0
 10
26.77051170610458
 20
208.2667090420885
 30
0.0
  0
SPLINE
  5
7C
330
1F
100
AcDbEntity
  8
0
  6
Continuous
 62
     7
370
    25
100
AcDbSpline
210
0.0
220
0.0
230
1.0
 70
     8
 71
     3
 72
    65
 73
    61
 74
     0
 42
0.000000001
 43
0.00000001
 40
0.0094716307191546
 40
0.0094716307191546
 40
0.0094716307191546
 40
0.0094716307191546
 40
0.048419668697029
 40
0.0716540199566521
 40
0.0942380491570338
 40
0.1161717562981901
 40
0.1374551413801415
 40
0.1580882044029067
 40
0.1780709453665061
 40
0.1974033642709654
 40
0.2160854611163109
 40
0.2341172359025704
 40
0.2514986886297796
 40
0.268229819297972
 40
0.2843106279071896
 40
0.2997411144574795
 40
0.3145212789488909
 40
0.328651121381486
 40
0.3616959171496819
 40
0.3667921535946941
 40
0.3721063472831696
 40
0.3777510250171395
 40
0.3838738905804148
 40
0.3906671241098182
 40
0.3983737145639812
 40
0.4072803532253546
 40
0.4176743974130075
 40
0.4297326826127864
 40
0.4433372861934083
 40
0.4568916686723009
 40
0.4999999999999999
 40
0.5431083313276988
 40
0.5566627138065914
 40
0.5702673173872134
 40
0.5823256025869922
 40
0.5927196467746452
 40
0.6016262854360186
 40
0.6093328758901816
 40
0.616126109419585
 40
0.6222489749828604
 40
0.6278936527168302
 40
0.6332078464053057
 40
0.6383040828503179
 40
0.6713488786185138
 40
0.6854787210511089
 40
0.7002588855425202
 40
0.7156893720928101
 40
0.7317701807020278
 40
0.7485013113702201
 40
0.7658827640974294
 40
0.7839145388836889
 40
0.8025966357290344
 40
0.8219290546334937
 40
0.8419117955970933
 40
0.8625448586198585
 40
0.8838282437018099
 40
0.9057619508429663
 40
0.9283459800433479
 40
0.951580331302971
 40
0.9905283692808463
 40
0.9905283692808463
 40
0.9905283692808463
 40
0.9905283692808463
 10
35.80651716435275
 20
206.9047503581962
 30
0.0
 10
35.96090288989384
 20
206.3415847581838
 30
0.0
 10
36.19856718502273
 20
205.4400435423249
 30
0.0
 10
36.50238308507654
 20
204.2059730969015
 30
0.0
 10
36.73296467773419
 20
203.2166697069351
 30
0.0
 10
36.94497310817118
 20
202.2531504601204
 30
0.0
 10
37.13908441294279
 20
201.3157195386268
 30
0.0
 10
37.31597942134227
 20
200.4046682811694
 30
0.0
 10
37.47634326318843
 20
199.5202751357073
 30
0.0
 10
37.62086557957902
 20
198.662805638606
 30
0.0
 10
37.75023893899307
 20
197.832512170756
 30
0.0
 10
37.86516343217692
 20
197.0296345567062
 30
0.0
 10
37.96632944024454
 20
196.2543976859268
 30
0.0
 10
38.05447749096909
 20
195.5070196711801
 30
0.0
 10
38.13018636723616
 20
194.7876828767426
 30
0.0
 10
38.19461700785723
 20
194.0966355569571
 30
0.0
 10
38.24690286236124
 20
193.4338352438605
 30
0.0
 10
38.31467931228869
 20
192.5077336156088
 30
0.0
 10
38.32267332775528
 20
191.7209087889918
 30
0.0
 10
38.42645423792857
 20
191.0773440492353
 30
0.0
 10
38.47588491245375
 20
190.8416779557417
 30
0.0
 10
38.54179962794864
 20
190.5940532621476
 30
0.0
 10
38.6300918124438
 20
190.3299327578239
 30
0.0
 10
38.74961233059124
 20
190.0444184476355
 30
0.0
 10
38.91346377446543
 20
189.7334672239946
 30
0.0
 10
39.13999744957021
 20
189.3967585177634
 30
0.0
 10
39.45187943600972
 20
189.0426739494934
 30
0.0
 10
39.87030461822177
 20
188.6968479680849
 30
0.0
 10
40.38666746706338
 20
188.4055494155238
 30
0.0
 10
41.39903332776177
 20
188.099978589375
 30
0.0
 10
42.87480240781669
 20
187.8467830126364
 30
0.0
 10
44.31428184872254
 20
187.4345921382401
 30
0.0
 10
45.35897418475373
 20
187.2706528545447
 30
0.0
 10
45.95059074128614
 20
187.3090623380704
 30
0.0
 10
46.47762707390312
 20
187.4390928984322
 30
0.0
 10
46.91225457058951
 20
187.6227915486084
 30
0.0
 10
47.26244679184349
 20
187.827866332484
 30
0.0
 10
47.54498852133147
 20
188.0369312272926
 30
0.0
 10
47.77655280373397
 20
188.2423127227978
 30
0.0
 10
47.97069890523679
 20
188.4419685314245
 30
0.0
 10
48.13752633978878
 20
188.636471348055
 30
0.0
 10
48.28431352448358
 20
188.8273519956227
 30
0.0
 10
48.65704916928214
 20
189.3621549412682
 30
0.0
 10
49.00564202615014
 20
190.0675911412216
 30
0.0
 10
49.46852693478041
 20
190.8725727772714
 30
0.0
 10
49.80321314005484
 20
191.4470492429522
 30
0.0
 10
50.16109733640913
 20
192.04170595706
 30
0.0
 10
50.54141721500502
 20
192.6569571640658
 30
0.0
 10
50.94511103204672
 20
193.292075482063
 30
0.0
 10
51.37262112800115
 20
193.9466454820333
 30
0.0
 10
51.82452005975698
 20
194.6201493482092
 30
0.0
 10
52.3013322633206
 20
195.31208491704
 30
0.0
 10
52.80358444268725
 20
196.0219323560827
 30
0.0
 10
53.33179107653091
 20
196.7491637838109
 30
0.0
 10
53.88645829809952
 20
197.4932407361678
 30
0.0
 10
54.46808257398872
 20
198.2536150735232
 30
0.0
 10
55.07715090306498
 20
199.0297289080056
 30
0.0
 10
55.71414039352122
 20
199.8210148596817
 30
0.0
 10
56.52331216023823
 20
200.8010531330881
 30
0.0
 10
57.12860436486679
 20
201.5101950286825
 30
0.0
 10
57.51204949350362
 20
201.9506042459031
 30
0.0
  0
SPLINE
  5
7E
330
1F
100
AcDbEntity
  8
0
  6
Continuous
 62
     7
370
    25
100
AcDbSpline
210
0.0
220
0.0
230
1.0
 70
     8
 71
     3
 72
    65
 73
    61
 74
     0
 42
0.000000001
 43
0.00000001
 40
0.0094716307191538
 40
0.0094716307191538
 40
0.0094716307191538
 40
0.0094716307191538
 40
0.048419668697029
 40
0.0716540199566521
 40
0.0942380491570338
 40
0.1161717562981901
 40
0.1374551413801415
 40
0.1580882044029067
 40
0.1780709453665061
 40
0.1974033642709654
 40
0.2160854611163109
 40
0.2341172359025704
 40
0.2514986886297796
 40
0.268229819297972
 40
0.2843106279071896
 40
0.2997411144574795
 40
0.3145212789488909
 40
0.328651121381486
 40
0.3616959171496819
 40
0.3667921535946941
 40
0.3721063472831696
 40
0.3777510250171395
 40
0.3838738905804148
 40
0.3906671241098182
 40
0.3983737145639812
 40
0.4072803532253546
 40
0.4176743974130075
 40
0.4297326826127864
 40
0.4433372861934083
 40
0.4568916686723009
 40
0.4999999999999999
 40
0.5431083313276988
 40
0.5566627138065914
 40
0.5702673173872134
 40
0.5823256025869922
 40
0.5927196467746452
 40
0.6016262854360186
 40
0.6093328758901816
 40
0.616126109419585
 40
0.6222489749828604
 40
0.6278936527168302
 40
0.6332078464053057
 40
0.6383040828503179
 40
0.6713488786185138
 40
0.6854787210511089
 40
0.7002588855425202
 40
0.7156893720928101
 40
0.7317701807020278
 40
0.7485013113702201
 40
0.7658827640974294
 40
0.7839145388836889
 40
0.8025966357290344
 40
0.8219290546334937
 40
0.8419117955970933
 40
0.8625448586198585
 40
0.8838282437018099
 40
0.9057619508429663
 40
0.9283459800433479
 40
0.951580331302971
 40
0.9905283692808459
 40
0.9905283692808459
 40
0.9905283692808459
 40
0.9905283692808459
 10
66.24414082787247
 20
199.2571107845478
 30
0.0
 10
66.31286671515835
 20
198.6772252805862
 30
0.0
 10
66.41350875061202
 20
197.7503315100972
 30
0.0
 10
66.5300026222756
 20
196.4847632016848
 30
0.0
 10
66.61056078987923
 20
195.4721431100887
 30
0.0
 10
66.67659616926528
 20
194.4877873602564
 30
0.0
 10
66.72882258221922
 20
193.5318959788733
 30
0.0
 10
66.76795667551588
 20
192.6046555783012
 30
0.0
 10
66.7947174271549
 20
191.7062393831646
 30
0.0
 10
66.80982635165446
 20
190.8368071783352
 30
0.0
 10
66.81400589749575
 20
189.9965053038418
 30
0.0
 10
66.80798407998414
 20
189.1854665624801
 30
0.0
 10
66.79247708728325
 20
188.4038104359247
 30
0.0
 10
66.76824968410322
 20
187.6516422308612
 30
0.0
 10
66.73590136878808
 20
186.9290560115949
 30
0.0
 10
66.69661711381184
 20
186.2361242307214
 30
0.0
 10
66.64953371783474
 20
185.5729340472556
 30
0.0
 10
66.57852487543101
 20
184.6470746533325
 30
0.0
 10
66.46915944910702
 20
183.8678465637533
 30
0.0
 10
66.47586286501569
 20
183.2160021683725
 30
0.0
 10
66.48961723111213
 20
182.9756010106802
 30
0.0
 10
66.51788918820088
 20
182.720918001748
 30
0.0
 10
66.56583010343644
 20
182.4465882379718
 30
0.0
 10
66.64146197633083
 20
182.1464492778499
 30
0.0
 10
66.75713845991346
 20
181.8145503319502
 30
0.0
 10
66.93095811241717
 20
181.4478392914675
 30
0.0
 10
67.1865830682799
 20
181.051225957233
 30
0.0
 10
67.54879209894834
 20
180.6468995289247
 30
0.0
 10
68.01597180499279
 20
180.281894651357
 30
0.0
 10
68.97148740706275
 20
179.8288514967881
 30
0.0
 10
70.39303652326805
 20
179.358531937401
 30
0.0
 10
71.75500430613592
 20
178.7364016165226
 30
0.0
 10
72.76359440956743
 20
178.4185900859564
 30
0.0
 10
73.35432773443917
 20
178.368394694993
 30
0.0
 10
73.89485755605996
 20
178.4184222320597
 30
0.0
 10
74.35200948582428
 20
178.5352912530412
 30
0.0
 10
74.72885515982885
 20
178.6858820787659
 30
0.0
 10
75.0394006373417
 20
178.8505012317819
 30
0.0
 10
75.29898906155475
 20
179.019075920259
 30
0.0
 10
75.52072386568511
 20
179.1875657635267
 30
0.0
 10
75.71467711619844
 20
179.3550318054926
 30
0.0
 10
75.88827409360213
 20
179.5219029792848
 30
0.0
 10
76.33655483218854
 20
179.9951792527097
 30
0.0
 10
76.78639400474526
 20
180.6407812437982
 30
0.0
 10
77.36408515866033
 20
181.3677824843084
 30
0.0
 10
77.78065446985799
 20
181.8859601320225
 30
0.0
 10
78.22317037969941
 20
182.4206351503007
 30
0.0
 10
78.690940833641
 20
182.9723307730825
 30
0.0
 10
79.1847851976926
 20
183.5401879028852
 30
0.0
 10
79.70507895526134
 20
184.1237298232638
 30
0.0
 10
80.25231109181297
 20
184.7223591668488
 30
0.0
 10
80.82692534224344
 20
185.3355012157106
 30
0.0
 10
81.42936505069424
 20
185.9625634423484
 30
0.0
 10
82.0600602728786
 20
186.6029471821684
 30
0.0
 10
82.71943123505102
 20
187.2560445500663
 30
0.0
 10
83.40788716271278
 20
187.9212395341723
 30
0.0
 10
84.12582646648274
 20
188.5979078943465
 30
0.0
 10
84.87363636205849
 20
189.2854174785348
 30
0.0
 10
85.81983747390717
 20
190.1339087403221
 30
0.0
 10
86.52406117987755
 20
190.744915984977
 30
0.0
 10
86.9688631310189
 20
191.1232566641922
 30
0.0
  0
SPLINE
  5
80
330
1F
100
AcDbEntity
  8
0
  6
Continuous
 62
     7
370
    25
100
AcDbSpline
210
0.0
220
0.0
230
1.0
 70
     8
 71
     3
 72
    65
 73
    61
 74
     0
 42
0.000000001
 43
0.00000001
 40
0.0094716307191534
 40
0.0094716307191534
 40
0.0094716307191534
 40
0.0094716307191534
 40
0.048419668697029
 40
0.0716540199566521
 40
0.0942380491570338
 40
0.1161717562981901
 40
0.1374551413801415
 40
0.1580882044029067
 40
0.1780709453665061
 40
0.1974033642709654
 40
0.2160854611163109
 40
0.2341172359025704
 40
0.2514986886297796
 40
0.268229819297972
 40
0.2843106279071896
 40
0.2997411144574795
 40
0.3145212789488909
 40
0.328651121381486
 40
0.3616959171496819
 40
0.3667921535946941
 40
0.3721063472831696
 40
0.3777510250171395
 40
0.3838738905804148
 40
0.3906671241098182
 40
0.3983737145639812
 40
0.4072803532253546
 40
0.4176743974130075
 40
0.4297326826127864
 40
0.4433372861934083
 40
0.4568916686723009
 40
0.4999999999999999
 40
0.5431083313276988
 40
0.5566627138065914
 40
0.5702673173872134
 40
0.5823256025869922
 40
0.5927196467746452
 40
0.6016262854360186
 40
0.6093328758901816
 40
0.616126109419585
 40
0.6222489749828604
 40
0.6278936527168302
 40
0.6332078464053057
 40
0.6383040828503179
 40
0.6713488786185138
 40
0.6854787210511089
 40
0.7002588855425202
 40
0.7156893720928101
 40
0.7317701807020278
 40
0.7485013113702201
 40
0.7658827640974294
 40
0.7839145388836889
 40
0.8025966357290344
 40
0.8219290546334937
 40
0.8419117955970933
 40
0.8625448586198585
 40
0.8838282437018099
 40
0.9057619508429663
 40
0.9283459800433479
 40
0.951580331302971
 40
0.990528369280846
 40
0.990528369280846
 40
0.990528369280846
 40
0.990528369280846
 10
95.20197985044493
 20
187.1583966184367
 30
0.0
 10
95.1835106767197
 20
186.5747448944522
 30
0.0
 10
95.14488227573209
 20
185.6432038445201
 30
0.0
 10
95.07145183841283
 20
184.37440837784
 30
0.0
 10
95.0001870446165
 20
183.3610918441562
 30
0.0
 10
94.91877425169635
 20
182.3778884721585
 30
0.0
 10
94.82794912106874
 20
181.4248896647831
 30
0.0
 10
94.72844810828549
 20
180.5021731394264
 30
0.0
 10
94.62100797874656
 20
179.6098030278266
 30
0.0
 10
94.50636600294851
 20
178.7478297940314
 30
0.0
 10
94.38525837106943
 20
177.916290468214
 30
0.0
 10
94.25842476031481
 20
177.115207864821
 30
0.0
 10
94.12659116743781
 20
176.3445933887091
 30
0.0
 10
93.99052951050571
 20
175.6044371881093
 30
0.0
 10
93.85084661151853
 20
174.8947429261149
 30
0.0
 10
93.70872500628585
 20
174.2154056351028
 30
0.0
 10
93.56332412509079
 20
173.5666401540776
 30
0.0
 10
93.35511621055663
 20
172.6617051634067
 30
0.0
 10
93.13083438534521
 20
171.907480478751
 30
0.0
 10
93.04031056375487
 20
171.2619175543981
 30
0.0
 10
93.0180813716124
 20
171.022151497119
 30
0.0
 10
93.00807902149165
 20
170.7660993704174
 30
0.0
 10
93.01459774664126
 20
170.4876884207951
 30
0.0
 10
93.04465148322004
 20
170.1796294191441
 30
0.0
 10
93.10956898501748
 20
169.8341968249904
 30
0.0
 10
93.22679177111152
 20
169.4456751689289
 30
0.0
 10
93.42044945729104
 20
169.0153927552329
 30
0.0
 10
93.71835118520312
 20
168.5615978643039
 30
0.0
 10
94.12591172580863
 20
168.131040267542
 30
0.0
 10
95.00323242964191
 20
167.5406450199948
 30
0.0
 10
96.33880652378076
 20
166.8637076397362
 30
0.0
 10
97.59283853892538
 20
166.0455352357049
 30
0.0
 10
98.54279617349152
 20
165.5809508426928
 30
0.0
 10
99.11945026038241
 20
165.4432718593292
 30
0.0
 10
99.66139902799064
 20
165.4121788405907
 30
0.0
 10
100.1308633721428
 20
165.4596075715691
 30
0.0
 10
100.5259443892594
 20
165.55235048894
 30
0.0
 10
100.8575565419904
 20
165.66884658031
 30
0.0
 10
101.1393703315741
 20
165.7968487817797
 30
0.0
 10
101.3837406492135
 20
165.9304088750109
 30
0.0
 10
101.6004871205698
 20
166.0670972276639
 30
0.0
 10
101.7970160210675
 20
166.2062313014044
 30
0.0
 10
102.3108280025034
 20
166.6074086927259
 30
0.0
 10
102.8518648269708
 20
167.1787547932938
 30
0.0
 10
103.5314575603981
 20
167.8115356318848
 30
0.0
 10
104.0206045074668
 20
168.261839229245
 30
0.0
 10
104.537867056605
 20
168.7245887953092
 30
0.0
 10
105.0826388669187
 20
169.2004048653035
 30
0.0
 10
105.6556021109406
 20
169.6883158169876
 30
0.0
 10
106.257057027339
 20
170.1877942955472
 30
0.0
 10
106.8873981070298
 20
170.6981767262109
 30
0.0
 10
107.546978471494
 20
171.2188286749191
 30
0.0
 10
108.2361482014438
 20
171.7490981551979
 30
0.0
 10
108.9552433228977
 20
172.2883290925644
 30
0.0
 10
109.7045887679567
 20
172.8358577600153
 30
0.0
 10
110.4844973796063
 20
173.3910140341285
 30
0.0
 10
111.2952700803827
 20
173.9531212669892
 30
0.0
 10
112.1371955437295
 20
174.5214966556542
 30
0.0
 10
113.1992894314214
 20
175.2194870131239
 30
0.0
 10
113.9867134448368
 20
175.7187107146527
 30
0.0
 10
114.4829360779074
 20
176.0265313502779
 30
0.0
  0
SPLINE
  5
82
330
1F
100
AcDbEntity
  8
0
  6
Continuous
 62
     7
370
    25
100
AcDbSpline
210
0.0
220
0.0
230
1.0
 70
     8
 71
     3
 72
    65
 73
    61
 74
     0
 42
0.000000001
 43
0.00000001
 40
0.0094716307191539
 40
0.0094716307191539
 40
0.0094716307191539
 40
0.0094716307191539
 40
0.048419668697029
 40
0.0716540199566521
 40
0.0942380491570338
 40
0.1161717562981901
 40
0.1374551413801415
 40
0.1580882044029067
 40
0.1780709453665061
 40
0.1974033642709654
 40
0.2160854611163109
 40
0.2341172359025704
 40
0.2514986886297796
 40
0.268229819297972
 40
0.2843106279071896
 40
0.2997411144574795
 40
0.3145212789488909
 40
0.328651121381486
 40
0.3616959171496819
 40
0.3667921535946941
 40
0.3721063472831696
 40
0.3777510250171395
 40
0.3838738905804148
 40
0.3906671241098182
 40
0.3983737145639812
 40
0.4072803532253546
 40
0.4176743974130075
 40
0.4297326826127864
 40
0.4433372861934083
 40
0.4568916686723009
 40
0.4999999999999999
 40
0.5431083313276988
 40
0.5566627138065914
 40
0.5702673173872134
 40
0.5823256025869922
 40
0.5927196467746452
 40
0.6016262854360186
 40
0.6093328758901816
 40
0.616126109419585
 40
0.6222489749828604
 40
0.6278936527168302
 40
0.6332078464053057
 40
0.6383040828503179
 40
0.6713488786185138
 40
0.6854787210511089
 40
0.7002588855425202
 40
0.7156893720928101
 40
0.7317701807020278
 40
0.7485013113702201
 40
0.7658827640974294
 40
0.7839145388836889
 40
0.8025966357290344
 40
0.8219290546334937
 40
0.8419117955970933
 40
0.8625448586198585
 40
0.8838282437018099
 40
0.9057619508429663
 40
0.9283459800433479
 40
0.951580331302971
 40
0.9905283692808472
 40
0.9905283692808472
 40
0.9905283692808472
 40
0.9905283692808472
 10
122.0331639596945
 20
170.8788731418103
 30
0.0
 10
121.9279122957798
 20
170.3044930128614
 30
0.0
 10
121.7508763529975
 20
169.3891137712164
 30
0.0
 10
121.4891619213249
 20
168.1454339403727
 30
0.0
 10
121.2676661038605
 20
167.1540567815086
 30
0.0
 10
121.0406237658974
 20
166.1939689259814
 30
0.0
 10
120.8087759750225
 20
165.2651511111873
 30
0.0
 10
120.5728625443644
 20
164.3675704234792
 30
0.0
 10
120.333621568602
 20
163.5011804691121
 30
0.0
 10
120.0917896048055
 20
162.6659212640264
 30
0.0
 10
119.8481001395779
 20
161.8617197013461
 30
0.0
 10
119.6032879888583
 20
161.0884880975326
 30
0.0
 10
119.3580727404216
 20
160.3461295258584
 30
0.0
 10
119.1132162223181
 20
159.6345191961725
 30
0.0
 10
118.8693190248032
 20
158.9535702885285
 30
0.0
 10
118.6275348311261
 20
158.3030027598879
 30
0.0
 10
118.3870644801313
 20
157.6831543300967
 30
0.0
 10
118.0463085142242
 20
156.8193584950096
 30
0.0
 10
117.712120375486
 20
156.1069853484138
 30
0.0
 10
117.5263914689849
 20
155.4821247040583
 30
0.0
 10
117.4686752820233
 20
155.2483497247104
 30
0.0
 10
117.4206220606664
 20
154.9966482616364
 30
0.0
 10
117.385572978182
 20
154.7203753667225
 30
0.0
 10
117.3693772276323
 20
154.411277852587
 30
0.0
 10
117.3820855979274
 20
154.0600280035225
 30
0.0
 10
117.4400929542753
 20
153.6583746636659
 30
0.0
 10
117.567457378072
 20
153.2040349686102
 30
0.0
 10
117.794397170894
 20
152.7109086430503
 30
0.0
 10
118.1332343170569
 20
152.2244162723309
 30
0.0
 10
118.9127622278587
 20
151.5098573860368
 30
0.0
 10
120.1325267816378
 20
150.6414238473764
 30
0.0
 10
121.2506100260664
 20
149.6454859797088
 30
0.0
 10
122.1207147079687
 20
149.0445067718884
 30
0.0
 10
122.6704080574697
 20
148.8224197171051
 30
0.0
 10
123.2016695311404
 20
148.7109007092203
 30
0.0
 10
123.6729592319985
 20
148.6878296707192
 30
0.0
 10
124.0774501351566
 20
148.7206529562153
 30
0.0
 10
124.4227212955863
 20
148.7864236557621
 30
0.0
 10
124.7204651961645
 20
148.8709940125608
 30
0.0
 10
124.9820121982267
 20
148.9666408439741
 30
0.0
 10
125.2167101324186
 20
149.0694981153867
 30
0.0
 10
125.4317808251275
 20
149.1777870637804
 30
0.0
 10
125.9996463387963
 20
149.4979039330019
 30
0.0
 10
126.6197949465522
 20
149.9822312152837
 30
0.0
 10
127.3861082808202
 20
150.5066563736601
 30
0.0
 10
127.9369061292535
 20
150.8790268824057
 30
0.0
 10
128.5173605270914
 20
151.2595139356206
 30
0.0
 10
129.126964391743
 20
151.6488215080863
 30
0.0
 10
129.766247463657
 20
152.0458871572397
 30
0.0
 10
130.4354280299272
 20
152.4501446701326
 30
0.0
 10
131.1347972746441
 20
152.8608790877556
 30
0.0
 10
131.8646098177235
 20
153.2774104321273
 30
0.0
 10
132.625114656224
 20
153.6990418221016
 30
0.0
 10
133.4165462802031
 20
154.1250744289261
 30
0.0
 10
134.2391270691622
 20
154.5548035102632
 30
0.0
 10
135.0930664951754
 20
154.9875198005881
 30
0.0
 10
135.9785612705846
 20
155.4225093594074
 30
0.0
 10
136.8957950780911
 20
155.8590539855784
 30
0.0
 10
138.0500563192326
 20
156.3909514875387
 30
0.0
 10
138.9030908888124
 20
156.7672398133918
 30
0.0
 10
139.4396494101726
 20
156.9976642010854
 30
0.0
  0
SPLINE
  5
84
330
1F
100
AcDbEntity
  8
0
  6
Continuous
 62
     7
370
    25
100
AcDbSpline
210
0.0
220
0.0
230
1.0
 70
     8
 71
     3
 72
    65
 73
    61
 74
     0
 42
0.000000001
 43
0.00000001
 40
0.0094716307191544
 40
0.0094716307191544
 40
0.0094716307191544
 40
0.0094716307191544
 40
0.048419668697029
 40
0.0716540199566521
 40
0.0942380491570338
 40
0.1161717562981901
 40
0.1374551413801415
 40
0.1580882044029067
 40
0.1780709453665061
 40
0.1974033642709654
 40
0.2160854611163109
 40
0.2341172359025704
 40
0.2514986886297796
 40
0.268229819297972
 40
0.2843106279071896
 40
0.2997411144574795
 40
0.3145212789488909
 40
0.328651121381486
 40
0.3616959171496819
 40
0.3667921535946941
 40
0.3721063472831696
 40
0.3777510250171395
 40
0.3838738905804148
 40
0.3906671241098182
 40
0.3983737145639812
 40
0.4072803532253546
 40
0.4176743974130075
 40
0.4297326826127864
 40
0.4433372861934083
 40
0.4568916686723009
 40
0.4999999999999999
 40
0.5431083313276988
 40
0.5566627138065914
 40
0.5702673173872134
 40
0.5823256025869922
 40
0.5927196467746452
 40
0.6016262854360186
 40
0.6093328758901816
 40
0.616126109419585
 40
0.6222489749828604
 40
0.6278936527168302
 40
0.6332078464053057
 40
0.6383040828503179
 40
0.6713488786185138
 40
0.6854787210511089
 40
0.7002588855425202
 40
0.7156893720928101
 40
0.7317701807020278
 40
0.7485013113702201
 40
0.7658827640974294
 40
0.7839145388836889
 40
0.8025966357290344
 40
0.8219290546334937
 40
0.8419117955970933
 40
0.8625448586198585
 40
0.8838282437018099
 40
0.9057619508429663
 40
0.9283459800433479
 40
0.951580331302971
 40
0.9905283692808456
 40
0.9905283692808456
 40
0.9905283692808456
 40
0.9905283692808456
 10
146.1383288398178
 20
150.7821980080336
 30
0.0
 10
145.9486458339624
 20
150.2299201770664
 30
0.0
 10
145.637157039804
 20
149.3511508033482
 30
0.0
 10
145.1930048817116
 20
148.160368360643
 30
0.0
 10
144.8262258911305
 20
147.2130763041261
 30
0.0
 10
144.4586257587783
 20
146.2975507412643
 30
0.0
 10
144.0909344041873
 20
145.4136621742088
 30
0.0
 10
143.7238784718601
 20
144.5612677935054
 30
0.0
 10
143.3581808979389
 20
143.7402117162853
 30
0.0
 10
142.9945610725999
 20
142.9503248503263
 30
0.0
 10
142.6337333939922
 20
142.1914255847904
 30
0.0
 10
142.2764114022148
 20
141.4633176968589
 30
0.0
 10
141.9232922016625
 20
140.7657980934028
 30
0.0
 10
141.5751105123888
 20
140.0986298334953
 30
0.0
 10
141.2324472767108
 20
139.4616375535642
 30
0.0
 10
140.8964015539397
 20
138.8543723908546
 30
0.0
 10
140.5662334434209
 20
138.2772874019503
 30
0.0
 10
140.1005413513369
 20
137.4739264940231
 30
0.0
 10
139.6639121098621
 20
136.8193181244208
 30
0.0
 10
139.3871269953137
 20
136.2291181143067
 30
0.0
 10
139.2952130977766
 20
136.0065563596271
 30
0.0
 10
139.2101824347431
 20
135.7648281549417
 30
0.0
 10
139.1343484832106
 20
135.4968647946812
 30
0.0
 10
139.072265031837
 20
135.1936334957589
 30
0.0
 10
139.0324803866373
 20
134.8444127329888
 30
0.0
 10
139.0299765247524
 20
134.4385999812373
 30
0.0
 10
139.0882025754021
 20
133.9703522028356
 30
0.0
 10
139.239110973169
 20
133.4489100698911
 30
0.0
 10
139.5016556629557
 20
132.9173503608716
 30
0.0
 10
140.1659774153298
 20
132.0945899005774
 30
0.0
 10
141.2426849042179
 20
131.0540595737257
 30
0.0
 10
142.1998432458269
 20
129.9026038486478
 30
0.0
 10
142.9706582742764
 20
129.1786547084333
 30
0.0
 10
143.4811116453007
 20
128.8771206400465
 30
0.0
 10
143.9898183215952
 20
128.687666793372
 30
0.0
 10
144.4524055460248
 20
128.5946113542676
 30
0.0
 10
144.8572706768489
 20
128.5667817899299
 30
0.0
 10
145.2084880577968
 20
128.5803578889085
 30
0.0
 10
145.5155109626376
 20
128.6196072390135
 30
0.0
 10
145.7883921212899
 20
128.6752042164469
 30
0.0
 10
146.0357987542942
 20
128.7419327451422
 30
0.0
 10
146.2646069153328
 20
128.8169575720239
 30
0.0
 10
146.8738407840287
 20
129.0488630372644
 30
0.0
 10
147.5592480799405
 20
129.4353524301005
 30
0.0
 10
148.3951638414562
 20
129.8397071168108
 30
0.0
 10
148.9953086774862
 20
130.1258263951001
 30
0.0
 10
149.6259885319481
 20
130.4155514834328
 30
0.0
 10
150.2868069079414
 20
130.7096540705124
 30
0.0
 10
150.9781292803044
 20
131.0070046266642
 30
0.0
 10
151.7000871083835
 20
131.3070107290679
 30
0.0
 10
152.4528617648724
 20
131.6089220054785
 30
0.0
 10
153.2366036803337
 20
131.912028123578
 30
0.0
 10
154.051455205989
 20
132.2156028747206
 30
0.0
 10
154.8975440578151
 20
132.5189202865645
 30
0.0
 10
155.7749850951227
 20
132.8212503442165
 30
0.0
 10
156.683879739815
 20
133.1218604838693
 30
0.0
 10
157.6243160998102
 20
133.4200154207018
 30
0.0
 10
158.5963687639001
 20
133.7149775987984
 30
0.0
 10
159.8170130697233
 20
134.0689005339899
 30
0.0
 10
160.7166028127802
 20
134.3138478247652
 30
0.0
 10
161.281511391699
 20
134.4617286644711
 30
0.0
  0
SPLINE
  5
86
330
1F
100
AcDbEntity
  8
0
  6
Continuous
 62
     7
370
    25
100
AcDbSpline
210
0.0
220
0.0
230
1.0
 70
     8
 71
     3
 72
    65
 73
    61
 74
     0
 42
0.000000001
 43
0.00000001
 40
0.0094716307191539
 40
0.0094716307191539
 40
0.0094716307191539
 40
0.0094716307191539
 40
0.048419668697029
 40
0.0716540199566521
 40
0.0942380491570338
 40
0.1161717562981901
 40
0.1374551413801415
 40
0.1580882044029067
 40
0.1780709453665061
 40
0.1974033642709654
 40
0.2160854611163109
 40
0.2341172359025704
 40
0.2514986886297796
 40
0.268229819297972
 40
0.2843106279071896
 40
0.2997411144574795
 40
0.3145212789488909
 40
0.328651121381486
 40
0.3616959171496819
 40
0.3667921535946941
 40
0.3721063472831696
 40
0.3777510250171395
 40
0.3838738905804148
 40
0.3906671241098182
 40
0.3983737145639812
 40
0.4072803532253546
 40
0.4176743974130075
 40
0.4297326826127864
 40
0.4433372861934083
 40
0.4568916686723009
 40
0.4999999999999999
 40
0.5431083313276988
 40
0.5566627138065914
 40
0.5702673173872134
 40
0.5823256025869922
 40
0.5927196467746452
 40
0.6016262854360186
 40
0.6093328758901816
 40
0.616126109419585
 40
0.6222489749828604
 40
0.6278936527168302
 40
0.6332078464053057
 40
0.6383040828503179
 40
0.6713488786185138
 40
0.6854787210511089
 40
0.7002588855425202
 40
0.7156893720928101
 40
0.7317701807020278
 40
0.7485013113702201
 40
0.7658827640974294
 40
0.7839145388836889
 40
0.8025966357290344
 40
0.8219290546334937
 40
0.8419117955970933
 40
0.8625448586198585
 40
0.8838282437018099
 40
0.9057619508429663
 40
0.9283459800433479
 40
0.951580331302971
 40
0.9905283692808468
 40
0.9905283692808468
 40
0.9905283692808468
 40
0.9905283692808468
 10
166.9790049399786
 20
127.3172977308394
 30
0.0
 10
166.7091277970914
 20
126.7994591719861
 30
0.0
 10
166.2701442964987
 20
125.9769299218808
 30
0.0
 10
165.653476037259
 20
124.8656449793754
 30
0.0
 10
165.1496071101267
 20
123.9835989643953
 30
0.0
 10
164.6496607629013
 20
123.1330870224129
 30
0.0
 10
164.154339461864
 20
122.3138723131021
 30
0.0
 10
163.6643404508542
 20
121.525705321329
 30
0.0
 10
163.1803553582785
 20
120.7683241572665
 30
0.0
 10
162.7030703374314
 20
120.0414543977711
 30
0.0
 10
162.233164739534
 20
119.3448099849283
 30
0.0
 10
161.7713148895382
 20
118.678090539933
 30
0.0
 10
161.3181798362988
 20
118.04099134002
 30
0.0
 10
160.8744507794405
 20
117.4331685863549
 30
0.0
 10
160.4406760360503
 20
116.8543622890723
 30
0.0
 10
160.017875490333
 20
116.303964792553
 30
0.0
 10
159.605385030293
 20
115.7825343695835
 30
0.0
 10
159.0251596038363
 20
115.0575541439854
 30
0.0
 10
158.4958428353713
 20
114.4753334206459
 30
0.0
 10
158.1341844348609
 20
113.9329781377228
 30
0.0
 10
158.0101260313362
 20
113.7266012695388
 30
0.0
 10
157.8900173711292
 20
113.5002461318908
 30
0.0
 10
157.7750925557141
 20
113.2465781649558
 30
0.0
 10
157.6685082452305
 20
112.9559867673899
 30
0.0
 10
157.5771193077675
 20
112.6165961056846
 30
0.0
 10
157.5141601597869
 20
112.2156891283271
 30
0.0
 10
157.5019471635338
 20
111.7439931481927
 30
0.0
 10
157.5734531220081
 20
111.2058833634564
 30
0.0
 10
157.7538405408907
 20
110.6411304816603
 30
0.0
 10
158.2881162846477
 20
109.7285475564783
 30
0.0
 10
159.1977148425487
 20
108.5391641695124
 30
0.0
 10
159.972566945643
 20
107.2579122051992
 30
0.0
 10
160.6268735866377
 20
106.4271649600932
 30
0.0
 10
161.0866842943753
 20
106.0529196509205
 30
0.0
 10
161.5614725067577
 20
105.7897630513279
 30
0.0
 10
162.0050238205675
 20
105.6288019163605
 30
0.0
 10
162.4012191610544
 20
105.5409411686692
 30
0.0
 10
162.7505371465994
 20
105.5020193994621
 30
0.0
 10
163.0599806713487
 20
105.4950709772498
 30
0.0
 10
163.3381002724293
 20
105.5093761560986
 30
0.0
 10
163.5926889488919
 20
105.5384853370112
 30
0.0
 10
163.8301233820367
 20
105.5785701117232
 30
0.0
 10
164.4671163278616
 20
105.7170837881014
 30
0.0
 10
165.2024714455402
 20
105.9971017571104
 30
0.0
 10
166.0893166575007
 20
106.2723533566294
 30
0.0
 10
166.7254022371999
 20
106.4658299725833
 30
0.0
 10
167.3922192025042
 20
106.6583211163169
 30
0.0
 10
168.089490499289
 20
106.8506489522048
 30
0.0
 10
168.8174091726782
 20
107.0416420952876
 30
0.0
 10
169.5760169176863
 20
107.2306951466195
 30
0.0
 10
170.365381244044
 20
107.4170390827962
 30
0.0
 10
171.1855450325902
 20
107.5999490848128
 30
0.0
 10
172.036540808819
 20
107.7786858388255
 30
0.0
 10
172.9183866616619
 20
107.9525124459249
 30
0.0
 10
173.8310873644722
 20
108.1206899259894
 30
0.0
 10
174.7746340233843
 20
108.2824787811936
 30
0.0
 10
175.7490041737077
 20
108.4371388074366
 30
0.0
 10
176.7541616441338
 20
108.5839295698105
 30
0.0
 10
178.0139218379006
 20
108.751971884701
 30
0.0
 10
178.9399714061021
 20
108.8601064226859
 30
0.0
 10
179.5206109184099
 20
108.9221403008108
 30
0.0
  0
SPLINE
  5
88
330
1F
100
AcDbEntity
  8
0
  6
Continuous
 62
     7
370
    25
100
AcDbSpline
210
0.0
220
0.0
230
1.0
 70
     8
 71
     3
 72
    65
 73
    61
 74
     0
 42
0.000000001
 43
0.00000001
 40
0.0094716307191538
 40
0.0094716307191538
 40
0.0094716307191538
 40
0.0094716307191538
 40
0.048419668697029
 40
0.0716540199566521
 40
0.0942380491570338
 40
0.1161717562981901
 40
0.1374551413801415
 40
0.1580882044029067
 40
0.1780709453665061
 40
0.1974033642709654
 40
0.2160854611163109
 40
0.2341172359025704
 40
0.2514986886297796
 40
0.268229819297972
 40
0.2843106279071896
 40
0.2997411144574795
 40
0.3145212789488909
 40
0.328651121381486
 40
0.3616959171496819
 40
0.3667921535946941
 40
0.3721063472831696
 40
0.3777510250171395
 40
0.3838738905804148
 40
0.3906671241098182
 40
0.3983737145639812
 40
0.4072803532253546
 40
0.4176743974130075
 40
0.4297326826127864
 40
0.4433372861934083
 40
0.4568916686723009
 40
0.4999999999999999
 40
0.5431083313276988
 40
0.5566627138065914
 40
0.5702673173872134
 40
0.5823256025869922
 40
0.5927196467746452
 40
0.6016262854360186
 40
0.6093328758901816
 40
0.616126109419585
 40
0.6222489749828604
 40
0.6278936527168302
 40
0.6332078464053057
 40
0.6383040828503179
 40
0.6713488786185138
 40
0.6854787210511089
 40
0.7002588855425202
 40
0.7156893720928101
 40
0.7317701807020278
 40
0.7485013113702201
 40
0.7658827640974294
 40
0.7839145388836889
 40
0.8025966357290344
 40
0.8219290546334937
 40
0.8419117955970933
 40
0.8625448586198585
 40
0.8838282437018099
 40
0.9057619508429663
 40
0.9283459800433479
 40
0.951580331302971
 40
0.9905283692808459
 40
0.9905283692808459
 40
0.9905283692808459
 40
0.9905283692808459
 10
184.0896459942798
 20
101.0083394078397
 30
0.0
 10
183.7456033237745
 20
100.5365077788026
 30
0.0
 10
183.1889312827524
 20
99.78859259656886
 30
0.0
 10
182.4135222722631
 20
98.78162942353569
 30
0.0
 10
181.7838190077934
 20
97.98453290052996
 30
0.0
 10
181.1626944209553
 20
97.21803361078211
 30
0.0
 10
180.5508078328432
 20
96.48179266211044
 30
0.0
 10
179.9488115113577
 20
95.77545940745705
 30
0.0
 10
179.3573503273345
 20
95.09867180022279
 30
0.0
 10
178.7770618696552
 20
94.45105621650183
 30
0.0
 10
178.2085752670294
 20
93.83222854136488
 30
0.0
 10
177.6525145212803
 20
93.24179094998634
 30
0.0
 10
177.10948590366
 20
92.67934389696765
 30
0.0
 10
176.580121653107
 20
92.14444440546495
 30
0.0
 10
176.0649252129808
 20
91.63675366706357
 30
0.0
 10
175.5648145098518
 20
91.15551880730236
 30
0.0
 10
175.0792160555479
 20
90.70139084427888
 30
0.0
 10
174.3974185719518
 20
90.07098616125599
 30
0.0
 10
173.7872383384345
 20
89.5741589330479
 30
0.0
 10
173.3487855030071
 20
89.09176369812114
 30
0.0
 10
173.1953538532291
 20
88.90618183464062
 30
0.0
 10
173.0428502248442
 20
88.70025616376448
 30
0.0
 10
172.8914017760151
 20
88.46655011336266
 30
0.0
 10
172.7426975237926
 20
88.19508994878694
 30
0.0
 10
172.6017457719135
 20
87.87311081470267
 30
0.0
 10
172.4797377411663
 20
87.48606521113433
 30
0.0
 10
172.3973585161652
 20
87.02145793800936
 30
0.0
 10
172.3878647103948
 20
86.4787009848726
 30
0.0
 10
172.4820653015165
 20
85.89337057645328
 30
0.0
 10
172.874360199405
 20
84.9113507809341
 30
0.0
 10
173.5965308976018
 20
83.59968319332201
 30
0.0
 10
174.1717678466029
 20
82.21725604145104
 30
0.0
 10
174.694949970992
 20
81.29826821214066
 30
0.0
 10
175.0938466040465
 20
80.85967168396725
 30
0.0
 10
175.524110368416
 20
80.52869081503836
 30
0.0
 10
175.938717568202
 20
80.30341958998272
 30
0.0
 10
176.3173927691383
 20
80.15749032285575
 30
0.0
 10
176.6570081727138
 20
80.06694013347092
 30
0.0
 10
176.9619598603689
 20
80.01394915521155
 30
0.0
 10
177.2391051715685
 20
79.98664298141883
 30
0.0
 10
177.4951888011523
 20
79.97748256354859
 30
0.0
 10
177.7359456135154
 20
79.98173185846198
 30
0.0
 10
178.3864682666589
 20
80.02375957933447
 30
0.0
 10
179.155344587913
 20
80.19105098580447
 30
0.0
 10
180.0733085937507
 20
80.3310508322386
 30
0.0
 10
180.7311258163683
 20
80.42756283796717
 30
0.0
 10
181.419184303392
 20
80.51852010303259
 30
0.0
 10
182.1373326324043
 20
80.60477690168732
 30
0.0
 10
182.8855871065056
 20
80.68514616049137
 30
0.0
 10
183.6638987249808
 20
80.75902302798545
 30
0.0
 10
184.4722196265416
 20
80.82563700831817
 30
0.0
 10
185.3104841844166
 20
80.88426498705643
 30
0.0
 10
186.178614371806
 20
80.93417106020814
 30
0.0
 10
187.0765182465197
 20
80.9746238634004
 30
0.0
 10
188.0040903893245
 20
81.0048919588776
 30
0.0
 10
188.9612117892602
 20
81.024245433956
 30
0.0
 10
189.9477499108517
 20
81.0319557001912
 30
0.0
 10
190.9635586306974
 20
81.02729598377539
 30
0.0
 10
192.2342937513701
 20
81.00570389073182
 30
0.0
 10
193.1661167276134
 20
80.97461012903467
 30
0.0
 10
193.749516646083
 20
80.94941131124905
 30
0.0
  0
SPLINE
  5
8A
330
1F
100
AcDbEntity
  8
0
  6
Continuous
 62
     7
370
    25
100
AcDbSpline
210
0.0
220
0.0
230
1.0
 70
     8
 71
     3
 72
    65
 73
    61
 74
     0
 42
0.000000001
 43
0.00000001
 40
0.0094716307191533
 40
0.0094716307191533
 40
0.0094716307191533
 40
0.0094716307191533
 40
0.048419668697029
 40
0.0716540199566521
 40
0.0942380491570338
 40
0.1161717562981901
 40
0.1374551413801415
 40
0.1580882044029067
 40
0.1780709453665061
 40
0.1974033642709654
 40
0.2160854611163109
 40
0.2341172359025704
 40
0.2514986886297796
 40
0.268229819297972
 40
0.2843106279071896
 40
0.2997411144574795
 40
0.3145212789488909
 40
0.328651121381486
 40
0.3616959171496819
 40
0.3667921535946941
 40
0.3721063472831696
 40
0.3777510250171395
 40
0.3838738905804148
 40
0.3906671241098182
 40
0.3983737145639812
 40
0.4072803532253546
 40
0.4176743974130075
 40
0.4297326826127864
 40
0.4433372861934083
 40
0.4568916686723009
 40
0.4999999999999999
 40
0.5431083313276988
 40
0.5566627138065914
 40
0.5702673173872134
 40
0.5823256025869922
 40
0.5927196467746452
 40
0.6016262854360186
 40
0.6093328758901816
 40
0.616126109419585
 40
0.6222489749828604
 40
0.6278936527168302
 40
0.6332078464053057
 40
0.6383040828503179
 40
0.6713488786185138
 40
0.6854787210511089
 40
0.7002588855425202
 40
0.7156893720928101
 40
0.7317701807020278
 40
0.7485013113702201
 40
0.7658827640974294
 40
0.7839145388836889
 40
0.8025966357290344
 40
0.8219290546334937
 40
0.8419117955970933
 40
0.8625448586198585
 40
0.8838282437018099
 40
0.9057619508429663
 40
0.9283459800433479
 40
0.951580331302971
 40
0.9905283692808461
 40
0.9905283692808461
 40
0.9905283692808461
 40
0.9905283692808461
 10
197.0880285560519
 20
72.44302169372503
 30
0.0
 10
196.6775057026741
 20
72.02773693341854
 30
0.0
 10
196.0155802547461
 20
71.37114300833494
 30
0.0
 10
195.0987518489767
 20
70.490995498103
 30
0.0
 10
194.3572807775445
 20
69.79665428623316
 30
0.0
 10
193.6288528479862
 20
69.13128997625093
 30
0.0
 10
192.9140695080655
 20
68.49446919441017
 30
0.0
 10
192.2135234791575
 20
67.88574799460488
 30
0.0
 10
191.5277984691775
 20
67.30467226098658
 30
0.0
 10
190.8574692599128
 20
66.7507775150279
 30
0.0
 10
190.2031007038655
 20
66.22359016527741
 30
0.0
 10
189.5652505405604
 20
65.72262382763826
 30
0.0
 10
188.9444587205489
 20
65.24739305926255
 30
0.0
 10
188.3412843989105
 20
64.7973656006676
 30
0.0
 10
187.7561748991843
 20
64.37213139330962
 30
0.0
 10
187.1899256853435
 20
63.97080916185691
 30
0.0
 10
186.6420667038176
 20
63.59412812704957
 30
0.0
 10
185.8739273922292
 20
63.07238118550821
 30
0.0
 10
185.1965141117839
 20
62.67204575172741
 30
0.0
 10
184.6910611532614
 20
62.26038647721118
 30
0.0
 10
184.511683666748
 20
62.09974521059941
 30
0.0
 10
184.3301917492385
 20
61.91884904570056
 30
0.0
 10
184.1456027750814
 20
61.71032551881028
 30
0.0
 10
183.9581003883881
 20
61.46406055872695
 30
0.0
 10
183.7707344513143
 20
61.16668543406469
 30
0.0
 10
183.5924029955951
 20
60.80214716349568
 30
0.0
 10
183.4416977576049
 20
60.3550071561213
 30
0.0
 10
183.3514162635226
 20
59.81972732803831
 30
0.0
 10
183.3573257413398
 20
59.22689470709042
 30
0.0
 10
183.5988765735887
 20
58.19737474072711
 30
0.0
 10
184.1174873120347
 20
56.79272343891064
 30
0.0
 10
184.4802592640523
 20
55.34000223766262
 30
0.0
 10
184.8606298477094
 20
54.35330249367299
 30
0.0
 10
185.1897017144552
 20
53.86015226817931
 30
0.0
 10
185.5658296493053
 20
53.46874069559651
 30
0.0
 10
185.942231095342
 20
53.18419156737096
 30
0.0
 10
186.2949271784808
 20
52.98345359949509
 30
0.0
 10
186.6172535531686
 20
52.8432977315336
 30
0.0
 10
186.9109012869446
 20
52.74544792811656
 30
0.0
 10
187.1808813399799
 20
52.67714037648276
 30
0.0
 10
187.4327394375655
 20
52.62991498842777
 30
0.0
 10
187.6714405197973
 20
52.59823388131592
 30
0.0
 10
188.3209612791444
 20
52.54283681684718
 30
0.0
 10
189.1061833774871
 20
52.59366464719835
 30
0.0
 10
190.0347603782013
 20
52.59528537532101
 30
0.0
 10
190.6996146939945
 20
52.59267685209757
 30
0.0
 10
191.3935446131199
 20
52.58006840349563
 30
0.0
 10
192.116527727394
 20
52.55832733057029
 30
0.0
 10
192.8684032337092
 20
52.52627738866009
 30
0.0
 10
193.6490325302159
 20
52.4833277851744
 30
0.0
 10
194.4582534537492
 20
52.42872376341874
 30
0.0
 10
195.2958933359204
 20
52.36176006671355
 30
0.0
 10
196.1617653406261
 20
52.28172063979734
 30
0.0
 10
197.055669548391
 20
52.18789599030537
 30
0.0
 10
197.9773927022869
 20
52.07957856195883
 30
0.0
 10
198.9267083327671
 20
51.9560643322588
 30
0.0
 10
199.9033767941955
 20
51.8166526038794
 30
0.0
 10
200.9071452752328
 20
51.66064649903866
 30
0.0
 10
202.1604692000422
 20
51.44990232973974
 30
0.0
 10
203.0772501988292
 20
51.28027485161595
 30
0.0
 10
203.6503783333215
 20
51.16840623786938
 30
0.0
  0
SPLINE
  5
8C
330
1F
100
AcDbEntity
  8
0
  6
Continuous
 62
     7
370
    25
100
AcDbSpline
210
0.0
220
0.0
230
1.0
 70
     8
 71
     3
 72
    65
 73
    61
 74
     0
 42
0.000000001
 43
0.00000001
 40
0.0094716307191538
 40
0.0094716307191538
 40
0.0094716307191538
 40
0.0094716307191538
 40
0.048419668697029
 40
0.0716540199566521
 40
0.0942380491570338
 40
0.1161717562981901
 40
0.1374551413801415
 40
0.1580882044029067
 40
0.1780709453665061
 40
0.1974033642709654
 40
0.2160854611163109
 40
0.2341172359025704
 40
0.2514986886297796
 40
0.268229819297972
 40
0.2843106279071896
 40
0.2997411144574795
 40
0.3145212789488909
 40
0.328651121381486
 40
0.3616959171496819
 40
0.3667921535946941
 40
0.3721063472831696
 40
0.3777510250171395
 40
0.3838738905804148
 40
0.3906671241098182
 40
0.3983737145639812
 40
0.4072803532253546
 40
0.4176743974130075
 40
0.4297326826127864
 40
0.4433372861934083
 40
0.4568916686723009
 40
0.4999999999999999
 40
0.5431083313276988
 40
0.5566627138065914
 40
0.5702673173872134
 40
0.5823256025869922
 40
0.5927196467746452
 40
0.6016262854360186
 40
0.6093328758901816
 40
0.616126109419585
 40
0.6222489749828604
 40
0.6278936527168302
 40
0.6332078464053057
 40
0.6383040828503179
 40
0.6713488786185138
 40
0.6854787210511089
 40
0.7002588855425202
 40
0.7156893720928101
 40
0.7317701807020278
 40
0.7485013113702201
 40
0.7658827640974294
 40
0.7839145388836889
 40
0.8025966357290344
 40
0.8219290546334937
 40
0.8419117955970933
 40
0.8625448586198585
 40
0.8838282437018099
 40
0.9057619508429663
 40
0.9283459800433479
 40
0.951580331302971
 40
0.9905283692808461
 40
0.9905283692808461
 40
0.9905283692808461
 40
0.9905283692808461
 10
205.683790238045
 20
42.25944658346253
 30
0.0
 10
205.2159576039707
 20
41.90998546719449
 30
0.0
 10
204.4635650698446
 20
41.35938002255855
 30
0.0
 10
203.4257977003667
 20
40.62570921610648
 30
0.0
 10
202.5891220604638
 20
40.04963375068139
 30
0.0
 10
201.7696626644407
 20
39.50026755966833
 30
0.0
 10
200.9679496513814
 20
38.97709246861015
 30
0.0
 10
200.184502955719
 20
38.47958114937512
 30
0.0
 10
199.4198320833788
 20
38.00719756106306
 30
0.0
 10
198.674436169378
 20
37.55939674620787
 30
0.0
 10
197.9488031721398
 20
37.13562621608639
 30
0.0
 10
197.2434121099113
 20
36.73532189234751
 30
0.0
 10
196.5587245509402
 20
36.35792327868511
 30
0.0
 10
195.8952140758462
 20
36.00282072277493
 30
0.0
 10
195.2532618958795
 20
35.66954207597434
 30
0.0
 10
194.6335232430654
 20
35.35709734831578
 30
0.0
 10
194.0356419986549
 20
35.06627767359549
 30
0.0
 10
193.1983198219832
 20
34.66484343804886
 30
0.0
 10
192.4688057879032
 20
34.36994263075159
 30
0.0
 10
191.9076436901432
 20
34.03821510459212
 30
0.0
 10
191.7063273635307
 20
33.90610289529349
 30
0.0
 10
191.4999013864276
 20
33.75427715777386
 30
0.0
 10
191.286295299601
 20
33.57559422541108
 30
0.0
 10
191.0641832719172
 20
33.3600256220878
 30
0.0
 10
190.83458859507
 20
33.09389737573492
 30
0.0
 10
190.6039173444157
 20
32.76000962074838
 30
0.0
 10
190.3882525994203
 20
32.34032524801273
 30
0.0
 10
190.2192001564181
 20
31.82447981181959
 30
0.0
 10
190.1366865129615
 20
31.23738787946868
 30
0.0
 10
190.2220974331292
 20
30.18336551707926
 30
0.0
 10
190.5255633049058
 20
28.71710809002459
 30
0.0
 10
190.6677665339946
 20
27.22654423048589
 30
0.0
 10
190.8968287266243
 20
26.19417381362548
 30
0.0
 10
191.1487249053331
 20
25.65748605194286
 30
0.0
 10
191.462314934132
 20
25.2143872634495
 30
0.0
 10
191.7921024400996
 20
24.8769165893753
 30
0.0
 10
192.1109407577563
 20
24.62585407524339
 30
0.0
 10
192.408777864974
 20
24.43922337919491
 30
0.0
 10
192.6845620397368
 20
24.29870055353659
 30
0.0
 10
192.9413459263515
 20
24.19091750189038
 30
0.0
 10
193.1833523982218
 20
24.10668208078219
 30
0.0
 10
193.414665562587
 20
24.03977827522651
 30
0.0
 10
194.0486752076746
 20
23.88819390429587
 30
0.0
 10
194.8327025189695
 20
23.82142274878865
 30
0.0
 10
195.7511496387916
 20
23.68462815421174
 30
0.0
 10
196.4081893009841
 20
23.58295737213466
 30
0.0
 10
197.0924894045026
 20
23.46706486177229
 30
0.0
 10
197.8041570559591
 20
23.33781157690999
 30
0.0
 10
198.5428579381142
 20
23.19405837702687
 30
0.0
 10
199.3083669441196
 20
23.03524172573119
 30
0.0
 10
200.1004112313909
 20
22.86063946550276
 30
0.0
 10
200.9187149470489
 20
22.66957995168434
 30
0.0
 10
201.7629866192962
 20
22.46138297323635
 30
0.0
 10
202.632922817243
 20
22.23537675868922
 30
0.0
 10
203.5282072100735
 20
21.99089343887905
 30
0.0
 10
204.4485109286101
 20
21.72727060819097
 30
0.0
 10
205.3934925703433
 20
21.44385111283801
 30
0.0
 10
206.3627982833834
 20
21.13998353816214
 30
0.0
 10
207.5707138269047
 20
20.74479496910575
 30
0.0
 10
208.4519734756574
 20
20.44042297211567
 30
0.0
 10
209.0020270907135
 20
20.24438352238193
 30
0.0
  0
SPLINE
  5
8E
330
1F
100
AcDbEntity
  8
0
  6
Continuous
 62
     7
370
    25
100
AcDbSpline
210
0.0
220
0.0
230
1.0
 70
     8
 71
     3
 72
    65
 73
    61
 74
     0
 42
0.000000001
 43
0.00000001
 40
0.0094716307191535
 40
0.0094716307191535
 40
0.0094716307191535
 40
0.0094716307191535
 40
0.048419668697029
 40
0.0716540199566521
 40
0.0942380491570338
 40
0.1161717562981901
 40
0.1374551413801415
 40
0.1580882044029067
 40
0.1780709453665061
 40
0.1974033642709654
 40
0.2160854611163109
 40
0.2341172359025704
 40
0.2514986886297796
 40
0.268229819297972
 40
0.2843106279071896
 40
0.2997411144574795
 40
0.3145212789488909
 40
0.328651121381486
 40
0.3616959171496819
 40
0.3667921535946941
 40
0.3721063472831696
 40
0.3777510250171395
 40
0.3838738905804148
 40
0.3906671241098182
 40
0.3983737145639812
 40
0.4072803532253546
 40
0.4176743974130075
 40
0.4297326826127864
 40
0.4433372861934083
 40
0.4568916686723009
 40
0.4999999999999999
 40
0.5431083313276988
 40
0.5566627138065914
 40
0.5702673173872134
 40
0.5823256025869922
 40
0.5927196467746452
 40
0.6016262854360186
 40
0.6093328758901816
 40
0.616126109419585
 40
0.6222489749828604
 40
0.6278936527168302
 40
0.6332078464053057
 40
0.6383040828503179
 40
0.6713488786185138
 40
0.6854787210511089
 40
0.7002588855425202
 40
0.7156893720928101
 40
0.7317701807020278
 40
0.7485013113702201
 40
0.7658827640974294
 40
0.7839145388836889
 40
0.8025966357290344
 40
0.8219290546334937
 40
0.8419117955970933
 40
0.8625448586198585
 40
0.8838282437018099
 40
0.9057619508429663
 40
0.9283459800433479
 40
0.951580331302971
 40
0.9905283692808461
 40
0.9905283692808461
 40
0.9905283692808461
 40
0.9905283692808461
 10
209.6849159283523
 20
11.13186526815883
 30
0.0
 10
209.1702241215565
 20
10.85603417979954
 30
0.0
 10
208.3441717071534
 20
10.42371683139632
 30
0.0
 10
207.2086473821422
 20
9.85291172218572
 30
0.0
 10
206.2954571249992
 20
9.40797057716694
 30
0.0
 10
205.4032716313026
 20
8.986874438029979
 30
0.0
 10
204.5325378890254
 20
8.58903190476782
 30
0.0
 10
203.6836914311831
 20
8.213844046862047
 30
0.0
 10
202.8571561801903
 20
7.860704872628722
 30
0.0
 10
202.0533444744424
 20
7.529001119112332
 30
0.0
 10
201.2726564780992
 20
7.218113742003034
 30
0.0
 10
200.5154817876538
 20
6.927413569273774
 30
0.0
 10
199.7821932783783
 20
6.65627757172145
 30
0.0
 10
199.0731683774243
 20
6.404032322805786
 30
0.0
 10
198.3887136681235
 20
6.170154130805738
 30
0.0
 10
197.7293295137526
 20
5.95356640585782
 30
0.0
 10
197.0947816854888
 20
5.755104522192793
 30
0.0
 10
196.2069810375273
 20
5.482950370112892
 30
0.0
 10
195.4416623878485
 20
5.300071786025276
 30
0.0
 10
194.8373265848223
 20
5.055686252993713
 30
0.0
 10
194.6185684921821
 20
4.955054269455118
 30
0.0
 10
194.3918196707051
 20
4.835690495406427
 30
0.0
 10
194.1539680782153
 20
4.690839639015461
 30
0.0
 10
193.9022080252104
 20
4.51078283883409
 30
0.0
 10
193.6355133742769
 20
4.281846336050416
 30
0.0
 10
193.3576551432542
 20
3.986067597359845
 30
0.0
 10
193.0818484852816
 20
3.603213914642287
 30
0.0
 10
192.8378014455855
 20
3.118326004974623
 30
0.0
 10
192.6687078993001
 20
2.550089424849203
 30
0.0
 10
192.5960709685673
 20
1.495109784289926
 30
0.0
 10
192.6776130475615
 20
0.0000000000000069
 30
0.0
 10
192.5960709685672
 20
-1.495109784289926
 30
0.0
 10
192.6687078993001
 20
-2.550089424849203
 30
0.0
 10
192.8378014455854
 20
-3.118326004974616
 30
0.0
 10
193.0818484852816
 20
-3.603213914642293
 30
0.0
 10
193.3576551432542
 20
-3.986067597359838
 30
0.0
 10
193.6355133742769
 20
-4.281846336050416
 30
0.0
 10
193.9022080252104
 20
-4.51078283883409
 30
0.0
 10
194.1539680782153
 20
-4.690839639015461
 30
0.0
 10
194.3918196707051
 20
-4.835690495406427
 30
0.0
 10
194.6185684921821
 20
-4.955054269455118
 30
0.0
 10
194.8373265848223
 20
-5.055686252993713
 30
0.0
 10
195.4416623878486
 20
-5.300071786025276
 30
0.0
 10
196.2069810375274
 20
-5.482950370112892
 30
0.0
 10
197.0947816854888
 20
-5.755104522192786
 30
0.0
 10
197.7293295137526
 20
-5.95356640585782
 30
0.0
 10
198.3887136681235
 20
-6.170154130805738
 30
0.0
 10
199.0731683774243
 20
-6.404032322805786
 30
0.0
 10
199.7821932783783
 20
-6.65627757172145
 30
0.0
 10
200.5154817876538
 20
-6.927413569273774
 30
0.0
 10
201.2726564780992
 20
-7.218113742003034
 30
0.0
 10
202.0533444744424
 20
-7.529001119112332
 30
0.0
 10
202.8571561801903
 20
-7.860704872628722
 30
0.0
 10
203.6836914311831
 20
-8.213844046862047
 30
0.0
 10
204.5325378890254
 20
-8.58903190476782
 30
0.0
 10
205.4032716313026
 20
-8.986874438029986
 30
0.0
 10
206.2954571249991
 20
-9.40797057716694
 30
0.0
 10
207.2086473821422
 20
-9.85291172218572
 30
0.0
 10
208.3441717071534
 20
-10.42371683139631
 30
0.0
 10
209.1702241215565
 20
-10.85603417979953
 30
0.0
 10
209.6849159283523
 20
-11.13186526815882
 30
0.0
  0
SPLINE
  5
90
330
1F
100
AcDbEntity
  8
0
  6
Continuous
 62
     7
370
    25
100
AcDbSpline
210
0.0
220
0.0
230
1.0
 70
     8
 71
     3
 72
    65
 73
    61
 74
     0
 42
0.000000001
 43
0.00000001
 40
0.0094716307191539
 40
0.0094716307191539
 40
0.0094716307191539
 40
0.0094716307191539
 40
0.048419668697029
 40
0.0716540199566521
 40
0.0942380491570338
 40
0.1161717562981901
 40
0.1374551413801415
 40
0.1580882044029067
 40
0.1780709453665061
 40
0.1974033642709654
 40
0.2160854611163109
 40
0.2341172359025704
 40
0.2514986886297796
 40
0.268229819297972
 40
0.2843106279071896
 40
0.2997411144574795
 40
0.3145212789488909
 40
0.328651121381486
 40
0.3616959171496819
 40
0.3667921535946941
 40
0.3721063472831696
 40
0.3777510250171395
 40
0.3838738905804148
 40
0.3906671241098182
 40
0.3983737145639812
 40
0.4072803532253546
 40
0.4176743974130075
 40
0.4297326826127864
 40
0.4433372861934083
 40
0.4568916686723009
 40
0.4999999999999999
 40
0.5431083313276988
 40
0.5566627138065914
 40
0.5702673173872134
 40
0.5823256025869922
 40
0.5927196467746452
 40
0.6016262854360186
 40
0.6093328758901816
 40
0.616126109419585
 40
0.6222489749828604
 40
0.6278936527168302
 40
0.6332078464053057
 40
0.6383040828503179
 40
0.6713488786185138
 40
0.6854787210511089
 40
0.7002588855425202
 40
0.7156893720928101
 40
0.7317701807020278
 40
0.7485013113702201
 40
0.7658827640974294
 40
0.7839145388836889
 40
0.8025966357290344
 40
0.8219290546334937
 40
0.8419117955970933
 40
0.8625448586198585
 40
0.8838282437018099
 40
0.9057619508429663
 40
0.9283459800433479
 40
0.951580331302971
 40
0.9905283692808466
 40
0.9905283692808466
 40
0.9905283692808466
 40
0.9905283692808466
 10
209.0020270907135
 20
-20.24438352238195
 30
0.0
 10
208.4519734756574
 20
-20.44042297211568
 30
0.0
 10
207.5707138269047
 20
-20.74479496910575
 30
0.0
 10
206.3627982833834
 20
-21.13998353816216
 30
0.0
 10
205.3934925703433
 20
-21.44385111283803
 30
0.0
 10
204.4485109286101
 20
-21.72727060819099
 30
0.0
 10
203.5282072100735
 20
-21.99089343887906
 30
0.0
 10
202.632922817243
 20
-22.23537675868924
 30
0.0
 10
201.7629866192962
 20
-22.46138297323635
 30
0.0
 10
200.9187149470489
 20
-22.66957995168437
 30
0.0
 10
200.1004112313908
 20
-22.86063946550276
 30
0.0
 10
199.3083669441196
 20
-23.03524172573121
 30
0.0
 10
198.5428579381142
 20
-23.19405837702687
 30
0.0
 10
197.8041570559591
 20
-23.33781157691001
 30
0.0
 10
197.0924894045026
 20
-23.4670648617723
 30
0.0
 10
196.4081893009841
 20
-23.58295737213467
 30
0.0
 10
195.7511496387916
 20
-23.68462815421175
 30
0.0
 10
194.8327025189694
 20
-23.82142274878865
 30
0.0
 10
194.0486752076745
 20
-23.88819390429586
 30
0.0
 10
193.414665562587
 20
-24.03977827522652
 30
0.0
 10
193.1833523982218
 20
-24.10668208078219
 30
0.0
 10
192.9413459263515
 20
-24.1909175018904
 30
0.0
 10
192.6845620397368
 20
-24.2987005535366
 30
0.0
 10
192.4087778649741
 20
-24.43922337919492
 30
0.0
 10
192.1109407577563
 20
-24.6258540752434
 30
0.0
 10
191.7921024400995
 20
-24.8769165893753
 30
0.0
 10
191.462314934132
 20
-25.21438726344952
 30
0.0
 10
191.1487249053332
 20
-25.65748605194288
 30
0.0
 10
190.8968287266243
 20
-26.1941738136255
 30
0.0
 10
190.6677665339946
 20
-27.22654423048591
 30
0.0
 10
190.5255633049058
 20
-28.71710809002459
 30
0.0
 10
190.2220974331291
 20
-30.18336551707926
 30
0.0
 10
190.1366865129615
 20
-31.2373878794687
 30
0.0
 10
190.2192001564181
 20
-31.82447981181957
 30
0.0
 10
190.3882525994203
 20
-32.34032524801275
 30
0.0
 10
190.6039173444157
 20
-32.76000962074841
 30
0.0
 10
190.83458859507
 20
-33.09389737573494
 30
0.0
 10
191.0641832719172
 20
-33.36002562208781
 30
0.0
 10
191.286295299601
 20
-33.57559422541109
 30
0.0
 10
191.4999013864276
 20
-33.75427715777388
 30
0.0
 10
191.7063273635307
 20
-33.9061028952935
 30
0.0
 10
191.9076436901431
 20
-34.03821510459213
 30
0.0
 10
192.4688057879034
 20
-34.36994263075163
 30
0.0
 10
193.1983198219832
 20
-34.66484343804888
 30
0.0
 10
194.0356419986549
 20
-35.06627767359549
 30
0.0
 10
194.6335232430654
 20
-35.3570973483158
 30
0.0
 10
195.2532618958795
 20
-35.66954207597435
 30
0.0
 10
195.8952140758462
 20
-36.00282072277496
 30
0.0
 10
196.5587245509402
 20
-36.35792327868511
 30
0.0
 10
197.2434121099113
 20
-36.73532189234751
 30
0.0
 10
197.9488031721398
 20
-37.1356262160864
 30
0.0
 10
198.674436169378
 20
-37.55939674620788
 30
0.0
 10
199.4198320833789
 20
-38.00719756106308
 30
0.0
 10
200.184502955719
 20
-38.47958114937514
 30
0.0
 10
200.9679496513814
 20
-38.97709246861017
 30
0.0
 10
201.7696626644407
 20
-39.50026755966834
 30
0.0
 10
202.5891220604638
 20
-40.04963375068139
 30
0.0
 10
203.4257977003667
 20
-40.62570921610648
 30
0.0
 10
204.4635650698446
 20
-41.35938002255857
 30
0.0
 10
205.2159576039707
 20
-41.90998546719452
 30
0.0
 10
205.683790238045
 20
-42.25944658346255
 30
0.0
  0
SPLINE
  5
92
330
1F
100
AcDbEntity
  8
0
  6
Continuous
 62
     7
370
    25
100
AcDbSpline
210
0.0
220
0.0
230
1.0
 70
     8
 71
     3
 72
    65
 73
    61
 74
     0
 42
0.000000001
 43
0.00000001
 40
0.0094716307191541
 40
0.0094716307191541
 40
0.0094716307191541
 40
0.0094716307191541
 40
0.048419668697029
 40
0.0716540199566521
 40
0.0942380491570338
 40
0.1161717562981901
 40
0.1374551413801415
 40
0.1580882044029067
 40
0.1780709453665061
 40
0.1974033642709654
 40
0.2160854611163109
 40
0.2341172359025704
 40
0.2514986886297796
 40
0.268229819297972
 40
0.2843106279071896
 40
0.2997411144574795
 40
0.3145212789488909
 40
0.328651121381486
 40
0.3616959171496819
 40
0.3667921535946941
 40
0.3721063472831696
 40
0.3777510250171395
 40
0.3838738905804148
 40
0.3906671241098182
 40
0.3983737145639812
 40
0.4072803532253546
 40
0.4176743974130075
 40
0.4297326826127864
 40
0.4433372861934083
 40
0.4568916686723009
 40
0.4999999999999999
 40
0.5431083313276988
 40
0.5566627138065914
 40
0.5702673173872134
 40
0.5823256025869922
 40
0.5927196467746452
 40
0.6016262854360186
 40
0.6093328758901816
 40
0.616126109419585
 40
0.6222489749828604
 40
0.6278936527168302
 40
0.6332078464053057
 40
0.6383040828503179
 40
0.6713488786185138
 40
0.6854787210511089
 40
0.7002588855425202
 40
0.7156893720928101
 40
0.7317701807020278
 40
0.7485013113702201
 40
0.7658827640974294
 40
0.7839145388836889
 40
0.8025966357290344
 40
0.8219290546334937
 40
0.8419117955970933
 40
0.8625448586198585
 40
0.8838282437018099
 40
0.9057619508429663
 40
0.9283459800433479
 40
0.951580331302971
 40
0.9905283692808461
 40
0.9905283692808461
 40
0.9905283692808461
 40
0.9905283692808461
 10
203.6503783333215
 20
-51.16840623786945
 30
0.0
 10
203.0772501988292
 20
-51.28027485161603
 30
0.0
 10
202.1604692000422
 20
-51.4499023297398
 30
0.0
 10
200.9071452752328
 20
-51.66064649903873
 30
0.0
 10
199.9033767941955
 20
-51.81665260387948
 30
0.0
 10
198.926708332767
 20
-51.95606433225887
 30
0.0
 10
197.9773927022868
 20
-52.0795785619589
 30
0.0
 10
197.055669548391
 20
-52.18789599030544
 30
0.0
 10
196.1617653406261
 20
-52.28172063979741
 30
0.0
 10
195.2958933359205
 20
-52.36176006671364
 30
0.0
 10
194.4582534537491
 20
-52.42872376341879
 30
0.0
 10
193.6490325302159
 20
-52.48332778517447
 30
0.0
 10
192.8684032337092
 20
-52.52627738866017
 30
0.0
 10
192.1165277273939
 20
-52.55832733057035
 30
0.0
 10
191.3935446131199
 20
-52.58006840349572
 30
0.0
 10
190.6996146939945
 20
-52.59267685209765
 30
0.0
 10
190.0347603782014
 20
-52.59528537532108
 30
0.0
 10
189.1061833774871
 20
-52.59366464719842
 30
0.0
 10
188.3209612791442
 20
-52.54283681684721
 30
0.0
 10
187.6714405197973
 20
-52.598233881316
 30
0.0
 10
187.4327394375654
 20
-52.62991498842783
 30
0.0
 10
187.1808813399799
 20
-52.67714037648282
 30
0.0
 10
186.9109012869446
 20
-52.74544792811663
 30
0.0
 10
186.6172535531686
 20
-52.84329773153368
 30
0.0
 10
186.2949271784807
 20
-52.98345359949516
 30
0.0
 10
185.942231095342
 20
-53.18419156737102
 30
0.0
 10
185.5658296493053
 20
-53.46874069559658
 30
0.0
 10
185.1897017144553
 20
-53.86015226817939
 30
0.0
 10
184.8606298477094
 20
-54.35330249367306
 30
0.0
 10
184.4802592640524
 20
-55.34000223766271
 30
0.0
 10
184.1174873120347
 20
-56.79272343891069
 30
0.0
 10
183.5988765735887
 20
-58.19737474072717
 30
0.0
 10
183.3573257413398
 20
-59.22689470709049
 30
0.0
 10
183.3514162635225
 20
-59.81972732803833
 30
0.0
 10
183.4416977576049
 20
-60.35500715612138
 30
0.0
 10
183.5924029955951
 20
-60.80214716349575
 30
0.0
 10
183.7707344513143
 20
-61.16668543406477
 30
0.0
 10
183.958100388388
 20
-61.464060558727
 30
0.0
 10
184.1456027750814
 20
-61.71032551881034
 30
0.0
 10
184.3301917492385
 20
-61.91884904570063
 30
0.0
 10
184.511683666748
 20
-62.09974521059948
 30
0.0
 10
184.6910611532613
 20
-62.26038647721124
 30
0.0
 10
185.196514111784
 20
-62.67204575172752
 30
0.0
 10
185.8739273922292
 20
-63.0723811855083
 30
0.0
 10
186.6420667038175
 20
-63.59412812704962
 30
0.0
 10
187.1899256853435
 20
-63.97080916185698
 30
0.0
 10
187.7561748991843
 20
-64.37213139330967
 30
0.0
 10
188.3412843989105
 20
-64.79736560066769
 30
0.0
 10
188.9444587205489
 20
-65.2473930592626
 30
0.0
 10
189.5652505405604
 20
-65.72262382763833
 30
0.0
 10
190.2031007038655
 20
-66.22359016527749
 30
0.0
 10
190.8574692599127
 20
-66.75077751502795
 30
0.0
 10
191.5277984691775
 20
-67.30467226098666
 30
0.0
 10
192.2135234791574
 20
-67.88574799460496
 30
0.0
 10
192.9140695080655
 20
-68.49446919441024
 30
0.0
 10
193.6288528479862
 20
-69.131289976251
 30
0.0
 10
194.3572807775444
 20
-69.79665428623322
 30
0.0
 10
195.0987518489767
 20
-70.49099549810306
 30
0.0
 10
196.0155802547461
 20
-71.371143008335
 30
0.0
 10
196.6775057026741
 20
-72.0277369334186
 30
0.0
 10
197.0880285560518
 20
-72.44302169372507
 30
0.0
  0
SPLINE
  5
94
330
1F
100
AcDbEntity
  8
0
  6
Continuous
 62
     7
370
    25
100
AcDbSpline
210
0.0
220
0.0
230
1.0
 70
     8
 71
     3
 72
    65
 73
    61
 74
     0
 42
0.000000001
 43
0.00000001
 40
0.0094716307191537
 40
0.0094716307191537
 40
0.0094716307191537
 40
0.0094716307191537
 40
0.048419668697029
 40
0.0716540199566521
 40
0.0942380491570338
 40
0.1161717562981901
 40
0.1374551413801415
 40
0.1580882044029067
 40
0.1780709453665061
 40
0.1974033642709654
 40
0.2160854611163109
 40
0.2341172359025704
 40
0.2514986886297796
 40
0.268229819297972
 40
0.2843106279071896
 40
0.2997411144574795
 40
0.3145212789488909
 40
0.328651121381486
 40
0.3616959171496819
 40
0.3667921535946941
 40
0.3721063472831696
 40
0.3777510250171395
 40
0.3838738905804148
 40
0.3906671241098182
 40
0.3983737145639812
 40
0.4072803532253546
 40
0.4176743974130075
 40
0.4297326826127864
 40
0.4433372861934083
 40
0.4568916686723009
 40
0.4999999999999999
 40
0.5431083313276988
 40
0.5566627138065914
 40
0.5702673173872134
 40
0.5823256025869922
 40
0.5927196467746452
 40
0.6016262854360186
 40
0.6093328758901816
 40
0.616126109419585
 40
0.6222489749828604
 40
0.6278936527168302
 40
0.6332078464053057
 40
0.6383040828503179
 40
0.6713488786185138
 40
0.6854787210511089
 40
0.7002588855425202
 40
0.7156893720928101
 40
0.7317701807020278
 40
0.7485013113702201
 40
0.7658827640974294
 40
0.7839145388836889
 40
0.8025966357290344
 40
0.8219290546334937
 40
0.8419117955970933
 40
0.8625448586198585
 40
0.8838282437018099
 40
0.9057619508429663
 40
0.9283459800433479
 40
0.951580331302971
 40
0.9905283692808471
 40
0.9905283692808471
 40
0.9905283692808471
 40
0.9905283692808471
 10
193.7495166460831
 20
-80.949411311249
 30
0.0
 10
193.1661167276135
 20
-80.97461012903462
 30
0.0
 10
192.2342937513701
 20
-81.00570389073175
 30
0.0
 10
190.9635586306974
 20
-81.02729598377533
 30
0.0
 10
189.9477499108517
 20
-81.03195570019118
 30
0.0
 10
188.9612117892602
 20
-81.02424543395595
 30
0.0
 10
188.0040903893245
 20
-81.00489195887755
 30
0.0
 10
187.0765182465198
 20
-80.97462386340035
 30
0.0
 10
186.178614371806
 20
-80.93417106020809
 30
0.0
 10
185.3104841844167
 20
-80.88426498705643
 30
0.0
 10
184.4722196265416
 20
-80.8256370083181
 30
0.0
 10
183.6638987249808
 20
-80.7590230279854
 30
0.0
 10
182.8855871065056
 20
-80.68514616049133
 30
0.0
 10
182.1373326324043
 20
-80.60477690168727
 30
0.0
 10
181.4191843033921
 20
-80.51852010303257
 30
0.0
 10
180.7311258163683
 20
-80.42756283796712
 30
0.0
 10
180.0733085937507
 20
-80.33105083223857
 30
0.0
 10
179.155344587913
 20
-80.19105098580442
 30
0.0
 10
178.3864682666588
 20
-80.02375957933438
 30
0.0
 10
177.7359456135155
 20
-79.98173185846197
 30
0.0
 10
177.4951888011523
 20
-79.97748256354853
 30
0.0
 10
177.2391051715686
 20
-79.98664298141878
 30
0.0
 10
176.9619598603689
 20
-80.0139491552115
 30
0.0
 10
176.6570081727139
 20
-80.06694013347088
 30
0.0
 10
176.3173927691383
 20
-80.15749032285568
 30
0.0
 10
175.938717568202
 20
-80.30341958998267
 30
0.0
 10
175.524110368416
 20
-80.52869081503833
 30
0.0
 10
175.0938466040465
 20
-80.85967168396724
 30
0.0
 10
174.694949970992
 20
-81.29826821214061
 30
0.0
 10
174.171767846603
 20
-82.21725604145102
 30
0.0
 10
173.5965308976018
 20
-83.59968319332195
 30
0.0
 10
172.874360199405
 20
-84.91135078093404
 30
0.0
 10
172.4820653015166
 20
-85.89337057645324
 30
0.0
 10
172.3878647103947
 20
-86.4787009848725
 30
0.0
 10
172.3973585161652
 20
-87.0214579380093
 30
0.0
 10
172.4797377411663
 20
-87.4860652111343
 30
0.0
 10
172.6017457719136
 20
-87.87311081470264
 30
0.0
 10
172.7426975237926
 20
-88.19508994878689
 30
0.0
 10
172.8914017760152
 20
-88.46655011336263
 30
0.0
 10
173.0428502248442
 20
-88.70025616376442
 30
0.0
 10
173.1953538532292
 20
-88.9061818346406
 30
0.0
 10
173.3487855030071
 20
-89.09176369812108
 30
0.0
 10
173.7872383384347
 20
-89.57415893304793
 30
0.0
 10
174.3974185719519
 20
-90.07098616125595
 30
0.0
 10
175.0792160555479
 20
-90.7013908442788
 30
0.0
 10
175.5648145098518
 20
-91.15551880730233
 30
0.0
 10
176.0649252129808
 20
-91.63675366706353
 30
0.0
 10
176.580121653107
 20
-92.14444440546494
 30
0.0
 10
177.10948590366
 20
-92.67934389696761
 30
0.0
 10
177.6525145212804
 20
-93.2417909499863
 30
0.0
 10
178.2085752670294
 20
-93.83222854136486
 30
0.0
 10
178.7770618696552
 20
-94.45105621650174
 30
0.0
 10
179.3573503273345
 20
-95.09867180022275
 30
0.0
 10
179.9488115113577
 20
-95.77545940745699
 30
0.0
 10
180.5508078328432
 20
-96.48179266211041
 30
0.0
 10
181.1626944209553
 20
-97.21803361078207
 30
0.0
 10
181.7838190077934
 20
-97.98453290052989
 30
0.0
 10
182.4135222722631
 20
-98.78162942353563
 30
0.0
 10
183.1889312827524
 20
-99.78859259656886
 30
0.0
 10
183.7456033237746
 20
-100.5365077788025
 30
0.0
 10
184.0896459942799
 20
-101.0083394078397
 30
0.0
  0
SPLINE
  5
96
330
1F
100
AcDbEntity
  8
0
  6
Continuous
 62
     7
370
    25
100
AcDbSpline
210
0.0
220
0.0
230
1.0
 70
     8
 71
     3
 72
    24
 73
    20
 74
     0
 42
0.000000001
 43
0.00000001
 40
0.0094716307191544
 40
0.0094716307191544
 40
0.0094716307191544
 40
0.0094716307191544
 40
0.048419668697029
 40
0.0716540199566521
 40
0.0942380491570338
 40
0.1161717562981901
 40
0.1374551413801415
 40
0.1580882044029067
 40
0.1780709453665061
 40
0.1974033642709654
 40
0.2160854611163109
 40
0.2341172359025704
 40
0.2514986886297796
 40
0.268229819297972
 40
0.2843106279071896
 40
0.2997411144574795
 40
0.3145212789488909
 40
0.328651121381486
 40
0.3482464723835181
 40
0.3482464723835181
 40
0.3482464723835181
 40
0.3482464723835181
 10
179.5206109184098
 20
-108.9221403008108
 30
0.0
 10
178.9399714061021
 20
-108.8601064226859
 30
0.0
 10
178.0139218379006
 20
-108.751971884701
 30
0.0
 10
176.7541616441338
 20
-108.5839295698105
 30
0.0
 10
175.7490041737077
 20
-108.4371388074366
 30
0.0
 10
174.7746340233843
 20
-108.2824787811936
 30
0.0
 10
173.8310873644722
 20
-108.1206899259894
 30
0.0
 10
172.9183866616619
 20
-107.9525124459249
 30
0.0
 10
172.036540808819
 20
-107.7786858388255
 30
0.0
 10
171.1855450325903
 20
-107.5999490848128
 30
0.0
 10
170.3653812440439
 20
-107.4170390827963
 30
0.0
 10
169.5760169176863
 20
-107.2306951466195
 30
0.0
 10
168.8174091726782
 20
-107.0416420952877
 30
0.0
 10
168.089490499289
 20
-106.8506489522048
 30
0.0
 10
167.3922192025042
 20
-106.6583211163169
 30
0.0
 10
166.7254022371999
 20
-106.4658299725833
 30
0.0
 10
166.0893166575008
 20
-106.2723533566295
 30
0.0
 10
165.3949920440426
 20
-106.0568546902756
 30
0.0
 10
164.9181730781797
 20
-105.8849777322882
 30
0.0
 10
164.6384177869076
 20
-105.7950351262215
 30
0.0
  0
SPLINE
  5
9A
330
1F
100
AcDbEntity
  8
0
  6
Continuous
 62
     7
370
    25
100
AcDbSpline
210
0.0
220
0.0
230
1.0
 70
     8
 71
     3
 72
    24
 73
    20
 74
     0
 42
0.000000001
 43
0.00000001
 40
0.6517535276164846
 40
0.6517535276164846
 40
0.6517535276164846
 40
0.6517535276164846
 40
0.6713488786185138
 40
0.6854787210511089
 40
0.7002588855425202
 40
0.7156893720928101
 40
0.7317701807020278
 40
0.7485013113702201
 40
0.7658827640974294
 40
0.7839145388836889
 40
0.8025966357290344
 40
0.8219290546334937
 40
0.8419117955970933
 40
0.8625448586198585
 40
0.8838282437018099
 40
0.9057619508429663
 40
0.9283459800433479
 40
0.951580331302971
 40
0.9905283692808459
 40
0.9905283692808459
 40
0.9905283692808459
 40
0.9905283692808459
 10
-9.301979120120887
 20
195.4785698054487
 30
0.0
 10
-9.23999405622128
 20
195.7658162975668
 30
0.0
 10
-9.150434385232067
 20
196.2646921140039
 30
0.0
 10
-8.989899398047118
 20
196.9737442009083
 30
0.0
 10
-8.839412272651836
 20
197.6213487798857
 30
0.0
 10
-8.672706010476483
 20
198.2950747833805
 30
0.0
 10
-8.490631153817887
 20
198.9950933576698
 30
0.0
 10
-8.292076730981673
 20
199.7209859922553
 30
0.0
 10
-8.076497603593996
 20
200.4724860966059
 30
0.0
 10
-7.843194022985403
 20
201.2492676241611
 30
0.0
 10
-7.591516837064841
 20
202.0510053013146
 30
0.0
 10
-7.320809518515451
 20
202.8773576390483
 30
0.0
 10
-7.030424849695724
 20
203.727971853382
 30
0.0
 10
-6.719720468370882
 20
204.6024825880999
 30
0.0
 10
-6.388060397570894
 20
205.5005123919757
 30
0.0
 10
-6.034814834085578
 20
206.4216717079665
 30
0.0
 10
-5.659360628129217
 20
207.3655589933462
 30
0.0
 10
-5.175009444851747
 20
208.5405644812699
 30
0.0
 10
-4.805631917672401
 20
209.3966142014885
 30
0.0
 10
-4.569035075869906
 20
209.9304797086504
 30
0.0
  0
LINE
  5
AB
330
1F
100
AcDbEntity
  8
0
  6
Continuous
 62
     7
370
    25
100
AcDbLine
 10
9.7692557779
 20
-43.9267759066
 30
0.0
 11
164.6384177869
 21
-105.7950351262
 31
0.0
  0
LINE
  5
AC
330
1F
100
AcDbEntity
  8
0
  6
Continuous
 62
     7
370
    25
100
AcDbLine
 10
-9.3019791201
 20
195.4785698054
 30
0.0
 11
-31.4327188352
 21
32.2022388449
 31
0.0
  0
LINE
  5
AD
330
1F
100
AcDbEntity
  8
0
  6
Continuous
 62
     7
370
    25
100
AcDbLine
 10
57.4480875993
 20
-31.6553361723
 30
0.0
 11
137.9849987483
 21
-67.86256212
 31
0.0
  0
LINE
  5
AE
330
1F
100
AcDbEntity
  8
0
  6
Continuous
 62
     7
370
    25
100
AcDbLine
 10
139.7353052145
 20
60.593935648
 30
0.0
 11
60.2624353648
 21
14.9390530003
 31
0.0
  0
LINE
  5
AF
330
1F
100
AcDbEntity
  8
0
  6
Continuous
 62
     7
370
    25
100
AcDbLine
 10
10.2217966123
 20
153.4297953171
 30
0.0
 11
1.3097185091
 21
65.579171346
 31
0.0
  0
LINE
  5
B0
330
1F
100
AcDbEntity
  8
0
  6
Continuous
 62
     7
370
    25
100
AcDbLine
 10
43.0688170892
 20
44.7192734197
 30
0.0
 11
122.3435401937
 21
90.7173562973
 31
0.0
  0
ARC
  5
B1
330
1F
100
AcDbEntity
  8
0
  6
Continuous
 62
     7
370
    25
100
AcDbCircle
 10
0.0
 20
-0.0000000003
 30
0.0
 40
209.9801952383826
100
AcDbArc
 50
88.7531819923
 51
91.2468180077
  0
ARC
  5
B2
330
1F
100
AcDbEntity
  8
0
  6
Continuous
 62
     7
370
    25
100
AcDbCircle
 10
-0.0000000001
 20
-0.0000000003
 30
0.0
 40
209.9801952384378
100
AcDbArc
 50
80.1817534208
 51
82.6753894363
  0
ARC
  5
B3
330
1F
100
AcDbEntity
  8
0
  6
Continuous
 62
     7
370
    25
100
AcDbCircle
 10
-0.0000000001
 20
-0.0000000002
 30
0.0
 40
209.9801952383289
100
AcDbArc
 50
71.6103248494
 51
74.1039608649
  0
ARC
  5
B4
330
1F
100
AcDbEntity
  8
0
  6
Continuous
 62
     7
370
    25
100
AcDbCircle
 10
-0.0000000001
 20
-0.0000000002
 30
0.0
 40
209.9801952382842
100
AcDbArc
 50
63.038896278
 51
65.5325322935
  0
ARC
  5
B5
330
1F
100
AcDbEntity
  8
0
  6
Continuous
 62
     7
370
    25
100
AcDbCircle
 10
-0.0000000001
 20
-0.0000000002
 30
0.0
 40
209.980195238292
100
AcDbArc
 50
54.4674677065
 51
56.961103722
  0
ARC
  5
B6
330
1F
100
AcDbEntity
  8
0
  6
Continuous
 62
     7
370
    25
100
AcDbCircle
 10
-0.0000000001
 20
-0.0000000001
 30
0.0
 40
209.9801952382812
100
AcDbArc
 50
45.8960391351
 51
48.3896751506
  0
ARC
  5
B7
330
1F
100
AcDbEntity
  8
0
  6
Continuous
 62
     7
370
    25
100
AcDbCircle
 10
-0.0000000001
 20
-0.0000000001
 30
0.0
 40
209.9801952382128
100
AcDbArc
 50
37.3246105637
 51
39.8182465792
  0
ARC
  5
B8
330
1F
100
AcDbEntity
  8
0
  6
Continuous
 62
     7
370
    25
100
AcDbCircle
 10
-0.0000000001
 20
-0.0000000001
 30
0.0
 40
209.9801952382457
100
AcDbArc
 50
28.7531819923
 51
31.2468180077
  0
ARC
  5
B9
330
1F
100
AcDbEntity
  8
0
  6
Continuous
 62
     7
370
    25
100
AcDbCircle
 10
-0.0000000002
 20
-0.0000000001
 30
0.0
 40
209.9801952382946
100
AcDbArc
 50
20.1817534208
 51
22.6753894363
  0
ARC
  5
BA
330
1F
100
AcDbEntity
  8
0
  6
Continuous
 62
     7
370
    25
100
AcDbCircle
 10
-0.0000000002
 20
0.0
 30
0.0
 40
209.9801952382654
100
AcDbArc
 50
11.6103248494
 51
14.1039608649
  0
ARC
  5
BB
330
1F
100
AcDbEntity
  8
0
  6
Continuous
 62
     7
370
    25
100
AcDbCircle
 10
-0.0000000004
 20
0.0
 30
0.0
 40
209.9801952384678
100
AcDbArc
 50
3.038896278
 51
5.5325322935
  0
ARC
  5
BC
330
1F
100
AcDbEntity
  8
0
  6
Continuous
 62
     7
370
    25
100
AcDbCircle
 10
-0.0000000002
 20
0.0
 30
0.0
 40
209.9801952382664
100
AcDbArc
 50
354.4674677065
 51
356.961103722
  0
ARC
  5
BD
330
1F
100
AcDbEntity
  8
0
  6
Continuous
 62
     7
370
    25
100
AcDbCircle
 10
-0.0000000002
 20
0.0000000001
 30
0.0
 40
209.9801952383183
100
AcDbArc
 50
345.8960391351
 51
348.3896751506
  0
ARC
  5
BE
330
1F
100
AcDbEntity
  8
0
  6
Continuous
 62
     7
370
    25
100
AcDbCircle
 10
-0.0000000004
 20
0.0000000002
 30
0.0
 40
209.9801952385095
100
AcDbArc
 50
337.3246105637
 51
339.8182465792
  0
ARC
  5
BF
330
1F
100
AcDbEntity
  8
0
  6
Continuous
 62
     7
370
    25
100
AcDbCircle
 10
-0.0000000002
 20
0.0000000001
 30
0.0
 40
209.9801952383132
100
AcDbArc
 50
328.7531819923
 51
331.2468180077
  0
ARC
  5
C0
330
1F
100
AcDbEntity
  8
0
  6
Continuous
 62
     7
370
    25
100
AcDbCircle
 10
0.0
 20
0.0
 30
0.0
 40
45.00000000000001
100
AcDbArc
 50
134.3071716956
 51
282.5384403648
  0
ARC
  5
C1
330
1F
100
AcDbEntity
  8
0
  6
Continuous
 62
     7
370
    25
100
AcDbCircle
 10
65.2437009129
 20
6.2680096063
 30
0.0
 40
9.999999999999991
100
AcDbArc
 50
119.8761310726
 51
185.4876056204
  0
ARC
  5
C2
330
1F
100
AcDbEntity
  8
0
  6
Continuous
 62
     7
370
    25
100
AcDbCircle
 10
0.0
 20
0.0
 30
0.0
 40
55.54409548717258
100
AcDbArc
 50
339.8908767795
 51
5.4876056204
  0
ARC
  5
C3
330
1F
100
AcDbEntity
  8
0
  6
Continuous
 62
     7
370
    25
100
AcDbCircle
 10
61.5484959111
 20
-22.5346645042
 30
0.0
 40
9.999999999999948
100
AcDbArc
 50
159.8908767795
 51
245.7926002223
  0
ARC
  5
C4
330
1F
100
AcDbEntity
  8
0
  6
Continuous
 62
     7
370
    25
100
AcDbCircle
 10
142.08540706
 20
-58.7418904519
 30
0.0
 40
10.00000000000002
100
AcDbArc
 50
245.7926002223
 51
337.5384958309
  0
ARC
  5
C5
330
1F
100
AcDbEntity
  8
0
  6
Continuous
 62
     7
370
    25
100
AcDbCircle
 10
0.0
 20
0.0
 30
0.0
 40
163.7493824159315
100
AcDbArc
 50
337.5384958309
 51
19.737490725
  0
ARC
  5
C6
330
1F
100
AcDbEntity
  8
0
  6
Continuous
 62
     7
370
    25
100
AcDbCircle
 10
144.7165707625
 20
51.922892254
 30
0.0
 40
10.00000000000003
100
AcDbArc
 50
19.737490725
 51
119.8761310726
  0
ARC
  5
C7
330
1F
100
AcDbEntity
  8
0
  6
Continuous
 62
     7
370
    25
100
AcDbCircle
 10
117.3248291112
 20
99.3667805019
 30
0.0
 40
10.00000000000002
100
AcDbArc
 50
300.1238689274
 51
40.262509275
  0
ARC
  5
C8
330
1F
100
AcDbEntity
  8
0
  6
Continuous
 62
     7
370
    25
100
AcDbCircle
 10
0.0
 20
0.0
 30
0.0
 40
163.7493824159312
100
AcDbArc
 50
40.262509275
 51
82.4615041691
  0
ARC
  5
C9
330
1F
100
AcDbEntity
  8
0
  6
Continuous
 62
     7
370
    25
100
AcDbCircle
 10
20.1707341324
 20
152.420517247
 30
0.0
 40
10.00000000000001
100
AcDbArc
 50
82.4615041691
 51
174.2073997777
  0
ARC
  5
CA
330
1F
100
AcDbEntity
  8
0
  6
Continuous
 62
     7
370
    25
100
AcDbCircle
 10
11.2586560291
 20
64.5698932758
 30
0.0
 40
9.999999999999986
100
AcDbArc
 50
174.2073997777
 51
260.1091232205
  0
ARC
  5
CB
330
1F
100
AcDbEntity
  8
0
  6
Continuous
 62
     7
370
    25
100
AcDbCircle
 10
0.0
 20
0.0
 30
0.0
 40
55.54409548717265
100
AcDbArc
 50
54.5123943796
 51
80.1091232205
  0
ARC
  5
CC
330
1F
100
AcDbEntity
  8
0
  6
Continuous
 62
     7
370
    25
100
AcDbCircle
 10
38.0501060067
 20
53.3686976243
 30
0.0
 40
10.0
100
AcDbArc
 50
234.5123943796
 51
300.1238689274
  0
ENDSEC
  0
SECTION
  2
OBJECTS
  0
DICTIONARY
  5
C
330
0
100
AcDbDictionary
281
     1
  3
ACAD_DETAILVIEWSTYLE
350
D4
  3
ACAD_GROUP
350
D
  3
ACAD_LAYOUT
350
1A
  3
ACAD_MATERIAL
350
43
  3
ACAD_MLEADERSTYLE
350
6B
  3
ACAD_MLINESTYLE
350
17
  3
ACAD_PLOTSETTINGS
350
19
  3
ACAD_PLOTSTYLENAME
350
E
  3
ACAD_SCALELIST
350
47
  3
ACAD_SECTIONVIEWSTYLE
350
D5
  3
ACAD_TABLESTYLE
350
69
  3
ACAD_VISUALSTYLE
350
2A
  3
ACDB_RECOMPOSE_DATA
350
D1
  3
AcDbVariableDictionary
350
CD
  0
SUN
  5
6D
330
29
100
AcDbSun
 90
        1
290
     0
 63
     7
421
 16777215
 40
1.0
291
     1
 91
  2455826
 92
 54000000
292
     0
 70
     2
 71
   256
280
     1
  0
DICTIONARY
  5
D4
102
{ACAD_REACTORS
330
C
102
}
330
C
100
AcDbDictionary
281
     1
  0
DICTIONARY
  5
D
102
{ACAD_REACTORS
330
C
102
}
330
C
100
AcDbDictionary
281
     1
  0
DICTIONARY
  5
1A
102
{ACAD_REACTORS
330
C
102
}
330
C
100
AcDbDictionary
281
     1
  3
Layout1
350
1E
  3
Layout2
350
26
  3
Model
350
22
  0
DICTIONARY
  5
43
102
{ACAD_REACTORS
330
C
102
}
330
C
100
AcDbDictionary
281
     1
  3
ByBlock
350
45
  3
ByLayer
350
44
  3
Global
350
46
  0
DICTIONARY
  5
6B
102
{ACAD_REACTORS
330
C
102
}
330
C
100
AcDbDictionary
281
     1
  3
Standard
350
6C
  0
DICTIONARY
  5
17
102
{ACAD_REACTORS
330
C
102
}
330
C
100
AcDbDictionary
281
     1
  3
Standard
350
18
  0
DICTIONARY
  5
19
102
{ACAD_REACTORS
330
C
102
}
330
C
100
AcDbDictionary
281
     1
  0
ACDBDICTIONARYWDFLT
  5
E
102
{ACAD_REACTORS
330
C
102
}
330
C
100
AcDbDictionary
281
     1
  3
Normal
350
F
100
AcDbDictionaryWithDefault
340
F
  0
DICTIONARY
  5
47
102
{ACAD_REACTORS
330
C
102
}
330
C
100
AcDbDictionary
281
     1
  3
A0
350
48
  3
A1
350
49
  3
A2
350
4A
  3
A3
350
4B
  3
A4
350
4C
  3
A5
350
4D
  3
A6
350
4E
  3
A7
350
4F
  3
A8
350
50
  3
A9
350
51
  3
B0
350
52
  3
B1
350
53
  3
B2
350
54
  3
B3
350
55
  3
B4
350
56
  3
B5
350
57
  3
B6
350
58
  3
B7
350
59
  3
B8
350
5A
  3
B9
350
5B
  3
C0
350
5C
  3
C1
350
5D
  3
C2
350
5E
  3
C3
350
5F
  3
C4
350
60
  3
C5
350
61
  3
C6
350
62
  3
C7
350
63
  3
C8
350
64
  3
C9
350
65
  3
D0
350
66
  3
D1
350
67
  3
D2
350
68
  0
DICTIONARY
  5
D5
102
{ACAD_REACTORS
330
C
102
}
330
C
100
AcDbDictionary
281
     1
  0
DICTIONARY
  5
69
102
{ACAD_REACTORS
330
C
102
}
330
C
100
AcDbDictionary
281
     1
  3
Standard
350
6A
  0
DICTIONARY
  5
2A
102
{ACAD_REACTORS
330
C
102
}
330
C
100
AcDbDictionary
281
     1
  3
2dWireframe
350
2F
  3
Basic
350
32
  3
Brighten
350
36
  3
ColorChange
350
3A
  3
Conceptual
350
34
  3
Dim
350
35
  3
EdgeColorOff
350
3D
  3
Facepattern
350
39
  3
Flat
350
2B
  3
FlatWithEdges
350
2C
  3
Gouraud
350
2D
  3
GouraudWithEdges
350
2E
  3
Hidden
350
31
  3
JitterOff
350
3B
  3
Linepattern
350
38
  3
OverhangOff
350
3C
  3
Realistic
350
33
  3
Shaded
350
42
  3
Shaded with edges
350
41
  3
Shades of Gray
350
3E
  3
Sketchy
350
3F
  3
Thicken
350
37
  3
Wireframe
350
30
  3
X-Ray
350
40
  0
XRECORD
  5
D1
102
{ACAD_REACTORS
330
C
102
}
330
C
100
AcDbXrecord
280
     1
 90
        1
330
6A
  0
DICTIONARY
  5
CD
102
{ACAD_REACTORS
330
C
102
}
330
C
100
AcDbDictionary
281
     1
  3
CANNOSCALE
350
CE
  3
CMLEADERSTYLE
350
D3
  3
CTABLESTYLE
350
D2
  0
LAYOUT
  5
1E
102
{ACAD_REACTORS
330
1A
102
}
330
1A
100
AcDbPlotSettings
  1

  2
none_device
  4

  6

 40
0.0
 41
0.0
 42
0.0
 43
0.0
 44
0.0
 45
0.0
 46
0.0
 47
0.0
 48
0.0
 49
0.0
140
0.0
141
0.0
142
1.0
143
1.0
 70
   688
 72
     1
 73
     0
 74
     5
  7

 75
    16
 76
     0
 77
     2
 78
   300
147
1.0
148
0.0
149
0.0
100
AcDbLayout
  1
Layout1
 70
     1
 71
     1
 10
0.0
 20
0.0
 11
420.0
 21
297.0
 12
0.0
 22
0.0
 32
0.0
 14
1.0000000000E+20
 24
1.0000000000E+20
 34
1.0000000000E+20
 15
-1.0000000000E+20
 25
-1.0000000000E+20
 35
-1.0000000000E+20
146
0.0
 13
0.0
 23
0.0
 33
0.0
 16
1.0
 26
0.0
 36
0.0
 17
0.0
 27
1.0
 37
0.0
 76
     0
330
1B
  0
LAYOUT
  5
26
102
{ACAD_REACTORS
330
1A
102
}
330
1A
100
AcDbPlotSettings
  1

  2
none_device
  4

  6

 40
0.0
 41
0.0
 42
0.0
 43
0.0
 44
0.0
 45
0.0
 46
0.0
 47
0.0
 48
0.0
 49
0.0
140
0.0
141
0.0
142
1.0
143
1.0
 70
   688
 72
     1
 73
     0
 74
     5
  7

 75
    16
 76
     0
 77
     2
 78
   300
147
1.0
148
0.0
149
0.0
100
AcDbLayout
  1
Layout2
 70
     1
 71
     2
 10
0.0
 20
0.0
 11
0.0
 21
0.0
 12
0.0
 22
0.0
 32
0.0
 14
0.0
 24
0.0
 34
0.0
 15
0.0
 25
0.0
 35
0.0
146
0.0
 13
0.0
 23
0.0
 33
0.0
 16
1.0
 26
0.0
 36
0.0
 17
0.0
 27
1.0
 37
0.0
 76
     0
330
23
  0
LAYOUT
  5
22
102
{ACAD_REACTORS
330
1A
102
}
330
1A
100
AcDbPlotSettings
  1

  2
none_device
  4
ANSI_A_(11.00_x_8.50_Inches)
  6

 40
6.35
 41
19.05
 42
6.35000508
 43
19.05000254
 44
279.4
 45
215.9
 46
133.34999746
 47
88.89999873
 48
0.0
 49
0.0
140
0.0
141
0.0
142
0.020037604
143
1.0
 70
  1696
 72
     0
 73
     0
 74
     0
  7

 75
     0
 76
     0
 77
     2
 78
   300
147
0.0179189148
148
-1300.4909072572
149
0.0
100
AcDbLayout
  1
Model
 70
     1
 71
     0
 10
0.0
 20
0.0
 11
420.0
 21
297.0
 12
0.0
 22
0.0
 32
0.0
 14
-209.9801952381
 24
-209.9801952381
 34
0.0
 15
209.9801952381
 25
209.9801952381
 35
0.0
146
0.0
 13
0.0
 23
0.0
 33
0.0
 16
1.0
 26
0.0
 36
0.0
 17
0.0
 27
1.0
 37
0.0
 76
     0
330
1F
331
29
  0
MATERIAL
  5
45
102
{ACAD_REACTORS
330
43
102
}
330
43
100
AcDbMaterial
  1
ByBlock
 72
     1
 94
      127
  0
MATERIAL
  5
44
102
{ACAD_REACTORS
330
43
102
}
330
43
100
AcDbMaterial
  1
ByLayer
 72
     1
 94
      127
  0
MATERIAL
  5
46
102
{ACAD_REACTORS
330
43
102
}
330
43
100
AcDbMaterial
  1
Global
 72
     1
 94
      127
  0
MLEADERSTYLE
  5
6C
102
{ACAD_REACTORS
330
6B
102
}
330
6B
100
AcDbMLeaderStyle
179
     2
170
     2
171
     1
172
     0
 90
        2
 40
0.0
 41
0.0
173
     1
 91
-1056964608
340
14
 92
       -2
290
     1
 42
2.0
291
     1
 43
8.0
  3
Standard
341
0
 44
4.0
300

342
11
174
     1
178
     6
175
     1
176
     0
 93
-1056964608
 45
4.0
292
     0
297
     0
 46
4.0
343
0
 94
-1056964608
 47
1.0
 49
1.0
140
1.0
293
     1
141
0.0
294
     1
177
     0
142
1.0
295
     0
296
     0
143
3.75
271
     0
272
     9
273
     9
298
     0
  0
MLINESTYLE
  5
18
102
{ACAD_REACTORS
330
17
102
}
330
17
100
AcDbMlineStyle
  2
Standard
 70
     0
  3

 62
   256
 51
90.0
 52
90.0
 71
     2
 49
0.5
 62
   256
  6
BYLAYER
 49
-0.5
 62
   256
  6
BYLAYER
  0
ACDBPLACEHOLDER
  5
F
102
{ACAD_REACTORS
330
E
102
}
330
E
  0
SCALE
  5
48
102
{ACAD_REACTORS
330
47
102
}
330
47
100
AcDbScale
 70
     0
300
1:1
140
1.0
141
1.0
290
     1
  0
SCALE
  5
49
102
{ACAD_REACTORS
330
47
102
}
330
47
100
AcDbScale
 70
     0
300
1:2
140
1.0
141
2.0
290
     0
  0
SCALE
  5
4A
102
{ACAD_REACTORS
330
47
102
}
330
47
100
AcDbScale
 70
     0
300
1:4
140
1.0
141
4.0
290
     0
  0
SCALE
  5
4B
102
{ACAD_REACTORS
330
47
102
}
330
47
100
AcDbScale
 70
     0
300
1:5
140
1.0
141
5.0
290
     0
  0
SCALE
  5
4C
102
{ACAD_REACTORS
330
47
102
}
330
47
100
AcDbScale
 70
     0
300
1:8
140
1.0
141
8.0
290
     0
  0
SCALE
  5
4D
102
{ACAD_REACTORS
330
47
102
}
330
47
100
AcDbScale
 70
     0
300
1:10
140
1.0
141
10.0
290
     0
  0
SCALE
  5
4E
102
{ACAD_REACTORS
330
47
102
}
330
47
100
AcDbScale
 70
     0
300
1:16
140
1.0
141
16.0
290
     0
  0
SCALE
  5
4F
102
{ACAD_REACTORS
330
47
102
}
330
47
100
AcDbScale
 70
     0
300
1:20
140
1.0
141
20.0
290
     0
  0
SCALE
  5
50
102
{ACAD_REACTORS
330
47
102
}
330
47
100
AcDbScale
 70
     0
300
1:30
140
1.0
141
30.0
290
     0
  0
SCALE
  5
51
102
{ACAD_REACTORS
330
47
102
}
330
47
100
AcDbScale
 70
     0
300
1:40
140
1.0
141
40.0
290
     0
  0
SCALE
  5
52
102
{ACAD_REACTORS
330
47
102
}
330
47
100
AcDbScale
 70
     0
300
1:50
140
1.0
141
50.0
290
     0
  0
SCALE
  5
53
102
{ACAD_REACTORS
330
47
102
}
330
47
100
AcDbScale
 70
     0
300
1:100
140
1.0
141
100.0
290
     0
  0
SCALE
  5
54
102
{ACAD_REACTORS
330
47
102
}
330
47
100
AcDbScale
 70
     0
300
2:1
140
2.0
141
1.0
290
     0
  0
SCALE
  5
55
102
{ACAD_REACTORS
330
47
102
}
330
47
100
AcDbScale
 70
     0
300
4:1
140
4.0
141
1.0
290
     0
  0
SCALE
  5
56
102
{ACAD_REACTORS
330
47
102
}
330
47
100
AcDbScale
 70
     0
300
8:1
140
8.0
141
1.0
290
     0
  0
SCALE
  5
57
102
{ACAD_REACTORS
330
47
102
}
330
47
100
AcDbScale
 70
     0
300
10:1
140
10.0
141
1.0
290
     0
  0
SCALE
  5
58
102
{ACAD_REACTORS
330
47
102
}
330
47
100
AcDbScale
 70
     0
300
100:1
140
100.0
141
1.0
290
     0
  0
SCALE
  5
59
102
{ACAD_REACTORS
330
47
102
}
330
47
100
AcDbScale
 70
     0
300
1/128" = 1'-0"
140
0.0078125
141
12.0
290
     0
  0
SCALE
  5
5A
102
{ACAD_REACTORS
330
47
102
}
330
47
100
AcDbScale
 70
     0
300
1/64" = 1'-0"
140
0.015625
141
12.0
290
     0
  0
SCALE
  5
5B
102
{ACAD_REACTORS
330
47
102
}
330
47
100
AcDbScale
 70
     0
300
1/32" = 1'-0"
140
0.03125
141
12.0
290
     0
  0
SCALE
  5
5C
102
{ACAD_REACTORS
330
47
102
}
330
47
100
AcDbScale
 70
     0
300
1/16" = 1'-0"
140
0.0625
141
12.0
290
     0
  0
SCALE
  5
5D
102
{ACAD_REACTORS
330
47
102
}
330
47
100
AcDbScale
 70
     0
300
3/32" = 1'-0"
140
0.09375
141
12.0
290
     0
  0
SCALE
  5
5E
102
{ACAD_REACTORS
330
47
102
}
330
47
100
AcDbScale
 70
     0
300
1/8" = 1'-0"
140
0.125
141
12.0
290
     0
  0
SCALE
  5
5F
102
{ACAD_REACTORS
330
47
102
}
330
47
100
AcDbScale
 70
     0
300
3/16" = 1'-0"
140
0.1875
141
12.0
290
     0
  0
SCALE
  5
60
102
{ACAD_REACTORS
330
47
102
}
330
47
100
AcDbScale
 70
     0
300
1/4" = 1'-0"
140
0.25
141
12.0
290
     0
  0
SCALE
  5
61
102
{ACAD_REACTORS
330
47
102
}
330
47
100
AcDbScale
 70
     0
300
3/8" = 1'-0"
140
0.375
141
12.0
290
     0
  0
SCALE
  5
62
102
{ACAD_REACTORS
330
47
102
}
330
47
100
AcDbScale
 70
     0
300
1/2" = 1'-0"
140
0.5
141
12.0
290
     0
  0
SCALE
  5
63
102
{ACAD_REACTORS
330
47
102
}
330
47
100
AcDbScale
 70
     0
300
3/4" = 1'-0"
140
0.75
141
12.0
290
     0
  0
SCALE
  5
64
102
{ACAD_REACTORS
330
47
102
}
330
47
100
AcDbScale
 70
     0
300
1" = 1'-0"
140
1.0
141
12.0
290
     0
  0
SCALE
  5
65
102
{ACAD_REACTORS
330
47
102
}
330
47
100
AcDbScale
 70
     0
300
1-1/2" = 1'-0"
140
1.5
141
12.0
290
     0
  0
SCALE
  5
66
102
{ACAD_REACTORS
330
47
102
}
330
47
100
AcDbScale
 70
     0
300
3" = 1'-0"
140
3.0
141
12.0
290
     0
  0
SCALE
  5
67
102
{ACAD_REACTORS
330
47
102
}
330
47
100
AcDbScale
 70
     0
300
6" = 1'-0"
140
6.0
141
12.0
290
     0
  0
SCALE
  5
68
102
{ACAD_REACTORS
330
47
102
}
330
47
100
AcDbScale
 70
     0
300
1'-0" = 1'-0"
140
12.0
141
12.0
290
     0
  0
TABLESTYLE
  5
6A
102
{ACAD_REACTORS
330
69
102
}
102
{ACAD_XDICTIONARY
360
CF
102
}
330
69
100
AcDbTableStyle
  3
Standard
 70
     0
 71
     0
 40
0.06
 41
0.06
280
     0
281
     0
  7
Standard
140
4.5
170
     2
 62
     0
 63
   257
283
     0
 90
        4
 91
        0
  1

274
    -2
284
     1
 64
     0
275
    -2
285
     1
 65
     0
276
    -2
286
     1
 66
     0
277
    -2
287
     1
 67
     0
278
    -2
288
     1
 68
     0
279
    -2
289
     1
 69
     0
  7
Standard
140
6.0
170
     5
 62
     0
 63
   257
283
     0
 90
        4
 91
        0
  1

274
    -2
284
     1
 64
     0
275
    -2
285
     1
 65
     0
276
    -2
286
     1
 66
     0
277
    -2
287
     1
 67
     0
278
    -2
288
     1
 68
     0
279
    -2
289
     1
 69
     0
  7
Standard
140
4.5
170
     5
 62
     0
 63
   257
283
     0
 90
        4
 91
        0
  1

274
    -2
284
     1
 64
     0
275
    -2
285
     1
 65
     0
276
    -2
286
     1
 66
     0
277
    -2
287
     1
 67
     0
278
    -2
288
     1
 68
     0
279
    -2
289
     1
 69
     0
  0
VISUALSTYLE
  5
2F
102
{ACAD_REACTORS
330
2A
102
}
330
2A
100
AcDbVisualStyle
  2
2dWireframe
 70
     4
177
     3
291
     0
 70
    58
 90
        0
176
     1
 90
        2
176
     1
 90
        0
176
     1
 90
        0
176
     1
 40
0.6
176
     1
 40
30.0
176
     1
 62
     7
420
 16777215
176
     1
 90
        1
176
     1
 90
        4
176
     1
 62
     7
176
     1
 62
   257
176
     1
 90
        1
176
     1
 90
        1
176
     1
 40
1.0
176
     1
 90
        0
176
     1
 62
   257
176
     1
 40
1.0
176
     1
 90
        1
176
     1
 90
        6
176
     1
 90
        2
176
     1
 62
     7
176
     1
 90
        5
176
     1
 90
        0
176
     1
 90
        0
176
     1
290
     0
176
     1
 90
        1
176
     1
 40
0.0
176
     1
 90
        0
176
     1
290
     1
176
     1
290
     1
176
     1
290
     0
176
     1
290
     0
176
     1
290
     0
176
     1
290
     0
176
     1
290
     0
176
     1
290
     0
176
     1
290
     0
176
     1
 90
       50
176
     1
 40
0.0
176
     1
 40
1.0
176
     1
 90
        0
176
     1
 62
    18
420
        0
176
     1
 90
       50
176
     1
 90
        3
176
     1
 62
     5
420
      255
176
     1
290
     0
176
     1
 90
       50
176
     1
 90
       50
176
     1
 90
       50
176
     1
290
     0
176
     1
 90
       50
176
     1
 62
   256
176
     0
 40
1.0
176
     0
 90
        2
176
     1
  1
strokes_ogs.tif
176
     1
290
     0
176
     1
 40
1.0
176
     1
 40
1.0
176
     1
  0
VISUALSTYLE
  5
32
102
{ACAD_REACTORS
330
2A
102
}
330
2A
100
AcDbVisualStyle
  2
Basic
 70
     7
177
     3
291
     1
 70
    58
 90
        1
176
     1
 90
        0
176
     1
 90
        1
176
     1
 90
        0
176
     1
 40
0.6
176
     1
 40
30.0
176
     1
 62
     7
420
 16777215
176
     1
 90
        0
176
     1
 90
        4
176
     1
 62
     7
176
     1
 62
   257
176
     1
 90
        1
176
     1
 90
        1
176
     1
 40
1.0
176
     1
 90
        8
176
     1
 62
     7
176
     1
 40
1.0
176
     1
 90
        1
176
     1
 90
        6
176
     1
 90
        2
176
     1
 62
     7
176
     1
 90
        5
176
     1
 90
        0
176
     1
 90
        0
176
     1
290
     0
176
     1
 90
        1
176
     1
 40
0.0
176
     1
 90
        0
176
     1
290
     0
176
     1
290
     1
176
     1
290
     1
176
     1
290
     0
176
     1
290
     0
176
     1
290
     0
176
     1
290
     0
176
     1
290
     0
176
     1
290
     0
176
     1
 90
       50
176
     1
 40
0.0
176
     1
 40
1.0
176
     1
 90
        0
176
     1
 62
    18
420
        0
176
     1
 90
       50
176
     1
 90
        3
176
     1
 62
     5
420
      255
176
     1
290
     0
176
     1
 90
       50
176
     1
 90
       50
176
     1
 90
       50
176
     1
290
     0
176
     1
 90
       50
176
     1
 62
   256
176
     0
 40
1.0
176
     0
 90
        2
176
     1
  1
strokes_ogs.tif
176
     1
290
     0
176
     1
 40
1.0
176
     1
 40
1.0
176
     1
  0
VISUALSTYLE
  5
36
102
{ACAD_REACTORS
330
2A
102
}
330
2A
100
AcDbVisualStyle
  2
Brighten
 70
    12
177
     3
291
     1
 70
    58
 90
        2
176
     1
 90
        2
176
     1
 90
        0
176
     1
 90
        0
176
     1
 40
0.6
176
     1
 40
30.0
176
     1
 62
     7
420
 16777215
176
     1
 90
        1
176
     1
 90
        4
176
     1
 62
     7
176
     1
 62
   257
176
     1
 90
        1
176
     1
 90
        1
176
     1
 40
1.0
176
     1
 90
        8
176
     1
 62
     7
176
     1
 40
1.0
176
     1
 90
        1
176
     1
 90
        6
176
     1
 90
        2
176
     1
 62
     7
176
     1
 90
        5
176
     1
 90
        0
176
     1
 90
        0
176
     1
290
     0
176
     1
 90
        1
176
     1
 40
50.0
176
     1
 90
        0
176
     1
290
     0
176
     1
290
     1
176
     1
290
     1
176
     1
290
     0
176
     1
290
     0
176
     1
290
     0
176
     1
290
     0
176
     1
290
     0
176
     1
290
     0
176
     1
 90
       50
176
     1
 40
0.0
176
     1
 40
1.0
176
     1
 90
        0
176
     1
 62
    18
420
        0
176
     1
 90
       50
176
     1
 90
        3
176
     1
 62
     5
420
      255
176
     1
290
     0
176
     1
 90
       50
176
     1
 90
       50
176
     1
 90
       50
176
     1
290
     0
176
     1
 90
       50
176
     1
 62
   256
176
     0
 40
1.0
176
     0
 90
        2
176
     1
  1
strokes_ogs.tif
176
     1
290
     0
176
     1
 40
1.0
176
     1
 40
1.0
176
     1
  0
VISUALSTYLE
  5
3A
102
{ACAD_REACTORS
330
2A
102
}
330
2A
100
AcDbVisualStyle
  2
ColorChange
 70
    16
177
     3
291
     1
 70
    58
 90
        2
176
     1
 90
        2
176
     1
 90
        3
176
     1
 90
        0
176
     1
 40
0.6
176
     1
 40
30.0
176
     1
 62
     8
420
  8421504
176
     1
 90
        1
176
     1
 90
        4
176
     1
 62
     7
176
     1
 62
   257
176
     1
 90
        1
176
     1
 90
        1
176
     1
 40
1.0
176
     1
 90
        8
176
     1
 62
     8
420
  8421504
176
     1
 40
1.0
176
     1
 90
        1
176
     1
 90
        6
176
     1
 90
        2
176
     1
 62
     7
176
     1
 90
        5
176
     1
 90
        0
176
     1
 90
        0
176
     1
290
     0
176
     1
 90
        1
176
     1
 40
0.0
176
     1
 90
        0
176
     1
290
     0
176
     1
290
     1
176
     1
290
     1
176
     1
290
     0
176
     1
290
     0
176
     1
290
     0
176
     1
290
     0
176
     1
290
     0
176
     1
290
     0
176
     1
 90
       50
176
     1
 40
0.0
176
     1
 40
1.0
176
     1
 90
        0
176
     1
 62
    18
420
        0
176
     1
 90
       50
176
     1
 90
        3
176
     1
 62
     5
420
      255
176
     1
290
     0
176
     1
 90
       50
176
     1
 90
       50
176
     1
 90
       50
176
     1
290
     0
176
     1
 90
       50
176
     1
 62
   256
176
     0
 40
1.0
176
     0
 90
        2
176
     1
  1
strokes_ogs.tif
176
     1
290
     0
176
     1
 40
1.0
176
     1
 40
1.0
176
     1
  0
VISUALSTYLE
  5
34
102
{ACAD_REACTORS
330
2A
102
}
330
2A
100
AcDbVisualStyle
  2
Conceptual
 70
     9
177
     3
291
     0
 70
    58
 90
        3
176
     1
 90
        2
176
     1
 90
        0
176
     1
 90
        0
176
     1
 40
0.6
176
     1
 40
30.0
176
     1
 62
     7
420
 16777215
176
     1
 90
        2
176
     1
 90
        2
176
     1
 62
     7
176
     1
 62
   257
176
     1
 90
        1
176
     1
 90
        1
176
     1
 40
179.0
176
     1
 90
        8
176
     1
 62
     7
176
     1
 40
1.0
176
     1
 90
        1
176
     1
 90
        6
176
     1
 90
        2
176
     1
 62
     7
176
     1
 90
        3
176
     1
 90
        0
176
     1
 90
        0
176
     1
290
     0
176
     1
 90
        1
176
     1
 40
0.0
176
     1
 90
        0
176
     1
290
     0
176
     1
290
     1
176
     1
290
     1
176
     1
290
     0
176
     1
290
     0
176
     1
290
     0
176
     1
290
     0
176
     1
290
     0
176
     1
290
     0
176
     1
 90
       50
176
     1
 40
0.0
176
     1
 40
1.0
176
     1
 90
        0
176
     1
 62
    18
420
        0
176
     1
 90
       50
176
     1
 90
        3
176
     1
 62
     5
420
      255
176
     1
290
     0
176
     1
 90
       50
176
     1
 90
       50
176
     1
 90
       50
176
     1
290
     0
176
     1
 90
       50
176
     1
 62
   256
176
     0
 40
1.0
176
     0
 90
        2
176
     1
  1
strokes_ogs.tif
176
     1
290
     0
176
     1
 40
1.0
176
     1
 40
1.0
176
     1
  0
VISUALSTYLE
  5
35
102
{ACAD_REACTORS
330
2A
102
}
330
2A
100
AcDbVisualStyle
  2
Dim
 70
    11
177
     3
291
     1
 70
    58
 90
        2
176
     1
 90
        2
176
     1
 90
        0
176
     1
 90
        0
176
     1
 40
0.6
176
     1
 40
30.0
176
     1
 62
     7
420
 16777215
176
     1
 90
        1
176
     1
 90
        4
176
     1
 62
     7
176
     1
 62
   257
176
     1
 90
        1
176
     1
 90
        1
176
     1
 40
1.0
176
     1
 90
        8
176
     1
 62
     7
176
     1
 40
1.0
176
     1
 90
        1
176
     1
 90
        6
176
     1
 90
        2
176
     1
 62
     7
176
     1
 90
        5
176
     1
 90
        0
176
     1
 90
        0
176
     1
290
     0
176
     1
 90
        1
176
     1
 40
-50.0
176
     1
 90
        0
176
     1
290
     0
176
     1
290
     1
176
     1
290
     1
176
     1
290
     0
176
     1
290
     0
176
     1
290
     0
176
     1
290
     0
176
     1
290
     0
176
     1
290
     0
176
     1
 90
       50
176
     1
 40
0.0
176
     1
 40
1.0
176
     1
 90
        0
176
     1
 62
    18
420
        0
176
     1
 90
       50
176
     1
 90
        3
176
     1
 62
     5
420
      255
176
     1
290
     0
176
     1
 90
       50
176
     1
 90
       50
176
     1
 90
       50
176
     1
290
     0
176
     1
 90
       50
176
     1
 62
   256
176
     0
 40
1.0
176
     0
 90
        2
176
     1
  1
strokes_ogs.tif
176
     1
290
     0
176
     1
 40
1.0
176
     1
 40
1.0
176
     1
  0
VISUALSTYLE
  5
3D
102
{ACAD_REACTORS
330
2A
102
}
330
2A
100
AcDbVisualStyle
  2
EdgeColorOff
 70
    22
177
     3
291
     1
 70
    58
 90
        2
176
     0
 90
        2
176
     0
 90
        0
176
     0
 90
        0
176
     0
 40
0.6
176
     0
 40
30.0
176
     0
 62
     7
420
 16777215
176
     0
 90
        1
176
     0
 90
        4
176
     0
 62
     7
176
     0
 62
   257
176
     0
 90
        1
176
     0
 90
        1
176
     0
 40
1.0
176
     0
 90
        8
176
     2
 62
     7
176
     0
 40
1.0
176
     0
 90
        1
176
     0
 90
        6
176
     0
 90
        2
176
     0
 62
     7
176
     0
 90
        5
176
     0
 90
        0
176
     0
 90
        0
176
     0
290
     0
176
     0
 90
        1
176
     0
 40
0.0
176
     0
 90
        0
176
     0
290
     0
176
     0
290
     1
176
     0
290
     1
176
     0
290
     0
176
     0
290
     0
176
     0
290
     0
176
     0
290
     0
176
     0
290
     0
176
     0
290
     0
176
     0
 90
       50
176
     0
 40
0.0
176
     0
 40
1.0
176
     0
 90
        0
176
     0
 62
    18
420
        0
176
     0
 90
       50
176
     0
 90
        3
176
     0
 62
     5
420
      255
176
     0
290
     0
176
     0
 90
       50
176
     0
 90
       50
176
     0
 90
       50
176
     0
290
     0
176
     0
 90
       50
176
     0
 62
   256
176
     0
 40
1.0
176
     0
 90
        2
176
     0
  1
strokes_ogs.tif
176
     0
290
     0
176
     0
 40
1.0
176
     0
 40
1.0
176
     0
  0
VISUALSTYLE
  5
39
102
{ACAD_REACTORS
330
2A
102
}
330
2A
100
AcDbVisualStyle
  2
Facepattern
 70
    15
177
     3
291
     1
 70
    58
 90
        2
176
     1
 90
        2
176
     1
 90
        0
176
     1
 90
        0
176
     1
 40
0.6
176
     1
 40
30.0
176
     1
 62
     7
420
 16777215
176
     1
 90
        1
176
     1
 90
        4
176
     1
 62
     7
176
     1
 62
   257
176
     1
 90
        1
176
     1
 90
        1
176
     1
 40
1.0
176
     1
 90
        8
176
     1
 62
     7
176
     1
 40
1.0
176
     1
 90
        1
176
     1
 90
        6
176
     1
 90
        2
176
     1
 62
     7
176
     1
 90
        5
176
     1
 90
        0
176
     1
 90
        0
176
     1
290
     0
176
     1
 90
        1
176
     1
 40
0.0
176
     1
 90
        0
176
     1
290
     0
176
     1
290
     1
176
     1
290
     1
176
     1
290
     0
176
     1
290
     0
176
     1
290
     0
176
     1
290
     0
176
     1
290
     0
176
     1
290
     0
176
     1
 90
       50
176
     1
 40
0.0
176
     1
 40
1.0
176
     1
 90
        0
176
     1
 62
    18
420
        0
176
     1
 90
       50
176
     1
 90
        3
176
     1
 62
     5
420
      255
176
     1
290
     0
176
     1
 90
       50
176
     1
 90
       50
176
     1
 90
       50
176
     1
290
     0
176
     1
 90
       50
176
     1
 62
   256
176
     0
 40
1.0
176
     0
 90
        2
176
     1
  1
strokes_ogs.tif
176
     1
290
     0
176
     1
 40
1.0
176
     1
 40
1.0
176
     1
  0
VISUALSTYLE
  5
2B
102
{ACAD_REACTORS
330
2A
102
}
330
2A
100
AcDbVisualStyle
  2
Flat
 70
     0
177
     3
291
     1
 70
    58
 90
        2
176
     1
 90
        1
176
     1
 90
        1
176
     1
 90
        2
176
     1
 40
0.6
176
     1
 40
30.0
176
     1
 62
     7
420
 16777215
176
     1
 90
        0
176
     1
 90
        0
176
     1
 62
     7
176
     1
 62
   257
176
     1
 90
        1
176
     1
 90
        1
176
     1
 40
1.0
176
     1
 90
        8
176
     1
 62
     7
176
     1
 40
1.0
176
     1
 90
        1
176
     1
 90
        6
176
     1
 90
        2
176
     1
 62
     7
176
     1
 90
        5
176
     1
 90
        0
176
     1
 90
        0
176
     1
290
     0
176
     1
 90
       13
176
     1
 40
0.0
176
     1
 90
        0
176
     1
290
     0
176
     1
290
     1
176
     1
290
     1
176
     1
290
     0
176
     1
290
     0
176
     1
290
     0
176
     1
290
     0
176
     1
290
     0
176
     1
290
     0
176
     1
 90
       50
176
     1
 40
0.0
176
     1
 40
1.0
176
     1
 90
        0
176
     1
 62
    18
420
        0
176
     1
 90
       50
176
     1
 90
        3
176
     1
 62
     5
420
      255
176
     1
290
     0
176
     1
 90
       50
176
     1
 90
       50
176
     1
 90
       50
176
     1
290
     0
176
     1
 90
       50
176
     1
 62
   256
176
     0
 40
1.0
176
     0
 90
        2
176
     1
  1
strokes_ogs.tif
176
     1
290
     0
176
     1
 40
1.0
176
     1
 40
1.0
176
     1
  0
VISUALSTYLE
  5
2C
102
{ACAD_REACTORS
330
2A
102
}
330
2A
100
AcDbVisualStyle
  2
FlatWithEdges
 70
     1
177
     3
291
     1
 70
    58
 90
        2
176
     1
 90
        1
176
     1
 90
        1
176
     1
 90
        2
176
     1
 40
0.6
176
     1
 40
30.0
176
     1
 62
     7
420
 16777215
176
     1
 90
        1
176
     1
 90
        0
176
     1
 62
     7
176
     1
 62
   257
176
     1
 90
        1
176
     1
 90
        1
176
     1
 40
1.0
176
     1
 90
        0
176
     1
 62
   257
176
     1
 40
1.0
176
     1
 90
        1
176
     1
 90
        6
176
     1
 90
        2
176
     1
 62
     7
176
     1
 90
        5
176
     1
 90
        0
176
     1
 90
        0
176
     1
290
     0
176
     1
 90
       13
176
     1
 40
0.0
176
     1
 90
        0
176
     1
290
     0
176
     1
290
     1
176
     1
290
     1
176
     1
290
     0
176
     1
290
     0
176
     1
290
     0
176
     1
290
     0
176
     1
290
     0
176
     1
290
     0
176
     1
 90
       50
176
     1
 40
0.0
176
     1
 40
1.0
176
     1
 90
        0
176
     1
 62
    18
420
        0
176
     1
 90
       50
176
     1
 90
        3
176
     1
 62
     5
420
      255
176
     1
290
     0
176
     1
 90
       50
176
     1
 90
       50
176
     1
 90
       50
176
     1
290
     0
176
     1
 90
       50
176
     1
 62
   256
176
     0
 40
1.0
176
     0
 90
        2
176
     1
  1
strokes_ogs.tif
176
     1
290
     0
176
     1
 40
1.0
176
     1
 40
1.0
176
     1
  0
VISUALSTYLE
  5
2D
102
{ACAD_REACTORS
330
2A
102
}
330
2A
100
AcDbVisualStyle
  2
Gouraud
 70
     2
177
     3
291
     1
 70
    58
 90
        2
176
     1
 90
        2
176
     1
 90
        1
176
     1
 90
        2
176
     1
 40
0.6
176
     1
 40
30.0
176
     1
 62
     7
420
 16777215
176
     1
 90
        0
176
     1
 90
        0
176
     1
 62
     7
176
     1
 62
   257
176
     1
 90
        1
176
     1
 90
        1
176
     1
 40
1.0
176
     1
 90
        0
176
     1
 62
     7
176
     1
 40
1.0
176
     1
 90
        1
176
     1
 90
        6
176
     1
 90
        2
176
     1
 62
     7
176
     1
 90
        5
176
     1
 90
        0
176
     1
 90
        0
176
     1
290
     0
176
     1
 90
       13
176
     1
 40
0.0
176
     1
 90
        0
176
     1
290
     0
176
     1
290
     1
176
     1
290
     1
176
     1
290
     0
176
     1
290
     0
176
     1
290
     0
176
     1
290
     0
176
     1
290
     0
176
     1
290
     0
176
     1
 90
       50
176
     1
 40
0.0
176
     1
 40
1.0
176
     1
 90
        0
176
     1
 62
    18
420
        0
176
     1
 90
       50
176
     1
 90
        3
176
     1
 62
     5
420
      255
176
     1
290
     0
176
     1
 90
       50
176
     1
 90
       50
176
     1
 90
       50
176
     1
290
     0
176
     1
 90
       50
176
     1
 62
   256
176
     0
 40
1.0
176
     0
 90
        2
176
     1
  1
strokes_ogs.tif
176
     1
290
     0
176
     1
 40
1.0
176
     1
 40
1.0
176
     1
  0
VISUALSTYLE
  5
2E
102
{ACAD_REACTORS
330
2A
102
}
330
2A
100
AcDbVisualStyle
  2
GouraudWithEdges
 70
     3
177
     3
291
     1
 70
    58
 90
        2
176
     1
 90
        2
176
     1
 90
        1
176
     1
 90
        2
176
     1
 40
0.6
176
     1
 40
30.0
176
     1
 62
     7
420
 16777215
176
     1
 90
        1
176
     1
 90
        0
176
     1
 62
     7
176
     1
 62
   257
176
     1
 90
        1
176
     1
 90
        1
176
     1
 40
1.0
176
     1
 90
        0
176
     1
 62
   257
176
     1
 40
1.0
176
     1
 90
        1
176
     1
 90
        6
176
     1
 90
        2
176
     1
 62
     7
176
     1
 90
        5
176
     1
 90
        0
176
     1
 90
        0
176
     1
290
     0
176
     1
 90
       13
176
     1
 40
0.0
176
     1
 90
        0
176
     1
290
     0
176
     1
290
     1
176
     1
290
     1
176
     1
290
     0
176
     1
290
     0
176
     1
290
     0
176
     1
290
     0
176
     1
290
     0
176
     1
290
     0
176
     1
 90
       50
176
     1
 40
0.0
176
     1
 40
1.0
176
     1
 90
        0
176
     1
 62
    18
420
        0
176
     1
 90
       50
176
     1
 90
        3
176
     1
 62
     5
420
      255
176
     1
290
     0
176
     1
 90
       50
176
     1
 90
       50
176
     1
 90
       50
176
     1
290
     0
176
     1
 90
       50
176
     1
 62
   256
176
     0
 40
1.0
176
     0
 90
        2
176
     1
  1
strokes_ogs.tif
176
     1
290
     0
176
     1
 40
1.0
176
     1
 40
1.0
176
     1
  0
VISUALSTYLE
  5
31
102
{ACAD_REACTORS
330
2A
102
}
330
2A
100
AcDbVisualStyle
  2
Hidden
 70
     6
177
     3
291
     0
 70
    58
 90
        1
176
     1
 90
        2
176
     1
 90
        2
176
     1
 90
        0
176
     1
 40
0.6
176
     1
 40
30.0
176
     1
 62
     7
420
 16777215
176
     1
 90
        2
176
     1
 90
        2
176
     1
 62
     7
176
     1
 62
   257
176
     1
 90
        2
176
     1
 90
        1
176
     1
 40
40.0
176
     1
 90
        0
176
     1
 62
   257
176
     1
 40
1.0
176
     1
 90
        1
176
     1
 90
        6
176
     1
 90
        2
176
     1
 62
     7
176
     1
 90
        3
176
     1
 90
        0
176
     1
 90
        0
176
     1
290
     0
176
     1
 90
        1
176
     1
 40
0.0
176
     1
 90
        0
176
     1
290
     0
176
     1
290
     1
176
     1
290
     1
176
     1
290
     0
176
     1
290
     0
176
     1
290
     0
176
     1
290
     0
176
     1
290
     0
176
     1
290
     0
176
     1
 90
       50
176
     1
 40
0.0
176
     1
 40
1.0
176
     1
 90
        0
176
     1
 62
    18
420
        0
176
     1
 90
       50
176
     1
 90
        3
176
     1
 62
     5
420
      255
176
     1
290
     0
176
     1
 90
       50
176
     1
 90
       50
176
     1
 90
       50
176
     1
290
     0
176
     1
 90
       50
176
     1
 62
   256
176
     0
 40
1.0
176
     0
 90
        2
176
     1
  1
strokes_ogs.tif
176
     1
290
     0
176
     1
 40
1.0
176
     1
 40
1.0
176
     1
  0
VISUALSTYLE
  5
3B
102
{ACAD_REACTORS
330
2A
102
}
330
2A
100
AcDbVisualStyle
  2
JitterOff
 70
    20
177
     3
291
     1
 70
    58
 90
        2
176
     0
 90
        2
176
     0
 90
        0
176
     0
 90
        0
176
     0
 40
0.6
176
     0
 40
30.0
176
     0
 62
     7
420
 16777215
176
     0
 90
        1
176
     0
 90
        4
176
     0
 62
     7
176
     0
 62
   257
176
     0
 90
        1
176
     0
 90
        1
176
     0
 40
1.0
176
     0
 90
       10
176
     2
 62
     7
176
     0
 40
1.0
176
     0
 90
        1
176
     0
 90
        6
176
     0
 90
        2
176
     0
 62
     7
176
     0
 90
        5
176
     0
 90
        0
176
     0
 90
        0
176
     0
290
     0
176
     0
 90
        1
176
     0
 40
0.0
176
     0
 90
        0
176
     0
290
     0
176
     0
290
     1
176
     0
290
     1
176
     0
290
     0
176
     0
290
     0
176
     0
290
     0
176
     0
290
     0
176
     0
290
     0
176
     0
290
     0
176
     0
 90
       50
176
     0
 40
0.0
176
     0
 40
1.0
176
     0
 90
        0
176
     0
 62
    18
420
        0
176
     0
 90
       50
176
     0
 90
        3
176
     0
 62
     5
420
      255
176
     0
290
     0
176
     0
 90
       50
176
     0
 90
       50
176
     0
 90
       50
176
     0
290
     0
176
     0
 90
       50
176
     0
 62
   256
176
     0
 40
1.0
176
     0
 90
        2
176
     0
  1
strokes_ogs.tif
176
     0
290
     0
176
     0
 40
1.0
176
     0
 40
1.0
176
     0
  0
VISUALSTYLE
  5
38
102
{ACAD_REACTORS
330
2A
102
}
330
2A
100
AcDbVisualStyle
  2
Linepattern
 70
    14
177
     3
291
     1
 70
    58
 90
        2
176
     1
 90
        2
176
     1
 90
        0
176
     1
 90
        0
176
     1
 40
0.6
176
     1
 40
30.0
176
     1
 62
     7
420
 16777215
176
     1
 90
        1
176
     1
 90
        4
176
     1
 62
     7
176
     1
 62
   257
176
     1
 90
        7
176
     1
 90
        7
176
     1
 40
1.0
176
     1
 90
        8
176
     1
 62
     7
176
     1
 40
1.0
176
     1
 90
        1
176
     1
 90
        6
176
     1
 90
        2
176
     1
 62
     7
176
     1
 90
        5
176
     1
 90
        0
176
     1
 90
        0
176
     1
290
     0
176
     1
 90
        1
176
     1
 40
0.0
176
     1
 90
        0
176
     1
290
     0
176
     1
290
     1
176
     1
290
     1
176
     1
290
     0
176
     1
290
     0
176
     1
290
     0
176
     1
290
     0
176
     1
290
     0
176
     1
290
     0
176
     1
 90
       50
176
     1
 40
0.0
176
     1
 40
1.0
176
     1
 90
        0
176
     1
 62
    18
420
        0
176
     1
 90
       50
176
     1
 90
        3
176
     1
 62
     5
420
      255
176
     1
290
     0
176
     1
 90
       50
176
     1
 90
       50
176
     1
 90
       50
176
     1
290
     0
176
     1
 90
       50
176
     1
 62
   256
176
     0
 40
1.0
176
     0
 90
        2
176
     1
  1
strokes_ogs.tif
176
     1
290
     0
176
     1
 40
1.0
176
     1
 40
1.0
176
     1
  0
VISUALSTYLE
  5
3C
102
{ACAD_REACTORS
330
2A
102
}
330
2A
100
AcDbVisualStyle
  2
OverhangOff
 70
    21
177
     3
291
     1
 70
    58
 90
        2
176
     0
 90
        2
176
     0
 90
        0
176
     0
 90
        0
176
     0
 40
0.6
176
     0
 40
30.0
176
     0
 62
     7
420
 16777215
176
     0
 90
        1
176
     0
 90
        4
176
     0
 62
     7
176
     0
 62
   257
176
     0
 90
        1
176
     0
 90
        1
176
     0
 40
1.0
176
     0
 90
        9
176
     2
 62
     7
176
     0
 40
1.0
176
     0
 90
        1
176
     0
 90
        6
176
     0
 90
        2
176
     0
 62
     7
176
     0
 90
        5
176
     0
 90
        0
176
     0
 90
        0
176
     0
290
     0
176
     0
 90
        1
176
     0
 40
0.0
176
     0
 90
        0
176
     0
290
     0
176
     0
290
     1
176
     0
290
     1
176
     0
290
     0
176
     0
290
     0
176
     0
290
     0
176
     0
290
     0
176
     0
290
     0
176
     0
290
     0
176
     0
 90
       50
176
     0
 40
0.0
176
     0
 40
1.0
176
     0
 90
        0
176
     0
 62
    18
420
        0
176
     0
 90
       50
176
     0
 90
        3
176
     0
 62
     5
420
      255
176
     0
290
     0
176
     0
 90
       50
176
     0
 90
       50
176
     0
 90
       50
176
     0
290
     0
176
     0
 90
       50
176
     0
 62
   256
176
     0
 40
1.0
176
     0
 90
        2
176
     0
  1
strokes_ogs.tif
176
     0
290
     0
176
     0
 40
1.0
176
     0
 40
1.0
176
     0
  0
VISUALSTYLE
  5
33
102
{ACAD_REACTORS
330
2A
102
}
330
2A
100
AcDbVisualStyle
  2
Realistic
 70
     8
177
     3
291
     0
 70
    58
 90
        2
176
     1
 90
        3
176
     1
 90
        0
176
     1
 90
        2
176
     1
 40
0.6
176
     1
 40
30.0
176
     1
 62
     7
420
 16777215
176
     1
 90
        0
176
     1
 90
        0
176
     1
 62
     7
176
     1
 62
   257
176
     1
 90
        1
176
     1
 90
        1
176
     1
 40
1.0
176
     1
 90
        8
176
     1
 62
   257
176
     1
 40
1.0
176
     1
 90
        1
176
     1
 90
        6
176
     1
 90
        2
176
     1
 62
     7
176
     1
 90
        3
176
     1
 90
        0
176
     1
 90
        0
176
     1
290
     0
176
     1
 90
       13
176
     1
 40
0.0
176
     1
 90
        0
176
     1
290
     0
176
     1
290
     1
176
     1
290
     1
176
     1
290
     0
176
     1
290
     0
176
     1
290
     0
176
     1
290
     0
176
     1
290
     0
176
     1
290
     0
176
     1
 90
       50
176
     1
 40
0.0
176
     1
 40
1.0
176
     1
 90
        0
176
     1
 62
    18
420
        0
176
     1
 90
       50
176
     1
 90
        3
176
     1
 62
     5
420
      255
176
     1
290
     0
176
     1
 90
       50
176
     1
 90
       50
176
     1
 90
       50
176
     1
290
     0
176
     1
 90
       50
176
     1
 62
   256
176
     0
 40
1.0
176
     0
 90
        2
176
     1
  1
strokes_ogs.tif
176
     1
290
     0
176
     1
 40
1.0
176
     1
 40
1.0
176
     1
  0
VISUALSTYLE
  5
42
102
{ACAD_REACTORS
330
2A
102
}
330
2A
100
AcDbVisualStyle
  2
Shaded
 70
    27
177
     3
291
     0
 70
    58
 90
        2
176
     1
 90
        2
176
     1
 90
        1
176
     1
 90
        2
176
     1
 40
0.6
176
     1
 40
30.0
176
     1
 62
     7
420
 16777215
176
     1
 90
        0
176
     1
 90
        4
176
     1
 62
     7
176
     1
 62
   257
176
     1
 90
        1
176
     1
 90
        1
176
     1
 40
1.0
176
     1
 90
        8
176
     1
 62
   257
176
     1
 40
1.0
176
     1
 90
        1
176
     1
 90
        6
176
     1
 90
        2
176
     1
 62
     8
420
  7895160
176
     1
 90
        3
176
     1
 90
        0
176
     1
 90
        0
176
     1
290
     0
176
     1
 90
        5
176
     1
 40
0.0
176
     1
 90
        0
176
     1
290
     0
176
     1
290
     1
176
     1
290
     1
176
     1
290
     0
176
     1
290
     0
176
     1
290
     0
176
     1
290
     0
176
     1
290
     0
176
     1
290
     0
176
     1
 90
       50
176
     1
 40
0.0
176
     1
 40
1.0
176
     1
 90
        0
176
     1
 62
    18
420
        0
176
     1
 90
       50
176
     1
 90
        3
176
     1
 62
     5
420
      255
176
     1
290
     0
176
     1
 90
       50
176
     1
 90
       50
176
     1
 90
       50
176
     1
290
     0
176
     1
 90
       50
176
     1
 62
   256
176
     0
 40
1.0
176
     0
 90
        2
176
     1
  1
strokes_ogs.tif
176
     1
290
     0
176
     1
 40
1.0
176
     1
 40
1.0
176
     1
  0
VISUALSTYLE
  5
41
102
{ACAD_REACTORS
330
2A
102
}
330
2A
100
AcDbVisualStyle
  2
Shaded with edges
 70
    26
177
     3
291
     0
 70
    58
 90
        2
176
     1
 90
        2
176
     1
 90
        1
176
     1
 90
        2
176
     1
 40
0.6
176
     1
 40
30.0
176
     1
 62
     7
420
 16777215
176
     1
 90
        1
176
     1
 90
       10
176
     1
 62
     7
176
     1
 62
   257
176
     1
 90
        2
176
     1
 90
        1
176
     1
 40
1.0
176
     1
 90
        8
176
     1
 62
   257
176
     1
 40
1.0
176
     1
 90
        1
176
     1
 90
        6
176
     1
 90
        2
176
     1
 62
     7
176
     1
 90
        3
176
     1
 90
        0
176
     1
 90
        0
176
     1
290
     0
176
     1
 90
        5
176
     1
 40
0.0
176
     1
 90
        0
176
     1
290
     0
176
     1
290
     1
176
     1
290
     1
176
     1
290
     0
176
     1
290
     0
176
     1
290
     0
176
     1
290
     0
176
     1
290
     0
176
     1
290
     0
176
     1
 90
       50
176
     1
 40
0.0
176
     1
 40
1.0
176
     1
 90
        0
176
     1
 62
    18
420
        0
176
     1
 90
       50
176
     1
 90
        3
176
     1
 62
     5
420
      255
176
     1
290
     0
176
     1
 90
       50
176
     1
 90
       50
176
     1
 90
       50
176
     1
290
     0
176
     1
 90
       50
176
     1
 62
   256
176
     0
 40
1.0
176
     0
 90
        2
176
     1
  1
strokes_ogs.tif
176
     1
290
     0
176
     1
 40
1.0
176
     1
 40
1.0
176
     1
  0
VISUALSTYLE
  5
3E
102
{ACAD_REACTORS
330
2A
102
}
330
2A
100
AcDbVisualStyle
  2
Shades of Gray
 70
    23
177
     3
291
     0
 70
    58
 90
        2
176
     1
 90
        2
176
     1
 90
        3
176
     1
 90
        0
176
     1
 40
0.6
176
     1
 40
30.0
176
     1
 62
     7
420
 16777215
176
     1
 90
        2
176
     1
 90
        2
176
     1
 62
     7
176
     1
 62
     7
176
     1
 90
        1
176
     1
 90
        1
176
     1
 40
40.0
176
     1
 90
        8
176
     1
 62
     7
176
     1
 40
1.0
176
     1
 90
        1
176
     1
 90
        6
176
     1
 90
        2
176
     1
 62
     7
176
     1
 90
        3
176
     1
 90
        0
176
     1
 90
        0
176
     1
290
     0
176
     1
 90
        1
176
     1
 40
0.0
176
     1
 90
        0
176
     1
290
     0
176
     1
290
     1
176
     1
290
     1
176
     1
290
     0
176
     1
290
     0
176
     1
290
     0
176
     1
290
     0
176
     1
290
     0
176
     1
290
     0
176
     1
 90
       50
176
     1
 40
0.0
176
     1
 40
1.0
176
     1
 90
        0
176
     1
 62
    18
420
        0
176
     1
 90
       50
176
     1
 90
        3
176
     1
 62
     5
420
      255
176
     1
290
     0
176
     1
 90
       50
176
     1
 90
       50
176
     1
 90
       50
176
     1
290
     0
176
     1
 90
       50
176
     1
 62
   256
176
     0
 40
1.0
176
     0
 90
        2
176
     1
  1
strokes_ogs.tif
176
     1
290
     0
176
     1
 40
1.0
176
     1
 40
1.0
176
     1
  0
VISUALSTYLE
  5
3F
102
{ACAD_REACTORS
330
2A
102
}
330
2A
100
AcDbVisualStyle
  2
Sketchy
 70
    24
177
     3
291
     0
 70
    58
 90
        1
176
     1
 90
        2
176
     1
 90
        2
176
     1
 90
        0
176
     1
 40
0.6
176
     1
 40
30.0
176
     1
 62
     7
420
 16777215
176
     1
 90
        2
176
     1
 90
        2
176
     1
 62
     7
176
     1
 62
     7
176
     1
 90
        1
176
     1
 90
        1
176
     1
 40
40.0
176
     1
 90
       11
176
     1
 62
     7
176
     1
 40
1.0
176
     1
 90
        1
176
     1
 90
        6
176
     1
 90
        2
176
     1
 62
     7
176
     1
 90
        6
176
     1
 90
        0
176
     1
 90
        0
176
     1
290
     0
176
     1
 90
        1
176
     1
 40
0.0
176
     1
 90
        0
176
     1
290
     0
176
     1
290
     1
176
     1
290
     1
176
     1
290
     0
176
     1
290
     0
176
     1
290
     0
176
     1
290
     0
176
     1
290
     0
176
     1
290
     0
176
     1
 90
       50
176
     1
 40
0.0
176
     1
 40
1.0
176
     1
 90
        0
176
     1
 62
    18
420
        0
176
     1
 90
       50
176
     1
 90
        3
176
     1
 62
     5
420
      255
176
     1
290
     0
176
     1
 90
       50
176
     1
 90
       50
176
     1
 90
       50
176
     1
290
     0
176
     1
 90
       50
176
     1
 62
   256
176
     0
 40
1.0
176
     0
 90
        2
176
     1
  1
strokes_ogs.tif
176
     1
290
     0
176
     1
 40
1.0
176
     1
 40
1.0
176
     1
  0
VISUALSTYLE
  5
37
102
{ACAD_REACTORS
330
2A
102
}
330
2A
100
AcDbVisualStyle
  2
Thicken
 70
    13
177
     3
291
     1
 70
    58
 90
        2
176
     1
 90
        2
176
     1
 90
        0
176
     1
 90
        0
176
     1
 40
0.6
176
     1
 40
30.0
176
     1
 62
     7
420
 16777215
176
     1
 90
        1
176
     1
 90
        4
176
     1
 62
     7
176
     1
 62
   257
176
     1
 90
        1
176
     1
 90
        1
176
     1
 40
1.0
176
     1
 90
       12
176
     1
 62
     7
176
     1
 40
1.0
176
     1
 90
        1
176
     1
 90
        6
176
     1
 90
        2
176
     1
 62
     7
176
     1
 90
        5
176
     1
 90
        0
176
     1
 90
        0
176
     1
290
     0
176
     1
 90
        1
176
     1
 40
0.0
176
     1
 90
        0
176
     1
290
     0
176
     1
290
     1
176
     1
290
     1
176
     1
290
     0
176
     1
290
     0
176
     1
290
     0
176
     1
290
     0
176
     1
290
     0
176
     1
290
     0
176
     1
 90
       50
176
     1
 40
0.0
176
     1
 40
1.0
176
     1
 90
        0
176
     1
 62
    18
420
        0
176
     1
 90
       50
176
     1
 90
        3
176
     1
 62
     5
420
      255
176
     1
290
     0
176
     1
 90
       50
176
     1
 90
       50
176
     1
 90
       50
176
     1
290
     0
176
     1
 90
       50
176
     1
 62
   256
176
     0
 40
1.0
176
     0
 90
        2
176
     1
  1
strokes_ogs.tif
176
     1
290
     0
176
     1
 40
1.0
176
     1
 40
1.0
176
     1
  0
VISUALSTYLE
  5
30
102
{ACAD_REACTORS
330
2A
102
}
330
2A
100
AcDbVisualStyle
  2
Wireframe
 70
     5
177
     3
291
     0
 70
    58
 90
        0
176
     1
 90
        2
176
     1
 90
        0
176
     1
 90
        0
176
     1
 40
0.6
176
     1
 40
30.0
176
     1
 62
     7
420
 16777215
176
     1
 90
        1
176
     1
 90
        4
176
     1
 62
     7
176
     1
 62
   257
176
     1
 90
        1
176
     1
 90
        1
176
     1
 40
1.0
176
     1
 90
        0
176
     1
 62
   257
176
     1
 40
1.0
176
     1
 90
        1
176
     1
 90
        6
176
     1
 90
        2
176
     1
 62
     7
176
     1
 90
        3
176
     1
 90
        0
176
     1
 90
        0
176
     1
290
     0
176
     1
 90
        1
176
     1
 40
0.0
176
     1
 90
        0
176
     1
290
     0
176
     1
290
     1
176
     1
290
     1
176
     1
290
     0
176
     1
290
     0
176
     1
290
     0
176
     1
290
     0
176
     1
290
     0
176
     1
290
     0
176
     1
 90
       50
176
     1
 40
0.0
176
     1
 40
1.0
176
     1
 90
        0
176
     1
 62
    18
420
        0
176
     1
 90
       50
176
     1
 90
        3
176
     1
 62
     5
420
      255
176
     1
290
     0
176
     1
 90
       50
176
     1
 90
       50
176
     1
 90
       50
176
     1
290
     0
176
     1
 90
       50
176
     1
 62
   256
176
     0
 40
1.0
176
     0
 90
        2
176
     1
  1
strokes_ogs.tif
176
     1
290
     0
176
     1
 40
1.0
176
     1
 40
1.0
176
     1
  0
VISUALSTYLE
  5
40
102
{ACAD_REACTORS
330
2A
102
}
330
2A
100
AcDbVisualStyle
  2
X-Ray
 70
    25
177
     3
291
     0
 70
    58
 90
        2
176
     1
 90
        2
176
     1
 90
        1
176
     1
 90
        1
176
     1
 40
0.5
176
     1
 40
30.0
176
     1
 62
     7
420
 16777215
176
     1
 90
        1
176
     1
 90
        0
176
     1
 62
     7
176
     1
 62
   257
176
     1
 90
        1
176
     1
 90
        1
176
     1
 40
1.0
176
     1
 90
        8
176
     1
 62
     7
176
     1
 40
1.0
176
     1
 90
        1
176
     1
 90
        6
176
     1
 90
        2
176
     1
 62
     7
176
     1
 90
        3
176
     1
 90
        0
176
     1
 90
        0
176
     1
290
     0
176
     1
 90
       13
176
     1
 40
0.0
176
     1
 90
        0
176
     1
290
     0
176
     1
290
     1
176
     1
290
     1
176
     1
290
     0
176
     1
290
     0
176
     1
290
     0
176
     1
290
     0
176
     1
290
     0
176
     1
290
     0
176
     1
 90
       50
176
     1
 40
0.0
176
     1
 40
1.0
176
     1
 90
        0
176
     1
 62
    18
420
        0
176
     1
 90
       50
176
     1
 90
        3
176
     1
 62
     5
420
      255
176
     1
290
     0
176
     1
 90
       50
176
     1
 90
       50
176
     1
 90
       50
176
     1
290
     0
176
     1
 90
       50
176
     1
 62
   256
176
     0
 40
1.0
176
     0
 90
        2
176
     1
  1
strokes_ogs.tif
176
     1
290
     0
176
     1
 40
1.0
176
     1
 40
1.0
176
     1
  0
DICTIONARYVAR
  5
CE
102
{ACAD_REACTORS
330
CD
102
}
330
CD
100
DictionaryVariables
280
     0
  1
1:1
  0
DICTIONARYVAR
  5
D3
102
{ACAD_REACTORS
330
CD
102
}
330
CD
100
DictionaryVariables
280
     0
  1
Standard
  0
DICTIONARYVAR
  5
D2
102
{ACAD_REACTORS
330
CD
102
}
330
CD
100
DictionaryVariables
280
     0
  1
Standard
  0
DICTIONARY
  5
CF
330
6A
100
AcDbDictionary
280
     1
281
     1
  3
ACAD_ROUNDTRIP_2008_TABLESTYLE_CELLSTYLEMAP
360
D0
  0
CELLSTYLEMAP
  5
D0
102
{ACAD_REACTORS
330
CF
102
}
330
CF
100
AcDbCellStyleMap
 90
        3
300
CELLSTYLE
  1
TABLEFORMAT_BEGIN
 90
        5
170
     1
 91
        0
 92
    32768
 62
   257
 93
        1
300
CONTENTFORMAT
  1
CONTENTFORMAT_BEGIN
 90
        0
 91
        0
 92
        4
 93
        0
300

 40
0.0
140
1.0
 94
        5
 62
     0
340
11
144
6.0
309
CONTENTFORMAT_END
171
     1
301
MARGIN
  1
CELLMARGIN_BEGIN
 40
1.5
 40
1.5
 40
1.5
 40
1.5
 40
1.5
 40
1.5
309
CELLMARGIN_END
 94
        6
 95
        1
302
GRIDFORMAT
  1
GRIDFORMAT_BEGIN
 90
        0
 91
        1
 62
     0
 92
       -2
340
14
 93
        0
 40
0.045
309
GRIDFORMAT_END
 95
        2
302
GRIDFORMAT
  1
GRIDFORMAT_BEGIN
 90
        0
 91
        1
 62
     0
 92
       -2
340
14
 93
        0
 40
0.045
309
GRIDFORMAT_END
 95
        4
302
GRIDFORMAT
  1
GRIDFORMAT_BEGIN
 90
        0
 91
        1
 62
     0
 92
       -2
340
14
 93
        0
 40
0.045
309
GRIDFORMAT_END
 95
        8
302
GRIDFORMAT
  1
GRIDFORMAT_BEGIN
 90
        0
 91
        1
 62
     0
 92
       -2
340
14
 93
        0
 40
0.045
309
GRIDFORMAT_END
 95
       16
302
GRIDFORMAT
  1
GRIDFORMAT_BEGIN
 90
        0
 91
        1
 62
     0
 92
       -2
340
14
 93
        0
 40
0.045
309
GRIDFORMAT_END
 95
       32
302
GRIDFORMAT
  1
GRIDFORMAT_BEGIN
 90
        0
 91
        1
 62
     0
 92
       -2
340
14
 93
        0
 40
0.045
309
GRIDFORMAT_END
309
TABLEFORMAT_END
  1
CELLSTYLE_BEGIN
 90
        1
 91
        1
300
_TITLE
309
CELLSTYLE_END
300
CELLSTYLE
  1
TABLEFORMAT_BEGIN
 90
        5
170
     1
 91
        0
 92
        0
 62
   257
 93
        1
300
CONTENTFORMAT
  1
CONTENTFORMAT_BEGIN
 90
        0
 91
        0
 92
        4
 93
        0
300

 40
0.0
140
1.0
 94
        5
 62
     0
340
11
144
4.5
309
CONTENTFORMAT_END
171
     1
301
MARGIN
  1
CELLMARGIN_BEGIN
 40
1.5
 40
1.5
 40
1.5
 40
1.5
 40
1.5
 40
1.5
309
CELLMARGIN_END
 94
        6
 95
        1
302
GRIDFORMAT
  1
GRIDFORMAT_BEGIN
 90
        0
 91
        1
 62
     0
 92
       -2
340
14
 93
        0
 40
0.045
309
GRIDFORMAT_END
 95
        2
302
GRIDFORMAT
  1
GRIDFORMAT_BEGIN
 90
        0
 91
        1
 62
     0
 92
       -2
340
14
 93
        0
 40
0.045
309
GRIDFORMAT_END
 95
        4
302
GRIDFORMAT
  1
GRIDFORMAT_BEGIN
 90
        0
 91
        1
 62
     0
 92
       -2
340
14
 93
        0
 40
0.045
309
GRIDFORMAT_END
 95
        8
302
GRIDFORMAT
  1
GRIDFORMAT_BEGIN
 90
        0
 91
        1
 62
     0
 92
       -2
340
14
 93
        0
 40
0.045
309
GRIDFORMAT_END
 95
       16
302
GRIDFORMAT
  1
GRIDFORMAT_BEGIN
 90
        0
 91
        1
 62
     0
 92
       -2
340
14
 93
        0
 40
0.045
309
GRIDFORMAT_END
 95
       32
302
GRIDFORMAT
  1
GRIDFORMAT_BEGIN
 90
        0
 91
        1
 62
     0
 92
       -2
340
14
 93
        0
 40
0.045
309
GRIDFORMAT_END
309
TABLEFORMAT_END
  1
CELLSTYLE_BEGIN
 90
        2
 91
        1
300
_HEADER
309
CELLSTYLE_END
300
CELLSTYLE
  1
TABLEFORMAT_BEGIN
 90
        5
170
     1
 91
        0
 92
        0
 62
   257
 93
        1
300
CONTENTFORMAT
  1
CONTENTFORMAT_BEGIN
 90
        0
 91
        0
 92
        4
 93
        0
300

 40
0.0
140
1.0
 94
        2
 62
     0
340
11
144
4.5
309
CONTENTFORMAT_END
171
     1
301
MARGIN
  1
CELLMARGIN_BEGIN
 40
1.5
 40
1.5
 40
1.5
 40
1.5
 40
1.5
 40
1.5
309
CELLMARGIN_END
 94
        6
 95
        1
302
GRIDFORMAT
  1
GRIDFORMAT_BEGIN
 90
        0
 91
        1
 62
     0
 92
       -2
340
14
 93
        0
 40
0.045
309
GRIDFORMAT_END
 95
        2
302
GRIDFORMAT
  1
GRIDFORMAT_BEGIN
 90
        0
 91
        1
 62
     0
 92
       -2
340
14
 93
        0
 40
0.045
309
GRIDFORMAT_END
 95
        4
302
GRIDFORMAT
  1
GRIDFORMAT_BEGIN
 90
        0
 91
        1
 62
     0
 92
       -2
340
14
 93
        0
 40
0.045
309
GRIDFORMAT_END
 95
        8
302
GRIDFORMAT
  1
GRIDFORMAT_BEGIN
 90
        0
 91
        1
 62
     0
 92
       -2
340
14
 93
        0
 40
0.045
309
GRIDFORMAT_END
 95
       16
302
GRIDFORMAT
  1
GRIDFORMAT_BEGIN
 90
        0
 91
        1
 62
     0
 92
       -2
340
14
 93
        0
 40
0.045
309
GRIDFORMAT_END
 95
       32
302
GRIDFORMAT
  1
GRIDFORMAT_BEGIN
 90
        0
 91
        1
 62
     0
 92
       -2
340
14
 93
        0
 40
0.045
309
GRIDFORMAT_END
309
TABLEFORMAT_END
  1
CELLSTYLE_BEGIN
 90
        3
 91
        2
300
_DATA
309
CELLSTYLE_END
  0
ENDSEC
  0
EOF
