<?xml version="1.0" encoding="UTF-8" standalone="no"?>
<svg
   xmlns:dc="http://purl.org/dc/elements/1.1/"
   xmlns:cc="http://creativecommons.org/ns#"
   xmlns:rdf="http://www.w3.org/1999/02/22-rdf-syntax-ns#"
   xmlns:svg="http://www.w3.org/2000/svg"
   xmlns="http://www.w3.org/2000/svg"
   xmlns:sodipodi="http://sodipodi.sourceforge.net/DTD/sodipodi-0.dtd"
   xmlns:inkscape="http://www.inkscape.org/namespaces/inkscape"
   width="793.700787402"
   height="1122.51968504"
   version="1.1"
   id="svg8177"
   sodipodi:docname="FrontGear.svg"
   inkscape:version="0.92.2 (5c3e80d, 2017-08-06)">
  <metadata
     id="metadata8181">
    <rdf:RDF>
      <cc:Work
         rdf:about="">
        <dc:format>image/svg+xml</dc:format>
        <dc:type
           rdf:resource="http://purl.org/dc/dcmitype/StillImage" />
        <dc:title></dc:title>
      </cc:Work>
    </rdf:RDF>
  </metadata>
  <sodipodi:namedview
     pagecolor="#ffffff"
     bordercolor="#666666"
     borderopacity="1"
     objecttolerance="10"
     gridtolerance="10"
     guidetolerance="10"
     inkscape:pageopacity="0"
     inkscape:pageshadow="2"
     inkscape:window-width="1600"
     inkscape:window-height="837"
     id="namedview8179"
     showgrid="false"
     inkscape:zoom="0.29732611"
     inkscape:cx="-299.29505"
     inkscape:cy="503.11047"
     inkscape:window-x="-8"
     inkscape:window-y="-8"
     inkscape:window-maximized="1"
     inkscape:current-layer="g8175" />
  <desc
     id="desc8046">D:\SourceControl\GitRepos.Hackspace\Cad.Reciprocating-Model\Solidworks\V2\Svg\FrontGear.DXF - scale = 1.000000, origin = (0.000000, 0.000000), method = manual</desc>
  <defs
     id="defs8061">
    <marker
       id="DistanceX"
       orient="auto"
       refX="0.0"
       refY="0.0"
       style="overflow:visible">
      <path
         d="M 3,-3 L -3,3 M 0,-5 L  0,5"
         style="stroke:#000000; stroke-width:0.5"
         id="path8048" />
    </marker>
    <pattern
       height="8"
       id="Hatch"
       patternUnits="userSpaceOnUse"
       width="8"
       x="0"
       y="0">
      <path
         d="M8 4 l-4,4"
         linecap="square"
         stroke="#000000"
         stroke-width="0.25"
         id="path8051" />
      <path
         d="M6 2 l-4,4"
         linecap="square"
         stroke="#000000"
         stroke-width="0.25"
         id="path8053" />
      <path
         d="M4 0 l-4,4"
         linecap="square"
         stroke="#000000"
         stroke-width="0.25"
         id="path8055" />
    </pattern>
    <symbol
       id="*Model_Space" />
    <symbol
       id="*Paper_Space" />
    <symbol
       id="*Paper_Space0" />
  </defs>
  <g
     inkscape:groupmode="layer"
     inkscape:label="0"
     id="g8175">
    <path
       d="M 15.307087,1122.519685 A 15.307087,15.307087 -0.000000 1 0 -15.307087,1122.519685 15.307087,15.307087 -0.000000 1 0 15.307087,1122.519685 z"
       style="stroke:#000000;stroke-width:0.9;fill:none;stroke-linecap: round"
       id="path8073" />
    <path
       d="M 17.268794,329.081651 C 18.163018,331.099411 19.037451,333.125949 19.891020,335.161239 C 20.400214,336.375386 20.901984,337.592649 21.396078,338.813019 C 21.876343,339.999232 22.349357,341.188381 22.814870,342.380460 C 23.266978,343.538212 23.712012,344.698728 24.149723,345.862000 C 24.574457,346.990781 24.992296,348.122157 25.402995,349.256120 C 25.801145,350.355435 26.192583,351.457180 26.577066,352.561349 C 26.949429,353.630716 27.315268,354.702356 27.674338,355.776260 C 28.021722,356.815215 28.362771,357.856289 28.697240,358.899473 C 29.020458,359.907566 29.337532,360.917629 29.648220,361.929653 C 29.948094,362.906449 30.242020,363.885071 30.529750,364.865512 C 30.807103,365.810594 31.078698,366.757366 31.344320,367.705811 C 31.600003,368.618771 31.850150,369.533281 32.094441,370.449356 C 32.329237,371.329824 32.558622,372.211737 32.782644,373.095002 C 32.997607,373.942546 33.207630,374.791335 33.411478,375.641650 C 33.606734,376.456129 33.796324,377.272009 33.983508,378.088253 C 34.162455,378.868583 34.339204,379.649245 34.501317,380.433809 C 34.880445,382.268631 35.179532,384.124790 35.713871,385.918901 C 35.796278,386.195592 35.884280,386.470807 35.978536,386.743829 C 36.076824,387.028526 36.181913,387.310838 36.294249,387.590264 C 36.413571,387.887067 36.541070,388.180613 36.677251,388.470094 C 36.824969,388.784098 36.982902,389.093318 37.151473,389.396659 C 37.338499,389.733212 37.538619,390.062529 37.752065,390.383027 C 37.994208,390.746616 38.253502,391.098856 38.529688,391.437379 C 38.848882,391.828615 39.190639,392.201531 39.553601,392.552775 C 39.977177,392.962677 40.429631,393.343067 40.907311,393.688383 C 41.461475,394.088990 42.049590,394.442395 42.663879,394.745006 C 43.356943,395.086422 44.083324,395.363182 44.829483,395.556757 C 45.572887,395.749616 46.335924,395.859903 47.100308,395.947544 C 49.531355,396.226277 51.976039,396.275947 54.410771,396.458405 C 56.845503,396.640863 59.270284,396.956109 61.715722,397.042818 C 62.484631,397.070082 63.255582,397.074751 64.019428,396.994844 C 64.786103,396.914641 65.545621,396.749234 66.281829,396.514926 C 66.934359,396.307250 67.568577,396.045447 68.176258,395.731908 C 68.700070,395.461643 69.204165,395.152937 69.684103,394.810744 C 70.095361,394.517519 70.488881,394.199705 70.862820,393.860412 C 71.186376,393.566833 71.495272,393.257173 71.788901,392.933735 C 72.047731,392.648629 72.294698,392.352817 72.529796,392.047898 C 72.741694,391.773069 72.943950,391.490841 73.136818,391.202361 C 73.314623,390.936410 73.484449,390.665145 73.646674,390.389441 C 73.799402,390.129879 73.945393,389.866383 74.085015,389.599514 C 74.218911,389.343591 74.346949,389.084565 74.469674,388.823246 C 75.265443,387.128814 75.837836,385.337963 76.486195,383.580140 C 76.763431,382.828501 77.054557,382.082901 77.347807,381.337958 C 77.654555,380.558729 77.963628,379.780219 78.278096,379.003939 C 78.606399,378.193502 78.940583,377.385496 79.279464,376.579457 C 79.632627,375.739446 79.990893,374.901571 80.354293,374.065932 C 80.732390,373.196499 81.116044,372.329485 81.504941,371.464830 C 81.908954,370.566567 82.318625,369.670849 82.733737,368.777660 C 83.164380,367.851054 83.600879,366.927169 84.042988,366.005977 C 84.501041,365.051562 84.965115,364.100038 85.434971,363.151378 C 85.921183,362.169696 86.413586,361.191080 86.911939,360.215505 C 87.427055,359.207112 87.948528,358.201967 88.476114,357.200042 C 89.020869,356.165509 89.572142,355.134410 90.129689,354.106715 C 90.704809,353.046629 91.286605,351.990165 91.874831,350.937295 C 92.481030,349.852254 93.094059,348.771029 93.713672,347.693591 C 94.351655,346.584207 94.996619,345.478839 95.648316,344.377455 C 96.318778,343.244356 96.996367,342.115475 97.680834,340.990780 C 98.828213,339.105440 99.994919,337.231864 101.179887,335.369919"
       style="stroke:#000000;stroke-width:0.9;fill:none;stroke-linecap: round"
       id="path8075" />
    <path
       d="M 135.331718,340.517479 C 135.915224,342.645979 136.477849,344.780209 137.018540,346.919985 C 137.341088,348.196463 137.655830,349.474914 137.962519,350.755295 C 138.260624,351.999838 138.551121,353.246205 138.833764,354.494350 C 139.108269,355.706555 139.375366,356.920437 139.634812,358.135954 C 139.886566,359.315431 140.131116,360.496446 140.368219,361.678955 C 140.598077,362.825332 140.820937,363.973113 141.036557,365.122254 C 141.245381,366.235175 141.447414,367.349371 141.642416,368.464797 C 141.831072,369.543922 142.013148,370.624199 142.188403,371.705582 C 142.357762,372.750588 142.520752,373.796627 142.677136,374.843653 C 142.828077,375.854233 142.972864,376.865732 143.111253,377.878107 C 143.244651,378.853970 143.372104,379.830646 143.493400,380.808087 C 143.610158,381.748957 143.721210,382.690536 143.826239,383.632789 C 143.927185,384.538417 144.022566,385.444668 144.112442,386.351456 C 144.198684,387.221572 144.279856,388.092183 144.354694,388.963383 C 144.426378,389.797867 144.492250,390.632891 144.555688,391.467916 C 144.616335,392.266201 144.674757,393.064487 144.718127,393.864449 C 144.819554,395.735284 144.838654,397.615288 145.099627,399.468999 C 145.139874,399.754882 145.185875,400.040140 145.238387,400.324160 C 145.293145,400.620327 145.354983,400.915148 145.424418,401.208195 C 145.498172,401.519467 145.580496,401.828738 145.672011,402.135282 C 145.771279,402.467795 145.881362,402.797100 146.002838,403.122177 C 146.137615,403.482846 146.286418,403.838311 146.449712,404.187041 C 146.634961,404.582659 146.838860,404.969611 147.061507,405.345516 C 147.318825,405.779956 147.601185,406.199643 147.907742,406.601061 C 148.265495,407.069516 148.656201,407.513091 149.077079,407.925745 C 149.565346,408.404472 150.094220,408.841583 150.656546,409.232369 C 151.290983,409.673268 151.968003,410.055198 152.676977,410.357820 C 153.383334,410.659324 154.121410,410.882104 154.864195,411.082691 C 157.226546,411.720640 159.636522,412.134116 162.016866,412.677414 C 164.397211,413.220712 166.747924,413.893832 169.153124,414.344046 C 169.909382,414.485605 170.671027,414.605127 171.438250,414.639958 C 172.208316,414.674918 172.984003,414.624558 173.746910,414.502593 C 174.423104,414.394492 175.089258,414.230138 175.736883,414.010671 C 176.295125,413.821495 176.839600,413.591369 177.365178,413.324528 C 177.815546,413.095873 178.252039,412.840260 178.672370,412.560489 C 179.036068,412.318413 179.387666,412.058251 179.726222,411.782188 C 180.024653,411.538843 180.312951,411.283143 180.590869,411.016669 C 180.841361,410.776491 181.083422,410.527561 181.317132,410.271048 C 181.532589,410.034568 181.740947,409.791644 181.942453,409.543198 C 182.132160,409.309299 182.315793,409.070504 182.493630,408.827426 C 182.664173,408.594317 182.829387,408.357267 182.989689,408.117158 C 184.029112,406.560255 184.862024,404.874717 185.765131,403.233160 C 186.151297,402.531236 186.550297,401.837354 186.951301,401.144438 C 187.370760,400.419631 187.792412,399.695881 188.219066,398.975140 C 188.664492,398.222687 189.115370,397.473513 189.570600,396.726984 C 190.045016,395.948992 190.524159,395.173872 191.008046,394.401728 C 191.511501,393.598358 192.020092,392.798209 192.533516,392.001173 C 193.066895,391.173158 193.605491,390.348503 194.149089,389.527160 C 194.713026,388.675086 195.282348,387.826578 195.856814,386.981568 C 196.451999,386.106082 197.052708,385.234352 197.658707,384.366317 C 198.285800,383.468065 198.918559,382.573769 199.556747,381.683365 C 200.216403,380.763009 200.881860,379.846812 201.552882,378.934710 C 202.245743,377.992925 202.944536,377.055505 203.649026,376.122386 C 204.375720,375.159858 205.108475,374.201906 205.847053,373.248466 C 206.608198,372.265893 207.375529,371.288111 208.148804,370.315056 C 208.945007,369.313150 209.747514,368.316254 210.556084,367.324302 C 211.387938,366.303787 212.226210,365.288503 213.070659,364.278385 C 214.486218,362.585110 215.919135,360.906349 217.368376,359.241811"
       style="stroke:#000000;stroke-width:0.9;fill:none;stroke-linecap: round"
       id="path8077" />
    <path
       d="M 250.371556,369.421943 C 250.631307,371.613637 250.869558,373.807884 251.085293,376.004347 C 251.213990,377.314641 251.334673,378.625722 251.447106,379.937512 C 251.556392,381.212585 251.657882,382.488327 251.751342,383.764658 C 251.842111,385.004236 251.925305,386.244369 252.000690,387.484977 C 252.073840,388.688802 252.139637,389.893075 252.197848,391.097715 C 252.254281,392.265547 252.303583,393.433724 252.345525,394.602165 C 252.386144,395.733780 252.419858,396.865643 252.446437,397.997674 C 252.472150,399.092864 252.491185,400.188212 252.503311,401.283637 C 252.515029,402.342212 252.520294,403.400861 252.518881,404.459500 C 252.517516,405.481289 252.509930,406.503070 252.495887,407.524763 C 252.482350,408.509609 252.462813,409.494372 252.437075,410.478974 C 252.412299,411.426738 252.381776,412.374351 252.345196,413.321733 C 252.310038,414.232292 252.269284,415.142637 252.223007,416.052692 C 252.178601,416.925943 252.129109,417.798928 252.073265,418.671552 C 252.019775,419.507399 251.960457,420.342914 251.898733,421.178068 C 251.839724,421.976475 251.778515,422.774552 251.702172,423.572044 C 251.523633,425.437100 251.262320,427.298953 251.244097,429.170855 C 251.241286,429.459543 251.244257,429.748471 251.253852,430.037145 C 251.263857,430.338166 251.281064,430.638911 251.306047,430.939034 C 251.332584,431.257821 251.367894,431.575907 251.412699,431.892667 C 251.461300,432.236261 251.521072,432.578295 251.592742,432.917847 C 251.672259,433.294575 251.766420,433.668247 251.875915,434.037420 C 252.000131,434.456230 252.144080,434.869248 252.308215,435.274139 C 252.497909,435.742078 252.714564,436.199161 252.957869,436.641785 C 253.241806,437.158328 253.562037,437.655181 253.916712,438.125955 C 254.328175,438.672107 254.785993,439.183160 255.283795,439.653392 C 255.845434,440.183924 256.457967,440.662493 257.113919,441.067402 C 257.767450,441.470816 258.464079,441.801112 259.168672,442.110165 C 261.409556,443.093079 263.730989,443.861125 266.003772,444.753126 C 268.276556,445.645128 270.500690,446.661086 272.811926,447.464748 C 273.538638,447.717440 274.273962,447.949144 275.027425,448.097935 C 275.783680,448.247277 276.558209,448.313089 277.330772,448.306193 C 278.015526,448.300080 278.698735,448.236847 279.371836,448.116355 C 279.952039,448.012493 280.524730,447.866087 281.084209,447.680560 C 281.563626,447.521583 282.033340,447.333881 282.490675,447.119882 C 282.886390,446.934716 283.272837,446.729862 283.648756,446.507342 C 283.980123,446.311194 284.303310,446.101318 284.617840,445.879242 C 284.901331,445.679081 285.177790,445.469008 285.447120,445.250193 C 285.695416,445.048467 285.937654,444.839310 286.173937,444.623672 C 286.396386,444.420659 286.613558,444.211901 286.825638,443.998043 C 287.029020,443.792955 287.227719,443.583178 287.422017,443.369642 C 288.681875,441.985046 289.756700,440.442473 290.894382,438.953853 C 291.380851,438.317324 291.878812,437.690659 292.378611,437.065249 C 292.901412,436.411055 293.426224,435.758232 293.955533,435.109131 C 294.508131,434.431469 295.065632,433.757863 295.627042,433.087520 C 296.212113,432.388926 296.801430,431.693876 297.394994,431.002476 C 298.012563,430.283115 298.634729,429.567705 299.261210,428.856093 C 299.912041,428.116822 300.567529,427.381651 301.227471,426.650501 C 301.912104,425.891995 302.601531,425.137816 303.295523,424.387864 C 304.014545,423.610865 304.738469,422.838402 305.467073,422.070381 C 306.221040,421.275626 306.980019,420.485626 307.743787,419.700284 C 308.533247,418.888525 309.327824,418.081742 310.127293,417.279838 C 310.952780,416.451837 311.783484,415.629037 312.619179,414.811340 C 313.481214,413.967870 314.348560,413.129829 315.220992,412.297117 C 316.120081,411.438962 317.024571,410.586466 317.934237,409.739530 C 318.870873,408.867482 319.812996,408.001328 320.760378,407.140967 C 321.735041,406.255831 322.715270,405.376825 323.700837,404.503847 C 325.352956,403.040464 327.020074,401.594018 328.701215,400.164069"
       style="stroke:#000000;stroke-width:0.9;fill:none;stroke-linecap: round"
       id="path8079" />
    <path
       d="M 359.818507,415.149367 C 359.748702,417.355295 359.657256,419.560544 359.543216,421.764627 C 359.475186,423.079467 359.399114,424.393893 359.314779,425.707788 C 359.232805,426.984908 359.143022,428.261527 359.045211,429.537532 C 358.950217,430.776793 358.847649,432.015474 358.737289,433.253462 C 358.630201,434.454743 358.515776,435.655372 358.393795,436.855233 C 358.275540,438.018432 358.150185,439.180909 358.017510,440.342551 C 357.889018,441.467581 357.753660,442.591826 357.611221,443.715175 C 357.473418,444.801965 357.328987,445.887916 357.177713,446.972913 C 357.031527,448.021412 356.878951,449.069021 356.719771,450.115626 C 356.566132,451.125798 356.406342,452.135036 356.240180,453.143225 C 356.080010,454.115053 355.913921,455.085906 355.741722,456.055674 C 355.575966,456.989159 355.404550,457.921640 355.227179,458.852988 C 355.056701,459.748137 354.880723,460.642240 354.699326,461.535233 C 354.525264,462.392113 354.346213,463.247971 354.160936,464.102525 C 353.983467,464.921063 353.800284,465.738406 353.614776,466.555032 C 353.437430,467.335727 353.257958,468.115768 353.063607,468.892974 C 352.609090,470.710589 352.073201,472.512700 351.776189,474.360978 C 351.730383,474.646023 351.690258,474.932167 351.656721,475.219047 C 351.621749,475.518196 351.593940,475.818146 351.573913,476.118641 C 351.552641,476.437823 351.540149,476.757619 351.537243,477.077519 C 351.534091,477.424519 351.542218,477.771641 351.562480,478.118082 C 351.584960,478.502453 351.622377,478.885986 351.675626,479.267356 C 351.736034,479.700000 351.816818,480.129861 351.918774,480.554692 C 352.036606,481.045677 352.182717,481.529945 352.357335,482.003889 C 352.561114,482.556981 352.803717,483.096012 353.084264,483.614389 C 353.409732,484.215767 353.786268,484.789346 354.208426,485.328519 C 354.684720,485.936834 355.219085,486.501351 355.807362,486.999502 C 356.393468,487.495814 357.033088,487.926248 357.683749,488.336864 C 359.753109,489.642785 361.934141,490.748244 364.048594,491.969024 C 366.163046,493.189804 368.210918,494.525904 370.376560,495.665062 C 371.057494,496.023242 371.750071,496.361953 372.472942,496.621379 C 373.198492,496.881767 373.954561,497.062282 374.719524,497.170607 C 375.397540,497.266620 376.082543,497.305920 376.766084,497.287095 C 377.355286,497.270867 377.943402,497.211452 378.524283,497.111383 C 379.022040,497.025635 379.514483,496.910037 379.998605,496.766590 C 380.417498,496.642471 380.830160,496.497502 381.235045,496.333494 C 381.591945,496.188925 381.942803,496.029562 382.286919,495.856845 C 382.597076,495.701172 382.901757,495.534649 383.200691,495.358419 C 383.476280,495.195953 383.746985,495.025236 384.012769,494.847223 C 384.262991,494.679631 384.508851,494.505573 384.750436,494.325712 C 384.982113,494.153228 385.209858,493.975408 385.433812,493.793216 C 386.885961,492.611856 388.178691,491.246707 389.525533,489.944276 C 390.101438,489.387361 390.687237,488.841913 391.274666,488.297979 C 391.889130,487.729011 392.505379,487.161700 393.125519,486.598738 C 393.772946,486.011005 394.424615,485.428014 395.079664,484.848832 C 395.762321,484.245241 396.448647,483.645788 397.138630,483.050576 C 397.856516,482.431293 398.578359,481.816602 399.303903,481.206311 C 400.057648,480.572298 400.815386,479.943034 401.576929,479.318410 C 402.366965,478.670415 403.161096,478.027413 403.959112,477.389272 C 404.785908,476.728116 405.616876,476.072176 406.451810,475.421326 C 407.315808,474.747820 408.184053,474.079764 409.056339,473.417028 C 409.957968,472.731998 410.863915,472.052652 411.773972,471.378859 C 412.713647,470.683139 413.657704,469.993339 414.605937,469.309328 C 415.584056,468.603759 416.566618,467.904349 417.553415,467.210967 C 418.570363,466.496399 419.591809,465.788233 420.617544,465.086334 C 421.673691,464.363625 422.734384,463.647562 423.799415,462.938010 C 424.895114,462.208026 425.995404,461.484934 427.100074,460.768597 C 428.951846,459.567794 430.815925,458.385975 432.691412,457.222559"
       style="stroke:#000000;stroke-width:0.9;fill:none;stroke-linecap: round"
       id="path8081" />
    <path
       d="M 461.227706,476.678275 C 460.829905,478.849160 460.410805,481.016150 459.969537,483.178618 C 459.706300,484.468633 459.435173,485.757039 459.155954,487.043690 C 458.884550,488.294328 458.605500,489.543307 458.318603,490.790482 C 458.039968,492.001743 457.753930,493.211303 457.460290,494.419014 C 457.175357,495.590918 456.883265,496.761083 456.583816,497.929362 C 456.293517,499.061944 455.996303,500.192754 455.691976,501.321648 C 455.397242,502.414960 455.095836,503.506475 454.787562,504.596047 C 454.489320,505.650161 454.184650,506.702456 453.873355,507.752788 C 453.572531,508.767788 453.265521,509.780956 452.952130,510.792146 C 452.649649,511.768138 452.341224,512.742288 452.026656,513.714451 C 451.723432,514.651552 451.414499,515.586807 451.099688,516.520079 C 450.796654,517.418433 450.488174,518.314950 450.173973,519.209461 C 449.871985,520.069203 449.564713,520.927091 449.252248,521.783074 C 448.952419,522.604441 448.647809,523.424054 448.337236,524.241449 C 448.039752,525.024395 447.736798,525.805306 447.431649,526.585163 C 447.139928,527.330706 446.846201,528.075285 446.538185,528.814844 C 445.817843,530.544416 445.019348,532.246528 444.450182,534.029896 C 444.362404,534.304930 444.280080,534.581897 444.204160,534.860575 C 444.124993,535.151170 444.052789,535.443626 443.988200,535.737779 C 443.919593,536.050226 443.859577,536.364588 443.809025,536.680482 C 443.754191,537.023136 443.710492,537.367593 443.678893,537.713184 C 443.643834,538.096613 443.623671,538.481439 443.619485,538.866485 C 443.614736,539.303301 443.630550,539.740400 443.668050,540.175682 C 443.711388,540.678745 443.783691,541.179381 443.885721,541.674057 C 444.004790,542.251343 444.164344,542.820512 444.364498,543.374913 C 444.596700,544.018081 444.883543,544.641375 445.220626,545.237445 C 445.600935,545.909953 446.045195,546.547808 446.552656,547.128073 C 447.058244,547.706196 447.626567,548.227153 448.208762,548.730158 C 450.060371,550.329916 452.052283,551.748094 453.961171,553.270381 C 455.870059,554.792669 457.695923,556.419065 459.667593,557.868272 C 460.287538,558.323940 460.921897,558.762090 461.598029,559.126358 C 462.276666,559.491974 462.997386,559.783160 463.737660,560.004287 C 464.393793,560.200280 465.065288,560.341236 465.744001,560.424497 C 466.329040,560.496267 466.919443,560.525169 467.508750,560.512794 C 468.013727,560.502191 468.517900,560.461278 469.017994,560.391588 C 469.450707,560.331288 469.880366,560.249442 470.305174,560.147612 C 470.679634,560.057850 471.050325,559.952560 471.416339,559.833060 C 471.746235,559.725352 472.072331,559.606099 472.394193,559.476392 C 472.690917,559.356814 472.984043,559.228351 473.273389,559.091939 C 473.545795,558.963513 473.814851,558.828042 474.080545,558.686197 C 474.335342,558.550169 474.587046,558.408278 474.835652,558.261500 C 476.447655,557.309767 477.929411,556.152536 479.455327,555.065389 C 480.107804,554.600528 480.768354,554.148482 481.430291,553.698175 C 482.122693,553.227143 482.816612,552.758015 483.513731,552.293767 C 484.241524,551.809094 484.972805,551.329740 485.706860,550.854657 C 486.471852,550.359552 487.239857,549.869086 488.010845,549.383359 C 488.813012,548.877988 489.618408,548.377748 490.426807,547.882410 C 491.266628,547.367819 492.109690,546.858518 492.955823,546.354372 C 493.833613,545.831364 494.714708,545.313903 495.598921,544.801827 C 496.515023,544.271283 497.434472,543.746519 498.357085,543.227379 C 499.311813,542.690168 500.269930,542.158978 501.231249,541.633652 C 502.224906,541.090654 503.221985,540.553920 504.222302,540.023290 C 505.255172,539.475392 506.291495,538.934001 507.331083,538.398957 C 508.403437,537.847049 509.479266,537.301894 510.558384,536.763332 C 511.670475,536.208313 512.786059,535.660294 513.904950,535.119114 C 515.057015,534.561887 516.212585,534.011910 517.371473,533.469017 C 518.563733,532.910492 519.759505,532.359466 520.958601,531.815773 C 522.968660,530.904374 524.988060,530.013582 527.015998,529.142686"
       style="stroke:#000000;stroke-width:0.9;fill:none;stroke-linecap: round"
       id="path8083" />
    <path
       d="M 552.333841,552.634212 C 551.616929,554.721562 550.879538,556.801884 550.120899,558.874432 C 549.668335,560.110805 549.208210,561.344411 548.740344,562.575076 C 548.285574,563.771294 547.823490,564.964733 547.353915,566.155218 C 546.897863,567.311422 546.434744,568.464840 545.964384,569.615298 C 545.507970,570.731646 545.044737,571.845206 544.574509,572.955806 C 544.118650,574.032471 543.656217,575.106354 543.187037,576.177281 C 542.732644,577.214455 542.271923,578.248856 541.804700,579.280313 C 541.352682,580.278202 540.894578,581.273335 540.430216,582.265540 C 539.981474,583.224368 539.526888,584.180461 539.066288,585.133650 C 538.621721,586.053657 538.171552,586.970959 537.715603,587.885379 C 537.276098,588.766821 536.831224,589.645586 536.380831,590.521514 C 535.947290,591.364669 535.508636,592.205196 535.064625,593.042887 C 534.637872,593.848017 534.206170,594.650527 533.769617,595.450379 C 533.350719,596.217885 532.927355,596.982943 532.498424,597.744920 C 532.087571,598.474783 531.671611,599.201820 531.253639,599.927486 C 530.854058,600.621223 530.452638,601.313709 530.037837,601.999100 C 529.067762,603.601992 528.024499,605.166084 527.195892,606.844703 C 527.068103,607.103583 526.945419,607.365186 526.828812,607.629436 C 526.707218,607.904987 526.592233,608.183414 526.484523,608.464656 C 526.370116,608.763387 526.263917,609.065293 526.166848,609.370124 C 526.061556,609.700779 525.967006,610.034875 525.884252,610.371897 C 525.792438,610.745818 525.715144,611.123341 525.653617,611.503462 C 525.583817,611.934692 525.534309,612.369266 525.506514,612.805275 C 525.474391,613.309179 525.471270,613.814999 525.498433,614.319356 C 525.530132,614.907941 525.603074,615.494533 525.718363,616.072573 C 525.852112,616.743166 526.042854,617.402249 526.287333,618.041901 C 526.563162,618.763580 526.907392,619.460525 527.322702,620.109942 C 527.736478,620.756961 528.220809,621.356804 528.721531,621.940963 C 530.314028,623.798820 532.072324,625.498038 533.733006,627.287827 C 535.393689,629.077617 536.956757,630.957979 538.690412,632.684861 C 539.235519,633.227838 539.797490,633.755641 540.411779,634.216612 C 541.028344,634.679291 541.697615,635.074641 542.396663,635.403631 C 543.016257,635.695226 543.659243,635.934689 544.317966,636.118177 C 544.885774,636.276341 545.465275,636.392915 546.049845,636.468511 C 546.550762,636.533288 547.055401,636.567976 547.560296,636.573599 C 547.997163,636.578465 548.434222,636.561571 548.869462,636.524192 C 549.253118,636.491243 549.635361,636.442378 550.015098,636.378764 C 550.357362,636.321427 550.697589,636.252109 551.035188,636.171821 C 551.346421,636.097804 551.655419,636.014463 551.961865,635.922700 C 552.250369,635.836308 552.536611,635.742451 552.820478,635.641790 C 553.092703,635.545256 553.362743,635.442465 553.630449,635.334379 C 555.366296,634.633533 557.003978,633.710072 558.674881,632.862493 C 559.389354,632.500071 560.109901,632.151523 560.831559,631.804903 C 561.586432,631.442329 562.342520,631.081864 563.101045,630.726702 C 563.892946,630.355913 564.687503,629.990905 565.484167,629.630534 C 566.314406,629.254975 567.146933,628.884452 567.981703,628.519060 C 568.850233,628.138891 569.721190,627.764276 570.594386,627.394956 C 571.501523,627.011281 572.411076,626.633321 573.322897,626.260915 C 574.268834,625.874576 575.217211,625.494216 576.167869,625.119644 C 577.152813,624.731564 578.140204,624.349698 579.129886,623.973865 C 580.154018,623.584948 581.180603,623.202492 582.209481,622.826310 C 583.272969,622.437474 584.338908,622.055342 585.407138,621.679728 C 586.510132,621.291890 587.615570,620.911002 588.723291,620.536877 C 589.865925,620.150959 591.010990,619.772238 592.158323,619.400525 C 593.340715,619.017454 594.525516,618.641825 595.712568,618.273451 C 596.934816,617.894155 598.159449,617.522549 599.386308,617.158443 C 600.648495,616.783854 601.913037,616.417202 603.179773,616.058298 C 605.303219,615.456663 607.432830,614.876796 609.567917,614.317876"
       style="stroke:#000000;stroke-width:0.9;fill:none;stroke-linecap: round"
       id="path8085" />
    <path
       d="M 631.101751,641.320450 C 630.081743,643.277635 629.042531,645.224819 627.983469,647.161149 C 627.351688,648.316262 626.712842,649.467512 626.066781,650.614699 C 625.438803,651.729777 624.804008,652.841016 624.162245,653.948217 C 623.538963,655.023537 622.909109,656.095048 622.272536,657.162553 C 621.654836,658.198406 621.030809,659.230488 620.400308,660.258600 C 619.789071,661.255297 619.171750,662.248263 618.548196,663.237301 C 617.944297,664.195167 617.334552,665.149348 616.718816,666.099648 C 616.123119,667.019022 615.521815,667.934763 614.914759,668.846676 C 614.328124,669.727914 613.736116,670.605576 613.138595,671.479469 C 612.561874,672.322942 611.980016,673.162903 611.392873,673.999155 C 610.826905,674.805247 610.256026,675.607891 609.680114,676.406908 C 609.125749,677.176030 608.566720,677.941791 608.002817,678.703949 C 607.460832,679.436482 606.914344,680.165687 606.363456,680.891541 C 605.834845,681.588041 605.302183,682.281455 604.764477,682.970992 C 604.249432,683.631469 603.729759,684.288390 603.208301,684.943655 C 602.709786,685.570090 602.209641,686.195012 601.697320,686.810925 C 600.499181,688.251332 599.234455,689.642464 598.164918,691.178837 C 597.999971,691.415779 597.839668,691.656176 597.684979,691.900095 C 597.523675,692.154445 597.368476,692.412625 597.220053,692.674672 C 597.062399,692.953015 596.912390,693.235721 596.770972,693.522680 C 596.617575,693.833949 596.474287,694.150222 596.342227,694.471146 C 596.195708,694.827206 596.063011,695.188992 595.945516,695.555698 C 595.812225,695.971707 595.698500,696.394049 595.606031,696.821046 C 595.499164,697.314534 595.420689,697.814239 595.372378,698.317011 C 595.315999,698.903747 595.300699,699.494658 595.328548,700.083425 C 595.360857,700.766462 595.451238,701.446613 595.597650,702.115558 C 595.762838,702.870287 595.999349,703.610752 596.313229,704.314814 C 596.625951,705.016277 597.015470,705.681606 597.423536,706.333869 C 598.721347,708.408325 600.206749,710.350624 601.582128,712.367935 C 602.957507,714.385246 604.222864,716.477569 605.679778,718.443551 C 606.137869,719.061707 606.614899,719.667373 607.153622,720.214750 C 607.694342,720.764155 608.297214,721.254840 608.939421,721.684342 C 609.508634,722.065027 610.108749,722.397647 610.732767,722.677263 C 611.270660,722.918288 611.826314,723.119930 612.393087,723.281807 C 612.878755,723.420519 613.372588,723.530032 613.871006,723.610843 C 614.302268,723.680766 614.736964,723.729201 615.172913,723.757109 C 615.557195,723.781709 615.942452,723.790360 616.327428,723.784053 C 616.674415,723.778369 617.021174,723.760533 617.366968,723.731458 C 617.685756,723.704654 618.003724,723.668298 618.320424,723.623233 C 618.618582,723.580806 618.915615,723.530659 619.211315,723.473430 C 619.494886,723.418548 619.777231,723.357153 620.058056,723.290173 C 621.878971,722.855869 623.635996,722.186807 625.414562,721.597730 C 626.175071,721.345842 626.939519,721.108580 627.704778,720.873388 C 628.505257,720.627372 629.306625,720.383622 630.109613,720.145479 C 630.947931,719.896859 631.788016,719.654350 632.629492,719.416741 C 633.506432,719.169117 634.384884,718.926814 635.264790,718.689919 C 636.180279,718.443444 637.097342,718.202823 638.015830,717.967771 C 638.970018,717.723583 639.925745,717.485406 640.882886,717.253060 C 641.875838,717.012020 642.870313,716.777256 643.866179,716.548557 C 644.897962,716.311609 645.931240,716.081171 646.965882,715.857040 C 648.036541,715.625107 649.108661,715.399927 650.182115,715.181293 C 651.291678,714.955304 652.402665,714.736310 653.514946,714.524103 C 654.663425,714.304990 655.813284,714.093113 656.964393,713.888263 C 658.151784,713.676957 659.340504,713.473129 660.530424,713.276568 C 661.756703,713.074002 662.984256,712.879155 664.212953,712.691816 C 665.478080,712.498923 666.744420,712.313989 668.011843,712.136805 C 669.315762,711.954518 670.620827,711.780432 671.926906,711.614334 C 674.116304,711.335901 676.308553,711.079913 678.503096,710.845454"
       style="stroke:#000000;stroke-width:0.9;fill:none;stroke-linecap: round"
       id="path8087" />
    <path
       d="M 695.771890,740.755883 C 694.471572,742.539183 693.153755,744.309733 691.817926,746.066590 C 691.021041,747.114639 690.217746,748.157816 689.407921,749.195900 C 688.620763,750.204927 687.827436,751.209144 687.027822,752.208329 C 686.251233,753.178743 685.468714,754.144411 684.680147,755.105116 C 683.914961,756.037337 683.144080,756.964885 682.367389,757.887542 C 681.614429,758.782007 680.856009,759.671875 680.092011,760.556931 C 679.352094,761.414091 678.606946,762.266737 677.856453,763.114653 C 677.130384,763.934974 676.399312,764.750867 675.663122,765.562118 C 674.951698,766.346079 674.235494,767.125705 673.514400,767.900781 C 672.818407,768.648877 672.117858,769.392736 671.412636,770.132138 C 670.732847,770.844873 670.048717,771.553468 669.360150,772.257725 C 668.697345,772.935633 668.030429,773.609522 667.359231,774.279122 C 666.714121,774.922695 666.065055,775.562305 665.412136,776.197946 C 664.785622,776.807881 664.155561,777.414161 663.521090,778.015856 C 662.913359,778.592193 662.301582,779.164322 661.688285,779.734550 C 661.101974,780.279688 660.514275,780.823088 659.915879,781.355764 C 658.516441,782.601509 657.058503,783.788606 655.771927,785.148412 C 655.573509,785.358124 655.379166,785.571944 655.189851,785.790083 C 654.992440,786.017552 654.800495,786.249717 654.614673,786.486716 C 654.417295,786.738453 654.226826,786.995644 654.044219,787.258321 C 653.846143,787.543250 653.657317,787.834634 653.478901,788.132291 C 653.280951,788.462537 653.095814,788.800505 652.924978,789.145603 C 652.731172,789.537100 652.555770,789.937775 652.400694,790.346221 C 652.221470,790.818269 652.069394,791.300697 651.946688,791.790653 C 651.803491,792.362432 651.700291,792.944463 651.640078,793.530805 C 651.570224,794.211028 651.558224,794.897053 651.603300,795.580348 C 651.654157,796.351267 651.777666,797.118712 651.983105,797.861692 C 652.187786,798.601929 652.473793,799.317881 652.780086,800.023678 C 653.754220,802.268393 654.933546,804.410386 655.992899,806.610155 C 657.052252,808.809924 657.991631,811.067469 659.139258,813.228634 C 659.500101,813.908161 659.881533,814.578159 660.332657,815.199715 C 660.785453,815.823574 661.308459,816.398632 661.879479,816.919053 C 662.385596,817.380323 662.929434,817.798670 663.504807,818.168168 C 664.000769,818.486670 664.520164,818.768876 665.056481,819.013418 C 665.516050,819.222965 665.988045,819.404857 666.468851,819.559051 C 666.884876,819.692469 667.307497,819.805151 667.734418,819.897722 C 668.110741,819.979322 668.490406,820.045296 668.872023,820.096437 C 669.215981,820.142532 669.561525,820.176577 669.907790,820.199365 C 670.227013,820.220374 670.546848,820.231815 670.866727,820.234454 C 671.167878,820.236939 671.469068,820.231623 671.769994,820.219105 C 672.058578,820.207100 672.346920,820.188471 672.634591,820.164095 C 674.499897,820.006035 676.337016,819.606316 678.183515,819.288900 C 678.973071,819.153174 679.764343,819.032497 680.556108,818.913988 C 681.384314,818.790025 682.213060,818.668435 683.042572,818.552631 C 683.908583,818.431732 684.775428,818.317141 685.642919,818.207601 C 686.546972,818.093444 687.451725,817.984774 688.357110,817.881668 C 689.299110,817.774392 690.241793,817.673140 691.185054,817.577607 C 692.164980,817.478361 693.145530,817.385287 694.126610,817.298191 C 695.144396,817.207835 696.162754,817.123912 697.181583,817.046193 C 698.237157,816.965672 699.293239,816.891810 700.349730,816.824387 C 701.442998,816.754618 702.536705,816.691744 703.630755,816.635542 C 704.761607,816.577449 705.892824,816.526485 707.024310,816.482425 C 708.192619,816.436931 709.361214,816.398798 710.529997,816.367801 C 711.735619,816.335826 712.941441,816.311444 714.147366,816.294427 C 715.390139,816.276891 716.633022,816.267177 717.875917,816.265058 C 719.155663,816.262877 720.435422,816.268747 721.715097,816.282441 C 723.031621,816.296529 724.348055,816.318898 725.664303,816.349316 C 727.870745,816.400306 730.076662,816.473914 732.281638,816.569154"
       style="stroke:#000000;stroke-width:0.9;fill:none;stroke-linecap: round"
       id="path8089" />
    <path
       d="M 744.899635,848.719288 C 743.348053,850.288868 741.781068,851.843232 740.198314,853.381372 C 739.254125,854.298945 738.304325,855.210746 737.348827,856.116537 C 736.420073,856.996975 735.485937,857.871735 734.546333,858.740585 C 733.633785,859.584415 732.716081,860.422669 731.793136,861.255114 C 730.897556,862.062878 729.997041,862.865172 729.091510,863.661763 C 728.213647,864.434015 727.331069,865.200908 726.443695,865.962211 C 725.584289,866.699518 724.720383,867.431582 723.851897,868.158172 C 723.011675,868.861115 722.167166,869.558936 721.318288,870.251402 C 720.497966,870.920575 719.673565,871.584748 718.845006,872.243694 C 718.045288,872.879702 717.241698,873.510841 716.434150,874.136876 C 715.655727,874.740334 714.873627,875.339050 714.087786,875.932816 C 713.331347,876.504366 712.571443,877.071330 711.807942,877.633413 C 711.074118,878.173649 710.336972,878.709378 709.596609,879.240606 C 708.886187,879.750352 708.172802,880.255955 707.455739,880.756366 C 706.768898,881.235688 706.078682,881.710247 705.387247,882.182698 C 704.726236,882.634362 704.064111,883.084101 703.393008,883.521641 C 701.823531,884.544897 700.204950,885.501441 698.730076,886.654305 C 698.502618,886.832102 698.278577,887.014568 698.058865,887.202055 C 697.829756,887.397560 697.605352,887.598525 697.386283,887.805181 C 697.153591,888.024689 696.926916,888.250619 696.707199,888.483146 C 696.468869,888.735371 696.238723,888.995357 696.017937,889.263098 C 695.772977,889.560153 695.539537,889.866752 695.319174,890.182534 C 695.069183,890.540773 694.836023,890.910831 694.621803,891.291602 C 694.374225,891.731665 694.151946,892.186040 693.957587,892.652235 C 693.730769,893.196285 693.541975,893.756435 693.395045,894.327253 C 693.224589,894.989468 693.110477,895.666041 693.053209,896.348423 C 692.988598,897.118311 692.996346,897.895592 693.088756,898.660893 C 693.180824,899.423368 693.356929,900.173951 693.554607,900.917515 C 694.183303,903.282346 695.030210,905.576184 695.749873,907.909271 C 696.469535,910.242359 697.061952,912.614697 697.874656,914.922768 C 698.130191,915.648486 698.407504,916.367851 698.760952,917.049701 C 699.115709,917.734078 699.547165,918.380662 700.034243,918.980377 C 700.465958,919.511928 700.941370,920.006657 701.455246,920.457784 C 701.898199,920.846647 702.369731,921.203113 702.863611,921.524857 C 703.286816,921.800559 703.726430,922.050767 704.178884,922.274899 C 704.570377,922.468832 704.971484,922.643244 705.379839,922.798410 C 705.739798,922.935187 706.105389,923.057010 706.475121,923.164457 C 706.808367,923.261301 707.144978,923.346467 707.483979,923.420609 C 707.796505,923.488960 708.111063,923.547942 708.426976,923.598228 C 708.724393,923.645569 709.023011,923.685203 709.322442,923.717675 C 709.609592,923.748815 709.897490,923.773370 710.185581,923.792141 C 712.053611,923.913856 713.929786,923.792410 715.802969,923.753746 C 716.603935,923.737213 717.404355,923.735816 718.204940,923.736637 C 719.042371,923.737496 719.879983,923.740783 720.717490,923.749905 C 721.591846,923.759429 722.466089,923.775313 723.340217,923.796290 C 724.251186,923.818150 725.162031,923.845540 726.072671,923.878527 C 727.020137,923.912847 727.967382,923.953225 728.914347,923.999345 C 729.898119,924.047257 730.881589,924.101367 731.864692,924.161466 C 732.884578,924.223813 733.904069,924.292605 734.923102,924.367603 C 735.978888,924.445306 737.034182,924.529669 738.088922,924.620462 C 739.180378,924.714415 740.271240,924.815252 741.361447,924.922737 C 742.488326,925.033838 743.614505,925.152043 744.739919,925.277114 C 745.901960,925.406256 747.063186,925.542719 748.223535,925.686265 C 749.420456,925.834336 750.616444,925.989945 751.811437,926.152852 C 753.042943,926.320737 754.273391,926.496374 755.502720,926.679523 C 756.768497,926.868102 758.033087,927.064645 759.296428,927.268912 C 760.596148,927.479060 761.894545,927.697383 763.191558,927.923638 C 765.365756,928.302912 767.536064,928.704473 769.702217,929.127284"
       style="stroke:#000000;stroke-width:0.9;fill:none;stroke-linecap: round"
       id="path8091" />
    <path
       d="M 777.387554,962.798942 C 775.619367,964.119740 773.838219,965.423195 772.043894,966.708259 C 770.973494,967.474860 769.898406,968.234915 768.818579,968.988180 C 767.768976,969.720361 766.714897,970.446125 765.656292,971.165229 C 764.628170,971.863626 763.595781,972.555741 762.559075,973.241331 C 761.553107,973.906593 760.543074,974.565711 759.528931,975.218443 C 758.545775,975.851231 757.558756,976.478017 756.567826,977.098560 C 755.608129,977.699545 754.644764,978.294673 753.677686,978.883707 C 752.742080,979.453571 751.802999,980.017729 750.860396,980.575943 C 749.949501,981.115379 749.035318,981.649263 748.117802,982.177358 C 747.232225,982.687071 746.343543,983.191392 745.451709,983.690076 C 744.592040,984.170776 743.729441,984.646239 742.863881,985.116249 C 742.030706,985.568674 741.194788,986.016048 740.356041,986.458059 C 739.549895,986.882891 738.741136,987.302769 737.929866,987.717719 C 737.151405,988.115889 736.370632,988.509520 735.586996,988.897470 C 734.836387,989.269069 734.083150,989.635456 733.329024,989.999578 C 732.608078,990.347679 731.886319,990.693709 731.157499,991.026340 C 729.453044,991.804248 727.709975,992.508871 726.079749,993.429040 C 725.828332,993.570951 725.579599,993.717987 725.334397,993.870634 C 725.078708,994.029808 724.826859,994.195082 724.579436,994.366780 C 724.316627,994.549155 724.058811,994.738778 723.806892,994.935960 C 723.533631,995.149847 723.267307,995.372628 723.009082,995.604472 C 722.722584,995.861699 722.446055,996.130082 722.181089,996.409494 C 721.880497,996.726472 721.594787,997.057646 721.326209,997.402236 C 721.015808,997.800485 720.728291,998.216655 720.466620,998.648676 C 720.161249,999.152844 719.891078,999.678599 719.660712,1000.221143 C 719.393462,1000.850556 719.179786,1001.502565 719.021455,1002.168790 C 718.842820,1002.920450 718.734633,1003.690204 718.711948,1004.460729 C 718.689347,1005.228411 718.751617,1005.996857 718.836265,1006.761579 C 719.105479,1009.193698 719.601048,1011.588141 719.964944,1014.002430 C 720.328839,1016.416719 720.561062,1018.850855 721.020687,1021.254275 C 721.165206,1022.009972 721.332206,1022.762633 721.580081,1023.489547 C 721.828875,1024.219154 722.159144,1024.922821 722.551398,1025.588433 C 722.899069,1026.178390 723.295435,1026.738451 723.736334,1027.261128 C 724.116383,1027.711666 724.529520,1028.134429 724.969930,1028.526189 C 725.347317,1028.861887 725.744729,1029.174821 726.158725,1029.463884 C 726.516941,1029.714001 726.887573,1029.946246 727.268241,1030.160542 C 727.603793,1030.349440 727.947144,1030.524390 728.296732,1030.685743 C 728.611823,1030.831173 728.931980,1030.965557 729.256145,1031.089396 C 729.554993,1031.203564 729.857247,1031.308770 730.162137,1031.405578 C 730.449176,1031.496718 730.738552,1031.580416 731.029798,1031.657153 C 731.309100,1031.730743 731.590122,1031.797933 731.872198,1031.859432 C 733.701223,1032.258202 735.574543,1032.417742 737.432567,1032.658694 C 738.227052,1032.761723 739.018740,1032.879638 739.810260,1032.999771 C 740.638210,1033.125434 741.465976,1033.253523 742.292769,1033.387367 C 743.155941,1033.527101 744.018051,1033.673107 744.879290,1033.824131 C 745.776826,1033.981520 746.673415,1034.144359 747.568967,1034.312700 C 748.500736,1034.487850 749.431383,1034.668956 750.360897,1034.855699 C 751.326540,1035.049700 752.290961,1035.249784 753.254127,1035.455735 C 754.253329,1035.669392 755.251180,1035.889363 756.247654,1036.115403 C 757.280066,1036.349594 758.311000,1036.590299 759.340428,1036.837278 C 760.405690,1037.092855 761.469339,1037.355150 762.531349,1037.623922 C 763.629083,1037.901735 764.725066,1038.186467 765.819270,1038.477876 C 766.949083,1038.778768 768.077001,1039.086779 769.202995,1039.401663 C 770.364479,1039.726472 771.523917,1040.058596 772.681282,1040.397788 C 773.874011,1040.747344 775.064539,1041.104408 776.252840,1041.468733 C 777.476374,1041.843860 778.697546,1042.226686 779.916332,1042.616962 C 781.170214,1043.018476 782.421570,1043.427877 783.670374,1043.844914 C 785.763761,1044.543999 787.849978,1045.264543 789.928921,1046.005480"
       style="stroke:#000000;stroke-width:0.9;fill:none;stroke-linecap: round"
       id="path8093" />
    <path
       d="M 792.509918,1080.446493 C 790.564627,1081.489005 788.609102,1082.512435 786.643290,1083.515715 C 785.470590,1084.114219 784.294228,1084.705552 783.114194,1085.289463 C 781.967189,1085.857031 780.816713,1086.417587 779.662755,1086.970882 C 778.542026,1087.508245 777.418013,1088.038760 776.290704,1088.562179 C 775.196820,1089.070079 774.099832,1089.571298 772.999731,1090.065590 C 771.933245,1090.544778 770.863832,1091.017456 769.791483,1091.483377 C 768.752932,1091.934614 767.711628,1092.379513 766.667560,1092.817832 C 765.657471,1093.241886 764.644795,1093.659781 763.629522,1094.071272 C 762.648403,1094.468921 761.664859,1094.860590 760.678882,1095.246039 C 759.727228,1095.618070 758.773307,1095.984307 757.817109,1096.344500 C 756.895397,1096.691704 755.971569,1097.033292 755.045625,1097.369048 C 754.154325,1097.692242 753.261066,1098.010031 752.365808,1098.322097 C 751.505349,1098.622034 750.643043,1098.916684 749.778990,1099.206086 C 748.949880,1099.483784 748.119159,1099.756650 747.286455,1100.023472 C 746.488845,1100.279049 745.689415,1100.529079 744.889441,1100.776738 C 744.124667,1101.013499 743.359396,1101.248092 742.589140,1101.468383 C 740.787781,1101.983566 738.959162,1102.420528 737.210000,1103.087447 C 736.940241,1103.190301 736.672371,1103.298624 736.407157,1103.413020 C 736.130601,1103.532308 735.856931,1103.658200 735.586682,1103.791103 C 735.299626,1103.932272 735.016428,1104.081351 734.737934,1104.238784 C 734.435847,1104.409555 734.139294,1104.590154 733.849398,1104.780922 C 733.527763,1104.992576 733.214322,1105.216747 732.910671,1105.453546 C 732.566194,1105.722184 732.234316,1106.007075 731.917379,1106.307787 C 731.551090,1106.655325 731.204757,1107.023995 730.881619,1107.412191 C 730.504516,1107.865214 730.159003,1108.344830 729.850349,1108.846980 C 729.492275,1109.429531 729.183808,1110.042412 728.927950,1110.677597 C 728.639280,1111.394237 728.417577,1112.139270 728.280304,1112.897808 C 728.143538,1113.653546 728.090582,1114.422691 728.060308,1115.191487 C 727.964027,1117.636566 728.097188,1120.078126 728.097188,1122.519685 C 728.097188,1124.961244 727.964027,1127.402804 728.060308,1129.847883 C 728.090582,1130.616679 728.143538,1131.385824 728.280304,1132.141562 C 728.417577,1132.900101 728.639280,1133.645133 728.927950,1134.361773 C 729.183808,1134.996958 729.492275,1135.609839 729.850349,1136.192390 C 730.159003,1136.694540 730.504516,1137.174156 730.881619,1137.627180 C 731.204757,1138.015375 731.551090,1138.384045 731.917379,1138.731583 C 732.234316,1139.032295 732.566194,1139.317186 732.910671,1139.585824 C 733.214322,1139.822623 733.527763,1140.046794 733.849398,1140.258448 C 734.139294,1140.449216 734.435847,1140.629815 734.737934,1140.800586 C 735.016428,1140.958019 735.299626,1141.107098 735.586682,1141.248267 C 735.856931,1141.381170 736.130601,1141.507062 736.407157,1141.626350 C 736.672371,1141.740746 736.940241,1141.849069 737.210000,1141.951923 C 738.959162,1142.618842 740.787781,1143.055804 742.589140,1143.570987 C 743.359396,1143.791278 744.124667,1144.025871 744.889441,1144.262633 C 745.689415,1144.510291 746.488845,1144.760321 747.286455,1145.015898 C 748.119159,1145.282720 748.949880,1145.555586 749.778990,1145.833284 C 750.643043,1146.122686 751.505349,1146.417336 752.365808,1146.717273 C 753.261066,1147.029339 754.154325,1147.347128 755.045625,1147.670322 C 755.971569,1148.006078 756.895397,1148.347666 757.817109,1148.694870 C 758.773307,1149.055064 759.727228,1149.421300 760.678882,1149.793331 C 761.664859,1150.178780 762.648403,1150.570449 763.629522,1150.968098 C 764.644795,1151.379589 765.657471,1151.797484 766.667560,1152.221538 C 767.711628,1152.659857 768.752932,1153.104756 769.791483,1153.555993 C 770.863832,1154.021915 771.933245,1154.494592 772.999731,1154.973780 C 774.099832,1155.468072 775.196820,1155.969291 776.290704,1156.477191 C 777.418013,1157.000610 778.542026,1157.531125 779.662755,1158.068488 C 780.816713,1158.621783 781.967189,1159.182339 783.114194,1159.749907 C 784.294228,1160.333818 785.470590,1160.925151 786.643290,1161.523655 C 788.609102,1162.526935 790.564627,1163.550365 792.509918,1164.592877"
       style="stroke:#000000;stroke-width:0.9;fill:none;stroke-linecap: round"
       id="path8095" />
    <path
       d="M 789.928921,1199.033890 C 787.849978,1199.774827 785.763761,1200.495371 783.670374,1201.194456 C 782.421570,1201.611493 781.170214,1202.020894 779.916332,1202.422408 C 778.697546,1202.812684 777.476374,1203.195510 776.252840,1203.570637 C 775.064539,1203.934962 773.874011,1204.292026 772.681282,1204.641582 C 771.523917,1204.980774 770.364479,1205.312898 769.202995,1205.637707 C 768.077001,1205.952591 766.949083,1206.260602 765.819270,1206.561494 C 764.725066,1206.852903 763.629083,1207.137635 762.531349,1207.415448 C 761.469339,1207.684220 760.405690,1207.946515 759.340428,1208.202092 C 758.311000,1208.449071 757.280066,1208.689776 756.247654,1208.923967 C 755.251180,1209.150007 754.253329,1209.369978 753.254127,1209.583635 C 752.290961,1209.789586 751.326540,1209.989670 750.360897,1210.183671 C 749.431383,1210.370414 748.500736,1210.551520 747.568967,1210.726670 C 746.673415,1210.895011 745.776826,1211.057850 744.879290,1211.215239 C 744.018051,1211.366263 743.155941,1211.512270 742.292769,1211.652003 C 741.465976,1211.785847 740.638210,1211.913937 739.810260,1212.039599 C 739.018740,1212.159732 738.227052,1212.277647 737.432567,1212.380677 C 735.574543,1212.621628 733.701223,1212.781168 731.872198,1213.179938 C 731.590122,1213.241438 731.309100,1213.308627 731.029798,1213.382217 C 730.738552,1213.458954 730.449176,1213.542652 730.162137,1213.633792 C 729.857247,1213.730600 729.554993,1213.835806 729.256145,1213.949974 C 728.931980,1214.073813 728.611823,1214.208197 728.296732,1214.353627 C 727.947144,1214.514980 727.603793,1214.689930 727.268241,1214.878828 C 726.887573,1215.093124 726.516941,1215.325369 726.158725,1215.575486 C 725.744729,1215.864549 725.347317,1216.177483 724.969930,1216.513181 C 724.529520,1216.904941 724.116383,1217.327704 723.736334,1217.778243 C 723.295435,1218.300919 722.899069,1218.860980 722.551398,1219.450937 C 722.159144,1220.116549 721.828875,1220.820217 721.580081,1221.549823 C 721.332206,1222.276737 721.165206,1223.029398 721.020687,1223.785095 C 720.561062,1226.188515 720.328839,1228.622651 719.964944,1231.036940 C 719.601048,1233.451229 719.105479,1235.845672 718.836265,1238.277791 C 718.751617,1239.042513 718.689347,1239.810960 718.711948,1240.578641 C 718.734633,1241.349166 718.842820,1242.118921 719.021455,1242.870580 C 719.179786,1243.536805 719.393462,1244.188814 719.660712,1244.818227 C 719.891078,1245.360771 720.161249,1245.886526 720.466620,1246.390694 C 720.728291,1246.822715 721.015808,1247.238885 721.326209,1247.637134 C 721.594787,1247.981725 721.880497,1248.312898 722.181089,1248.629876 C 722.446055,1248.909288 722.722584,1249.177671 723.009082,1249.434898 C 723.267307,1249.666742 723.533631,1249.889523 723.806892,1250.103410 C 724.058811,1250.300592 724.316627,1250.490215 724.579436,1250.672590 C 724.826859,1250.844288 725.078708,1251.009562 725.334397,1251.168736 C 725.579599,1251.321383 725.828332,1251.468420 726.079749,1251.610330 C 727.709975,1252.530499 729.453044,1253.235122 731.157499,1254.013030 C 731.886319,1254.345661 732.608078,1254.691692 733.329024,1255.039792 C 734.083150,1255.403914 734.836387,1255.770301 735.586996,1256.141901 C 736.370632,1256.529850 737.151405,1256.923481 737.929866,1257.321651 C 738.741136,1257.736601 739.549895,1258.156479 740.356041,1258.581311 C 741.194788,1259.023323 742.030706,1259.470696 742.863881,1259.923121 C 743.729441,1260.393132 744.592040,1260.868594 745.451709,1261.349294 C 746.343543,1261.847978 747.232225,1262.352299 748.117802,1262.862012 C 749.035318,1263.390107 749.949501,1263.923992 750.860396,1264.463427 C 751.802999,1265.021641 752.742080,1265.585799 753.677686,1266.155663 C 754.644764,1266.744697 755.608129,1267.339826 756.567826,1267.940810 C 757.558756,1268.561353 758.545775,1269.188139 759.528931,1269.820927 C 760.543074,1270.473659 761.553107,1271.132777 762.559075,1271.798039 C 763.595781,1272.483629 764.628170,1273.175744 765.656292,1273.874141 C 766.714897,1274.593245 767.768976,1275.319009 768.818579,1276.051190 C 769.898406,1276.804455 770.973494,1277.564510 772.043894,1278.331112 C 773.838219,1279.616175 775.619367,1280.919630 777.387554,1282.240428"
       style="stroke:#000000;stroke-width:0.9;fill:none;stroke-linecap: round"
       id="path8097" />
    <path
       d="M 769.702217,1315.912087 C 767.536064,1316.334897 765.365756,1316.736458 763.191558,1317.115732 C 761.894545,1317.341987 760.596148,1317.560310 759.296428,1317.770458 C 758.033087,1317.974725 756.768497,1318.171268 755.502720,1318.359847 C 754.273391,1318.542996 753.042943,1318.718633 751.811437,1318.886518 C 750.616444,1319.049425 749.420456,1319.205034 748.223535,1319.353105 C 747.063186,1319.496651 745.901960,1319.633114 744.739919,1319.762256 C 743.614505,1319.887327 742.488326,1320.005532 741.361447,1320.116633 C 740.271240,1320.224118 739.180378,1320.324955 738.088922,1320.418908 C 737.034182,1320.509701 735.978888,1320.594064 734.923102,1320.671767 C 733.904069,1320.746765 732.884578,1320.815557 731.864692,1320.877904 C 730.881589,1320.938003 729.898119,1320.992113 728.914347,1321.040025 C 727.967382,1321.086145 727.020137,1321.126523 726.072671,1321.160843 C 725.162031,1321.193830 724.251186,1321.221220 723.340217,1321.243080 C 722.466089,1321.264057 721.591846,1321.279941 720.717490,1321.289465 C 719.879983,1321.298588 719.042371,1321.301874 718.204940,1321.302733 C 717.404355,1321.303554 716.603935,1321.302157 715.802969,1321.285624 C 713.929786,1321.246960 712.053611,1321.125514 710.185581,1321.247229 C 709.897490,1321.266000 709.609592,1321.290555 709.322442,1321.321695 C 709.023011,1321.354167 708.724393,1321.393801 708.426976,1321.441142 C 708.111063,1321.491428 707.796505,1321.550410 707.483979,1321.618761 C 707.144978,1321.692903 706.808367,1321.778069 706.475121,1321.874913 C 706.105389,1321.982360 705.739798,1322.104183 705.379839,1322.240960 C 704.971484,1322.396126 704.570377,1322.570538 704.178884,1322.764471 C 703.726430,1322.988603 703.286816,1323.238811 702.863611,1323.514513 C 702.369731,1323.836257 701.898199,1324.192723 701.455246,1324.581587 C 700.941370,1325.032713 700.465958,1325.527443 700.034243,1326.058993 C 699.547165,1326.658708 699.115709,1327.305292 698.760952,1327.989669 C 698.407504,1328.671519 698.130191,1329.390884 697.874656,1330.116602 C 697.061952,1332.424673 696.469535,1334.797011 695.749873,1337.130099 C 695.030210,1339.463186 694.183303,1341.757024 693.554607,1344.121855 C 693.356929,1344.865419 693.180824,1345.616002 693.088756,1346.378477 C 692.996346,1347.143778 692.988598,1347.921059 693.053209,1348.690947 C 693.110477,1349.373329 693.224589,1350.049902 693.395045,1350.712117 C 693.541975,1351.282936 693.730769,1351.843085 693.957587,1352.387135 C 694.151946,1352.853331 694.374225,1353.307705 694.621803,1353.747768 C 694.836023,1354.128540 695.069183,1354.498597 695.319174,1354.856836 C 695.539537,1355.172618 695.772977,1355.479217 696.017937,1355.776272 C 696.238723,1356.044013 696.468869,1356.303999 696.707199,1356.556224 C 696.926916,1356.788751 697.153591,1357.014681 697.386283,1357.234189 C 697.605352,1357.440845 697.829756,1357.641810 698.058865,1357.837315 C 698.278577,1358.024802 698.502618,1358.207268 698.730076,1358.385065 C 700.204950,1359.537929 701.823531,1360.494473 703.393008,1361.517729 C 704.064111,1361.955269 704.726236,1362.405008 705.387247,1362.856672 C 706.078682,1363.329123 706.768898,1363.803682 707.455739,1364.283004 C 708.172802,1364.783415 708.886187,1365.289018 709.596609,1365.798764 C 710.336972,1366.329992 711.074118,1366.865721 711.807942,1367.405957 C 712.571443,1367.968041 713.331347,1368.535004 714.087786,1369.106555 C 714.873627,1369.700320 715.655727,1370.299036 716.434150,1370.902494 C 717.241698,1371.528530 718.045288,1372.159668 718.845006,1372.795676 C 719.673565,1373.454622 720.497966,1374.118795 721.318288,1374.787968 C 722.167166,1375.480434 723.011675,1376.178255 723.851897,1376.881198 C 724.720383,1377.607788 725.584289,1378.339852 726.443695,1379.077160 C 727.331069,1379.838462 728.213647,1380.605355 729.091510,1381.377607 C 729.997041,1382.174199 730.897556,1382.976492 731.793136,1383.784256 C 732.716081,1384.616701 733.633785,1385.454955 734.546333,1386.298786 C 735.485937,1387.167635 736.420073,1388.042395 737.348827,1388.922833 C 738.304325,1389.828624 739.254125,1390.740425 740.198314,1391.657998 C 741.781068,1393.196138 743.348053,1394.750502 744.899635,1396.320082"
       style="stroke:#000000;stroke-width:0.9;fill:none;stroke-linecap: round"
       id="path8099" />
    <path
       d="M 732.281638,1428.470216 C 730.076662,1428.565456 727.870745,1428.639064 725.664303,1428.690054 C 724.348055,1428.720472 723.031621,1428.742841 721.715097,1428.756929 C 720.435422,1428.770623 719.155663,1428.776493 717.875917,1428.774312 C 716.633022,1428.772193 715.390139,1428.762479 714.147366,1428.744943 C 712.941441,1428.727926 711.735619,1428.703544 710.529997,1428.671569 C 709.361214,1428.640572 708.192619,1428.602439 707.024310,1428.556945 C 705.892824,1428.512885 704.761607,1428.461921 703.630755,1428.403828 C 702.536705,1428.347626 701.442998,1428.284752 700.349730,1428.214983 C 699.293239,1428.147561 698.237157,1428.073698 697.181583,1427.993177 C 696.162754,1427.915458 695.144396,1427.831535 694.126610,1427.741179 C 693.145530,1427.654083 692.164980,1427.561009 691.185054,1427.461763 C 690.241793,1427.366230 689.299110,1427.264978 688.357110,1427.157702 C 687.451725,1427.054596 686.546972,1426.945926 685.642919,1426.831769 C 684.775428,1426.722229 683.908583,1426.607638 683.042572,1426.486739 C 682.213060,1426.370935 681.384314,1426.249346 680.556108,1426.125382 C 679.764343,1426.006874 678.973071,1425.886196 678.183515,1425.750470 C 676.337016,1425.433054 674.499897,1425.033335 672.634591,1424.875275 C 672.346920,1424.850899 672.058578,1424.832270 671.769994,1424.820265 C 671.469068,1424.807747 671.167878,1424.802431 670.866727,1424.804916 C 670.546848,1424.807556 670.227013,1424.818996 669.907790,1424.840005 C 669.561525,1424.862793 669.215981,1424.896838 668.872023,1424.942933 C 668.490406,1424.994074 668.110741,1425.060048 667.734418,1425.141648 C 667.307497,1425.234219 666.884876,1425.346901 666.468851,1425.480319 C 665.988045,1425.634513 665.516050,1425.816405 665.056481,1426.025952 C 664.520164,1426.270494 664.000769,1426.552700 663.504807,1426.871202 C 662.929434,1427.240700 662.385596,1427.659047 661.879479,1428.120317 C 661.308459,1428.640738 660.785453,1429.215796 660.332657,1429.839655 C 659.881533,1430.461211 659.500101,1431.131209 659.139258,1431.810736 C 657.991631,1433.971901 657.052252,1436.229446 655.992899,1438.429215 C 654.933546,1440.628984 653.754220,1442.770977 652.780086,1445.015692 C 652.473793,1445.721489 652.187786,1446.437441 651.983105,1447.177678 C 651.777666,1447.920658 651.654157,1448.688103 651.603300,1449.459022 C 651.558224,1450.142317 651.570224,1450.828342 651.640078,1451.508565 C 651.700291,1452.094907 651.803491,1452.676938 651.946688,1453.248717 C 652.069394,1453.738673 652.221470,1454.221101 652.400694,1454.693149 C 652.555770,1455.101595 652.731172,1455.502270 652.924978,1455.893767 C 653.095814,1456.238866 653.280951,1456.576833 653.478901,1456.907079 C 653.657317,1457.204736 653.846143,1457.496120 654.044219,1457.781049 C 654.226826,1458.043726 654.417295,1458.300917 654.614673,1458.552654 C 654.800495,1458.789653 654.992440,1459.021818 655.189851,1459.249287 C 655.379166,1459.467426 655.573509,1459.681246 655.771927,1459.890958 C 657.058503,1461.250764 658.516441,1462.437861 659.915879,1463.683606 C 660.514275,1464.216282 661.101974,1464.759682 661.688285,1465.304820 C 662.301582,1465.875048 662.913359,1466.447177 663.521090,1467.023514 C 664.155561,1467.625209 664.785622,1468.231489 665.412136,1468.841424 C 666.065055,1469.477065 666.714121,1470.116675 667.359231,1470.760248 C 668.030429,1471.429848 668.697345,1472.103737 669.360150,1472.781645 C 670.048717,1473.485902 670.732847,1474.194497 671.412636,1474.907232 C 672.117858,1475.646634 672.818407,1476.390493 673.514400,1477.138589 C 674.235494,1477.913665 674.951698,1478.693291 675.663122,1479.477252 C 676.399312,1480.288503 677.130384,1481.104396 677.856453,1481.924717 C 678.606946,1482.772633 679.352094,1483.625279 680.092011,1484.482439 C 680.856009,1485.367495 681.614429,1486.257363 682.367389,1487.151828 C 683.144080,1488.074485 683.914961,1489.002033 684.680147,1489.934254 C 685.468714,1490.894959 686.251233,1491.860628 687.027822,1492.831041 C 687.827436,1493.830227 688.620763,1494.834443 689.407921,1495.843471 C 690.217746,1496.881554 691.021041,1497.924731 691.817926,1498.972780 C 693.153755,1500.729637 694.471572,1502.500187 695.771890,1504.283488"
       style="stroke:#000000;stroke-width:0.9;fill:none;stroke-linecap: round"
       id="path8101" />
    <path
       d="M 678.503096,1534.193916 C 676.308553,1533.959457 674.116304,1533.703469 671.926906,1533.425036 C 670.620827,1533.258938 669.315762,1533.084852 668.011843,1532.902565 C 666.744420,1532.725381 665.478080,1532.540448 664.212953,1532.347554 C 662.984256,1532.160215 661.756703,1531.965368 660.530424,1531.762802 C 659.340504,1531.566241 658.151784,1531.362413 656.964393,1531.151107 C 655.813284,1530.946257 654.663425,1530.734380 653.514946,1530.515267 C 652.402665,1530.303060 651.291678,1530.084066 650.182115,1529.858077 C 649.108661,1529.639443 648.036541,1529.414263 646.965882,1529.182330 C 645.931240,1528.958199 644.897962,1528.727761 643.866179,1528.490813 C 642.870313,1528.262114 641.875838,1528.027350 640.882886,1527.786310 C 639.925745,1527.553964 638.970018,1527.315787 638.015830,1527.071599 C 637.097342,1526.836547 636.180279,1526.595926 635.264790,1526.349451 C 634.384884,1526.112556 633.506432,1525.870253 632.629492,1525.622629 C 631.788016,1525.385020 630.947931,1525.142511 630.109613,1524.893891 C 629.306625,1524.655749 628.505257,1524.411998 627.704778,1524.165982 C 626.939519,1523.930791 626.175071,1523.693528 625.414562,1523.441640 C 624.359884,1523.092322 623.312780,1522.714876 622.255437,1522.374936"
       style="stroke:#000000;stroke-width:0.9;fill:none;stroke-linecap: round"
       id="path8103" />
    <path
       d="M -35.157086,383.703043 C -34.922812,382.617387 -34.726137,381.521846 -34.501317,380.433809 C -34.339204,379.649245 -34.162455,378.868583 -33.983508,378.088253 C -33.796324,377.272009 -33.606734,376.456129 -33.411478,375.641650 C -33.207630,374.791335 -32.997607,373.942546 -32.782644,373.095002 C -32.558622,372.211737 -32.329237,371.329824 -32.094441,370.449356 C -31.850150,369.533281 -31.600003,368.618771 -31.344320,367.705811 C -31.078698,366.757366 -30.807103,365.810594 -30.529750,364.865512 C -30.242020,363.885071 -29.948094,362.906449 -29.648220,361.929653 C -29.337532,360.917629 -29.020458,359.907566 -28.697240,358.899473 C -28.362771,357.856289 -28.021722,356.815215 -27.674338,355.776260 C -27.315268,354.702356 -26.949429,353.630716 -26.577066,352.561349 C -26.192583,351.457180 -25.801145,350.355435 -25.402995,349.256120 C -24.992296,348.122157 -24.574457,346.990781 -24.149723,345.862000 C -23.712012,344.698728 -23.266978,343.538212 -22.814870,342.380460 C -22.349357,341.188381 -21.876343,339.999232 -21.396078,338.813019 C -20.901984,337.592649 -20.400214,336.375386 -19.891020,335.161239 C -19.037451,333.125949 -18.163018,331.099411 -17.268794,329.081651"
       style="stroke:#000000;stroke-width:0.9;fill:none;stroke-linecap: round"
       id="path8105" />
    <path
       d="M 36.923171,1288.542145 622.255437,1522.374936"
       style="stroke:#000000;stroke-width:0.9;fill:none;stroke-linecap: round"
       id="path8107" />
    <path
       d="M -35.157086,383.703043 -118.800827,1000.810436"
       style="stroke:#000000;stroke-width:0.9;fill:none;stroke-linecap: round"
       id="path8109" />
    <path
       d="M 217.126630,1242.161900 521.518106,1379.008109"
       style="stroke:#000000;stroke-width:0.9;fill:none;stroke-linecap: round"
       id="path8111" />
    <path
       d="M 528.133437,893.503235 227.763535,1066.057123"
       style="stroke:#000000;stroke-width:0.9;fill:none;stroke-linecap: round"
       id="path8113" />
    <path
       d="M 38.633562,542.627545 4.950117,874.661400"
       style="stroke:#000000;stroke-width:0.9;fill:none;stroke-linecap: round"
       id="path8115" />
    <path
       d="M 162.779781,953.501959 462.400782,779.650937"
       style="stroke:#000000;stroke-width:0.9;fill:none;stroke-linecap: round"
       id="path8117" />
    <path
       d="M 17.268794,329.081651 A 793.625935,793.625935 -0.000000 0 0 -17.268794,329.081651"
       style="stroke:#000000;stroke-width:0.9;fill:none;stroke-linecap: round"
       id="path8119" />
    <path
       d="M 135.331718,340.517479 A 793.625935,793.625935 -0.000000 0 0 101.179887,335.369919"
       style="stroke:#000000;stroke-width:0.9;fill:none;stroke-linecap: round"
       id="path8121" />
    <path
       d="M 250.371556,369.421943 A 793.625935,793.625935 -0.000000 0 0 217.368376,359.241811"
       style="stroke:#000000;stroke-width:0.9;fill:none;stroke-linecap: round"
       id="path8123" />
    <path
       d="M 359.818507,415.149367 A 793.625935,793.625935 -0.000000 0 0 328.701215,400.164069"
       style="stroke:#000000;stroke-width:0.9;fill:none;stroke-linecap: round"
       id="path8125" />
    <path
       d="M 461.227706,476.678275 A 793.625935,793.625935 -0.000000 0 0 432.691412,457.222559"
       style="stroke:#000000;stroke-width:0.9;fill:none;stroke-linecap: round"
       id="path8127" />
    <path
       d="M 552.333841,552.634212 A 793.625935,793.625935 -0.000000 0 0 527.015998,529.142686"
       style="stroke:#000000;stroke-width:0.9;fill:none;stroke-linecap: round"
       id="path8129" />
    <path
       d="M 631.101751,641.320450 A 793.625935,793.625935 -0.000000 0 0 609.567917,614.317876"
       style="stroke:#000000;stroke-width:0.9;fill:none;stroke-linecap: round"
       id="path8131" />
    <path
       d="M 695.771890,740.755883 A 793.625935,793.625935 -0.000000 0 0 678.503096,710.845454"
       style="stroke:#000000;stroke-width:0.9;fill:none;stroke-linecap: round"
       id="path8133" />
    <path
       d="M 744.899635,848.719288 A 793.625935,793.625935 -0.000000 0 0 732.281638,816.569154"
       style="stroke:#000000;stroke-width:0.9;fill:none;stroke-linecap: round"
       id="path8135" />
    <path
       d="M 777.387554,962.798942 A 793.625935,793.625935 -0.000000 0 0 769.702217,929.127284"
       style="stroke:#000000;stroke-width:0.9;fill:none;stroke-linecap: round"
       id="path8137" />
    <path
       d="M 792.509918,1080.446493 A 793.625935,793.625935 -0.000000 0 0 789.928921,1046.005480"
       style="stroke:#000000;stroke-width:0.9;fill:none;stroke-linecap: round"
       id="path8139" />
    <path
       d="M 789.928921,1199.033890 A 793.625935,793.625935 -0.000000 0 0 792.509918,1164.592877"
       style="stroke:#000000;stroke-width:0.9;fill:none;stroke-linecap: round"
       id="path8141" />
    <path
       d="M 769.702217,1315.912087 A 793.625935,793.625935 -0.000000 0 0 777.387554,1282.240428"
       style="stroke:#000000;stroke-width:0.9;fill:none;stroke-linecap: round"
       id="path8143" />
    <path
       d="M 732.281638,1428.470216 A 793.625935,793.625935 -0.000000 0 0 744.899635,1396.320082"
       style="stroke:#000000;stroke-width:0.9;fill:none;stroke-linecap: round"
       id="path8145" />
    <path
       d="M 678.503096,1534.193916 A 793.625935,793.625935 -0.000000 0 0 695.771890,1504.283488"
       style="stroke:#000000;stroke-width:0.9;fill:none;stroke-linecap: round"
       id="path8147" />
    <path
       d="M -118.800827,1000.810436 A 170.078740,170.078740 -0.000000 0 0 36.923171,1288.542145"
       style="stroke:#000000;stroke-width:0.9;fill:none;stroke-linecap: round"
       id="path8149" />
    <path
       d="M 227.763535,1066.057123 A 37.795276,37.795276 -0.000000 0 0 208.968309,1102.443948"
       style="stroke:#000000;stroke-width:0.9;fill:none;stroke-linecap: round"
       id="path8151" />
    <path
       d="M 197.132979,1194.695706 A 209.930440,209.930440 -0.000000 0 0 208.968309,1102.443948"
       style="stroke:#000000;stroke-width:0.9;fill:none;stroke-linecap: round"
       id="path8153" />
    <path
       d="M 197.132979,1194.695706 A 37.795276,37.795276 -0.000000 0 0 217.126630,1242.161900"
       style="stroke:#000000;stroke-width:0.9;fill:none;stroke-linecap: round"
       id="path8155" />
    <path
       d="M 521.518106,1379.008109 A 37.795276,37.795276 -0.000000 0 0 571.943703,1358.976441"
       style="stroke:#000000;stroke-width:0.9;fill:none;stroke-linecap: round"
       id="path8157" />
    <path
       d="M 571.943703,1358.976441 A 618.895304,618.895304 -0.000000 0 0 582.535062,913.511794"
       style="stroke:#000000;stroke-width:0.9;fill:none;stroke-linecap: round"
       id="path8159" />
    <path
       d="M 582.535062,913.511794 A 37.795276,37.795276 -0.000000 0 0 528.133437,893.503235"
       style="stroke:#000000;stroke-width:0.9;fill:none;stroke-linecap: round"
       id="path8161" />
    <path
       d="M 462.400782,779.650937 A 37.795276,37.795276 -0.000000 0 0 472.273674,722.533468"
       style="stroke:#000000;stroke-width:0.9;fill:none;stroke-linecap: round"
       id="path8163" />
    <path
       d="M 472.273674,722.533468 A 618.895304,618.895304 -0.000000 0 0 81.194294,508.973531"
       style="stroke:#000000;stroke-width:0.9;fill:none;stroke-linecap: round"
       id="path8165" />
    <path
       d="M 81.194294,508.973531 A 37.795276,37.795276 -0.000000 0 0 38.633562,542.627545"
       style="stroke:#000000;stroke-width:0.9;fill:none;stroke-linecap: round"
       id="path8167" />
    <path
       d="M 4.950117,874.661400 A 37.795276,37.795276 -0.000000 0 0 36.060222,915.709507"
       style="stroke:#000000;stroke-width:0.9;fill:none;stroke-linecap: round"
       id="path8169" />
    <path
       d="M 121.870253,951.585689 A 209.930440,209.930440 -0.000000 0 0 36.060222,915.709507"
       style="stroke:#000000;stroke-width:0.9;fill:none;stroke-linecap: round"
       id="path8171" />
    <path
       d="M 121.870253,951.585689 A 37.795276,37.795276 -0.000000 0 0 162.779781,953.501959"
       style="stroke:#000000;stroke-width:0.9;fill:none;stroke-linecap: round"
       id="path8173" />
  </g>
</svg>
