<?xml version="1.0" encoding="UTF-8" standalone="no"?>
<svg
   xmlns:dc="http://purl.org/dc/elements/1.1/"
   xmlns:cc="http://creativecommons.org/ns#"
   xmlns:rdf="http://www.w3.org/1999/02/22-rdf-syntax-ns#"
   xmlns:svg="http://www.w3.org/2000/svg"
   xmlns="http://www.w3.org/2000/svg"
   xmlns:sodipodi="http://sodipodi.sourceforge.net/DTD/sodipodi-0.dtd"
   xmlns:inkscape="http://www.inkscape.org/namespaces/inkscape"
   width="793.700787402"
   height="1122.51968504"
   version="1.1"
   id="svg1895"
   sodipodi:docname="Rack1.svg"
   inkscape:version="0.92.2 (5c3e80d, 2017-08-06)">
  <metadata
     id="metadata1899">
    <rdf:RDF>
      <cc:Work
         rdf:about="">
        <dc:format>image/svg+xml</dc:format>
        <dc:type
           rdf:resource="http://purl.org/dc/dcmitype/StillImage" />
        <dc:title></dc:title>
      </cc:Work>
    </rdf:RDF>
  </metadata>
  <sodipodi:namedview
     pagecolor="#ffffff"
     bordercolor="#666666"
     borderopacity="1"
     objecttolerance="10"
     gridtolerance="10"
     guidetolerance="10"
     inkscape:pageopacity="0"
     inkscape:pageshadow="2"
     inkscape:window-width="1600"
     inkscape:window-height="837"
     id="namedview1897"
     showgrid="false"
     inkscape:measure-start="756.274,-1983.44"
     inkscape:measure-end="237.822,-1698.05"
     inkscape:zoom="0.21024131"
     inkscape:cx="-271.28842"
     inkscape:cy="-407.95928"
     inkscape:window-x="-8"
     inkscape:window-y="-8"
     inkscape:window-maximized="1"
     inkscape:current-layer="g1893" />
  <desc
     id="desc1490">D:\SourceControl\GitRepos.Hackspace\Cad.Reciprocating-Model\Solidworks\V2\Svg\Rack1.DXF - scale = 1.000000, origin = (0.000000, 0.000000), method = manual</desc>
  <defs
     id="defs1505">
    <marker
       id="DistanceX"
       orient="auto"
       refX="0.0"
       refY="0.0"
       style="overflow:visible">
      <path
         d="M 3,-3 L -3,3 M 0,-5 L  0,5"
         style="stroke:#000000; stroke-width:0.5"
         id="path1492" />
    </marker>
    <pattern
       height="8"
       id="Hatch"
       patternUnits="userSpaceOnUse"
       width="8"
       x="0"
       y="0">
      <path
         d="M8 4 l-4,4"
         linecap="square"
         stroke="#000000"
         stroke-width="0.25"
         id="path1495" />
      <path
         d="M6 2 l-4,4"
         linecap="square"
         stroke="#000000"
         stroke-width="0.25"
         id="path1497" />
      <path
         d="M4 0 l-4,4"
         linecap="square"
         stroke="#000000"
         stroke-width="0.25"
         id="path1499" />
    </pattern>
    <symbol
       id="*Model_Space" />
    <symbol
       id="*Paper_Space" />
    <symbol
       id="*Paper_Space0" />
  </defs>
  <g
     inkscape:groupmode="layer"
     inkscape:label="0"
     id="g1893">
    <path
       d="M 365.199478,2762.881590 306.856830,2741.646603"
       style="stroke:#000000;stroke-width:0.9;fill:none;stroke-linecap: round"
       id="path1509" />
    <path
       d="M 413.056558,2838.472142 365.199478,2762.881590"
       style="stroke:#000000;stroke-width:0.9;fill:none;stroke-linecap: round"
       id="path1511" />
    <path
       d="M 299.670731,2838.472142 413.056558,2838.472142"
       style="stroke:#000000;stroke-width:0.9;fill:none;stroke-linecap: round"
       id="path1513" />
    <path
       d="M 299.670731,3298.312924 299.670731,2838.472142"
       style="stroke:#000000;stroke-width:0.9;fill:none;stroke-linecap: round"
       id="path1515" />
    <path
       d="M 36.404859,3298.312924 299.670731,3298.312924"
       style="stroke:#000000;stroke-width:0.9;fill:none;stroke-linecap: round"
       id="path1517" />
    <path
       d="M 36.404859,2838.472142 36.404859,3298.312924"
       style="stroke:#000000;stroke-width:0.9;fill:none;stroke-linecap: round"
       id="path1519" />
    <path
       d="M -76.980967,2838.472142 36.404859,2838.472142"
       style="stroke:#000000;stroke-width:0.9;fill:none;stroke-linecap: round"
       id="path1521" />
    <path
       d="M -29.123888,2762.881590 -76.980967,2838.472142"
       style="stroke:#000000;stroke-width:0.9;fill:none;stroke-linecap: round"
       id="path1523" />
    <path
       d="M -29.123888,2762.881590 29.218760,2741.646603"
       style="stroke:#000000;stroke-width:0.9;fill:none;stroke-linecap: round"
       id="path1525" />
    <path
       d="M 36.404859,2731.383790 36.404859,2715.994315"
       style="stroke:#000000;stroke-width:0.9;fill:none;stroke-linecap: round"
       id="path1527" />
    <path
       d="M 29.218760,2705.731502 -29.123888,2684.496515"
       style="stroke:#000000;stroke-width:0.9;fill:none;stroke-linecap: round"
       id="path1529" />
    <path
       d="M -29.123888,2648.512350 29.218760,2627.277363"
       style="stroke:#000000;stroke-width:0.9;fill:none;stroke-linecap: round"
       id="path1531" />
    <path
       d="M 36.404859,2617.014549 36.404859,2601.625075"
       style="stroke:#000000;stroke-width:0.9;fill:none;stroke-linecap: round"
       id="path1533" />
    <path
       d="M 29.218760,2591.362261 -29.123888,2570.127274"
       style="stroke:#000000;stroke-width:0.9;fill:none;stroke-linecap: round"
       id="path1535" />
    <path
       d="M -29.123888,2534.143109 29.218760,2512.908122"
       style="stroke:#000000;stroke-width:0.9;fill:none;stroke-linecap: round"
       id="path1537" />
    <path
       d="M 36.404859,2502.645309 36.404859,2487.255834"
       style="stroke:#000000;stroke-width:0.9;fill:none;stroke-linecap: round"
       id="path1539" />
    <path
       d="M 29.218760,2476.993021 -29.123888,2455.758034"
       style="stroke:#000000;stroke-width:0.9;fill:none;stroke-linecap: round"
       id="path1541" />
    <path
       d="M -29.123888,2419.773869 29.218760,2398.538882"
       style="stroke:#000000;stroke-width:0.9;fill:none;stroke-linecap: round"
       id="path1543" />
    <path
       d="M 36.404859,2388.276068 36.404859,2372.886594"
       style="stroke:#000000;stroke-width:0.9;fill:none;stroke-linecap: round"
       id="path1545" />
    <path
       d="M 29.218760,2362.623780 -29.123888,2341.388793"
       style="stroke:#000000;stroke-width:0.9;fill:none;stroke-linecap: round"
       id="path1547" />
    <path
       d="M -29.123888,2305.404628 29.218760,2284.169641"
       style="stroke:#000000;stroke-width:0.9;fill:none;stroke-linecap: round"
       id="path1549" />
    <path
       d="M 36.404859,2273.906828 36.404859,2258.517353"
       style="stroke:#000000;stroke-width:0.9;fill:none;stroke-linecap: round"
       id="path1551" />
    <path
       d="M 29.218760,2248.254540 -29.123888,2227.019553"
       style="stroke:#000000;stroke-width:0.9;fill:none;stroke-linecap: round"
       id="path1553" />
    <path
       d="M -29.123888,2191.035388 29.218760,2169.800401"
       style="stroke:#000000;stroke-width:0.9;fill:none;stroke-linecap: round"
       id="path1555" />
    <path
       d="M 36.404859,2159.537587 36.404859,2144.148112"
       style="stroke:#000000;stroke-width:0.9;fill:none;stroke-linecap: round"
       id="path1557" />
    <path
       d="M 29.218760,2133.885299 -29.123888,2112.650312"
       style="stroke:#000000;stroke-width:0.9;fill:none;stroke-linecap: round"
       id="path1559" />
    <path
       d="M -29.123888,2076.666147 29.218760,2055.431160"
       style="stroke:#000000;stroke-width:0.9;fill:none;stroke-linecap: round"
       id="path1561" />
    <path
       d="M 36.404859,2045.168347 36.404859,2029.778872"
       style="stroke:#000000;stroke-width:0.9;fill:none;stroke-linecap: round"
       id="path1563" />
    <path
       d="M 29.218760,2019.516059 -29.123888,1998.281071"
       style="stroke:#000000;stroke-width:0.9;fill:none;stroke-linecap: round"
       id="path1565" />
    <path
       d="M -29.123888,1962.296907 29.218760,1941.061920"
       style="stroke:#000000;stroke-width:0.9;fill:none;stroke-linecap: round"
       id="path1567" />
    <path
       d="M 36.404859,1930.799106 36.404859,1915.409631"
       style="stroke:#000000;stroke-width:0.9;fill:none;stroke-linecap: round"
       id="path1569" />
    <path
       d="M 29.218760,1905.146818 -29.123888,1883.911831"
       style="stroke:#000000;stroke-width:0.9;fill:none;stroke-linecap: round"
       id="path1571" />
    <path
       d="M -29.123888,1847.927666 29.218760,1826.692679"
       style="stroke:#000000;stroke-width:0.9;fill:none;stroke-linecap: round"
       id="path1573" />
    <path
       d="M 36.404859,1816.429866 36.404859,1801.040391"
       style="stroke:#000000;stroke-width:0.9;fill:none;stroke-linecap: round"
       id="path1575" />
    <path
       d="M 29.218760,1790.777578 -29.123888,1769.542590"
       style="stroke:#000000;stroke-width:0.9;fill:none;stroke-linecap: round"
       id="path1577" />
    <path
       d="M -29.123888,1733.558426 29.218760,1712.323438"
       style="stroke:#000000;stroke-width:0.9;fill:none;stroke-linecap: round"
       id="path1579" />
    <path
       d="M 36.404859,1702.060625 36.404859,1686.671150"
       style="stroke:#000000;stroke-width:0.9;fill:none;stroke-linecap: round"
       id="path1581" />
    <path
       d="M 29.218760,1676.408337 -29.123888,1655.173350"
       style="stroke:#000000;stroke-width:0.9;fill:none;stroke-linecap: round"
       id="path1583" />
    <path
       d="M -29.123888,1619.189185 29.218760,1597.954198"
       style="stroke:#000000;stroke-width:0.9;fill:none;stroke-linecap: round"
       id="path1585" />
    <path
       d="M 36.404859,1587.691385 36.404859,1572.301910"
       style="stroke:#000000;stroke-width:0.9;fill:none;stroke-linecap: round"
       id="path1587" />
    <path
       d="M 29.218760,1562.039096 -29.123888,1540.804109"
       style="stroke:#000000;stroke-width:0.9;fill:none;stroke-linecap: round"
       id="path1589" />
    <path
       d="M -29.123888,1504.819945 29.218760,1483.584957"
       style="stroke:#000000;stroke-width:0.9;fill:none;stroke-linecap: round"
       id="path1591" />
    <path
       d="M 36.404859,1473.322144 36.404859,1457.932669"
       style="stroke:#000000;stroke-width:0.9;fill:none;stroke-linecap: round"
       id="path1593" />
    <path
       d="M 29.218760,1447.669856 -29.123888,1426.434869"
       style="stroke:#000000;stroke-width:0.9;fill:none;stroke-linecap: round"
       id="path1595" />
    <path
       d="M -29.123888,1390.450704 29.218760,1369.215717"
       style="stroke:#000000;stroke-width:0.9;fill:none;stroke-linecap: round"
       id="path1597" />
    <path
       d="M 36.404859,1358.952904 36.404859,1343.563429"
       style="stroke:#000000;stroke-width:0.9;fill:none;stroke-linecap: round"
       id="path1599" />
    <path
       d="M 29.218760,1333.300615 -29.123888,1312.065628"
       style="stroke:#000000;stroke-width:0.9;fill:none;stroke-linecap: round"
       id="path1601" />
    <path
       d="M -29.123888,1276.081463 29.218760,1254.846476"
       style="stroke:#000000;stroke-width:0.9;fill:none;stroke-linecap: round"
       id="path1603" />
    <path
       d="M 36.404859,1244.583663 36.404859,1229.194188"
       style="stroke:#000000;stroke-width:0.9;fill:none;stroke-linecap: round"
       id="path1605" />
    <path
       d="M 29.218760,1218.931375 -29.123888,1197.696388"
       style="stroke:#000000;stroke-width:0.9;fill:none;stroke-linecap: round"
       id="path1607" />
    <path
       d="M -29.123888,1161.712223 29.218760,1140.477236"
       style="stroke:#000000;stroke-width:0.9;fill:none;stroke-linecap: round"
       id="path1609" />
    <path
       d="M 36.404859,1130.214422 36.404859,1114.824948"
       style="stroke:#000000;stroke-width:0.9;fill:none;stroke-linecap: round"
       id="path1611" />
    <path
       d="M 29.218760,1104.562134 -29.123888,1083.327147"
       style="stroke:#000000;stroke-width:0.9;fill:none;stroke-linecap: round"
       id="path1613" />
    <path
       d="M -76.980967,1007.736596 -29.123888,1083.327147"
       style="stroke:#000000;stroke-width:0.9;fill:none;stroke-linecap: round"
       id="path1615" />
    <path
       d="M 36.404859,1007.736596 -76.980967,1007.736596"
       style="stroke:#000000;stroke-width:0.9;fill:none;stroke-linecap: round"
       id="path1617" />
    <path
       d="M 36.404859,547.895814 36.404859,1007.736596"
       style="stroke:#000000;stroke-width:0.9;fill:none;stroke-linecap: round"
       id="path1619" />
    <path
       d="M 299.670731,547.895814 36.404859,547.895814"
       style="stroke:#000000;stroke-width:0.9;fill:none;stroke-linecap: round"
       id="path1621" />
    <path
       d="M 299.670731,1007.736596 299.670731,547.895814"
       style="stroke:#000000;stroke-width:0.9;fill:none;stroke-linecap: round"
       id="path1623" />
    <path
       d="M 413.056558,1007.736596 299.670731,1007.736596"
       style="stroke:#000000;stroke-width:0.9;fill:none;stroke-linecap: round"
       id="path1625" />
    <path
       d="M 365.199478,1083.327147 413.056558,1007.736596"
       style="stroke:#000000;stroke-width:0.9;fill:none;stroke-linecap: round"
       id="path1627" />
    <path
       d="M 306.856830,1104.562134 365.199478,1083.327147"
       style="stroke:#000000;stroke-width:0.9;fill:none;stroke-linecap: round"
       id="path1629" />
    <path
       d="M 299.670731,1130.214422 299.670731,1114.824948"
       style="stroke:#000000;stroke-width:0.9;fill:none;stroke-linecap: round"
       id="path1631" />
    <path
       d="M 365.199478,1161.712223 306.856830,1140.477236"
       style="stroke:#000000;stroke-width:0.9;fill:none;stroke-linecap: round"
       id="path1633" />
    <path
       d="M 306.856830,1218.931375 365.199478,1197.696388"
       style="stroke:#000000;stroke-width:0.9;fill:none;stroke-linecap: round"
       id="path1635" />
    <path
       d="M 299.670731,1244.583663 299.670731,1229.194188"
       style="stroke:#000000;stroke-width:0.9;fill:none;stroke-linecap: round"
       id="path1637" />
    <path
       d="M 365.199478,1276.081463 306.856830,1254.846476"
       style="stroke:#000000;stroke-width:0.9;fill:none;stroke-linecap: round"
       id="path1639" />
    <path
       d="M 306.856830,1333.300615 365.199478,1312.065628"
       style="stroke:#000000;stroke-width:0.9;fill:none;stroke-linecap: round"
       id="path1641" />
    <path
       d="M 299.670731,1358.952904 299.670731,1343.563429"
       style="stroke:#000000;stroke-width:0.9;fill:none;stroke-linecap: round"
       id="path1643" />
    <path
       d="M 365.199478,1390.450704 306.856830,1369.215717"
       style="stroke:#000000;stroke-width:0.9;fill:none;stroke-linecap: round"
       id="path1645" />
    <path
       d="M 306.856830,1447.669856 365.199478,1426.434869"
       style="stroke:#000000;stroke-width:0.9;fill:none;stroke-linecap: round"
       id="path1647" />
    <path
       d="M 299.670731,1473.322144 299.670731,1457.932669"
       style="stroke:#000000;stroke-width:0.9;fill:none;stroke-linecap: round"
       id="path1649" />
    <path
       d="M 365.199478,1504.819945 306.856830,1483.584957"
       style="stroke:#000000;stroke-width:0.9;fill:none;stroke-linecap: round"
       id="path1651" />
    <path
       d="M 306.856830,1562.039096 365.199478,1540.804109"
       style="stroke:#000000;stroke-width:0.9;fill:none;stroke-linecap: round"
       id="path1653" />
    <path
       d="M 299.670731,1587.691385 299.670731,1572.301910"
       style="stroke:#000000;stroke-width:0.9;fill:none;stroke-linecap: round"
       id="path1655" />
    <path
       d="M 365.199478,1619.189185 306.856830,1597.954198"
       style="stroke:#000000;stroke-width:0.9;fill:none;stroke-linecap: round"
       id="path1657" />
    <path
       d="M 306.856830,1676.408337 365.199478,1655.173350"
       style="stroke:#000000;stroke-width:0.9;fill:none;stroke-linecap: round"
       id="path1659" />
    <path
       d="M 299.670731,1702.060625 299.670731,1686.671150"
       style="stroke:#000000;stroke-width:0.9;fill:none;stroke-linecap: round"
       id="path1661" />
    <path
       d="M 365.199478,1733.558426 306.856830,1712.323438"
       style="stroke:#000000;stroke-width:0.9;fill:none;stroke-linecap: round"
       id="path1663" />
    <path
       d="M 306.856830,1790.777578 365.199478,1769.542590"
       style="stroke:#000000;stroke-width:0.9;fill:none;stroke-linecap: round"
       id="path1665" />
    <path
       d="M 299.670731,1816.429866 299.670731,1801.040391"
       style="stroke:#000000;stroke-width:0.9;fill:none;stroke-linecap: round"
       id="path1667" />
    <path
       d="M 365.199478,1847.927666 306.856830,1826.692679"
       style="stroke:#000000;stroke-width:0.9;fill:none;stroke-linecap: round"
       id="path1669" />
    <path
       d="M 306.856830,1905.146818 365.199478,1883.911831"
       style="stroke:#000000;stroke-width:0.9;fill:none;stroke-linecap: round"
       id="path1671" />
    <path
       d="M 299.670731,1930.799106 299.670731,1915.409631"
       style="stroke:#000000;stroke-width:0.9;fill:none;stroke-linecap: round"
       id="path1673" />
    <path
       d="M 365.199478,1962.296907 306.856830,1941.061920"
       style="stroke:#000000;stroke-width:0.9;fill:none;stroke-linecap: round"
       id="path1675" />
    <path
       d="M 306.856830,2019.516059 365.199478,1998.281071"
       style="stroke:#000000;stroke-width:0.9;fill:none;stroke-linecap: round"
       id="path1677" />
    <path
       d="M 299.670731,2045.168347 299.670731,2029.778872"
       style="stroke:#000000;stroke-width:0.9;fill:none;stroke-linecap: round"
       id="path1679" />
    <path
       d="M 365.199478,2076.666147 306.856830,2055.431160"
       style="stroke:#000000;stroke-width:0.9;fill:none;stroke-linecap: round"
       id="path1681" />
    <path
       d="M 306.856830,2133.885299 365.199478,2112.650312"
       style="stroke:#000000;stroke-width:0.9;fill:none;stroke-linecap: round"
       id="path1683" />
    <path
       d="M 299.670731,2159.537587 299.670731,2144.148112"
       style="stroke:#000000;stroke-width:0.9;fill:none;stroke-linecap: round"
       id="path1685" />
    <path
       d="M 365.199478,2191.035388 306.856830,2169.800401"
       style="stroke:#000000;stroke-width:0.9;fill:none;stroke-linecap: round"
       id="path1687" />
    <path
       d="M 306.856830,2248.254540 365.199478,2227.019553"
       style="stroke:#000000;stroke-width:0.9;fill:none;stroke-linecap: round"
       id="path1689" />
    <path
       d="M 299.670731,2273.906828 299.670731,2258.517353"
       style="stroke:#000000;stroke-width:0.9;fill:none;stroke-linecap: round"
       id="path1691" />
    <path
       d="M 365.199478,2305.404628 306.856830,2284.169641"
       style="stroke:#000000;stroke-width:0.9;fill:none;stroke-linecap: round"
       id="path1693" />
    <path
       d="M 299.670731,2388.276068 299.670731,2372.886594"
       style="stroke:#000000;stroke-width:0.9;fill:none;stroke-linecap: round"
       id="path1695" />
    <path
       d="M 365.199478,2419.773869 306.856830,2398.538882"
       style="stroke:#000000;stroke-width:0.9;fill:none;stroke-linecap: round"
       id="path1697" />
    <path
       d="M 306.856830,2476.993021 365.199478,2455.758034"
       style="stroke:#000000;stroke-width:0.9;fill:none;stroke-linecap: round"
       id="path1699" />
    <path
       d="M 299.670731,2502.645309 299.670731,2487.255834"
       style="stroke:#000000;stroke-width:0.9;fill:none;stroke-linecap: round"
       id="path1701" />
    <path
       d="M 365.199478,2534.143109 306.856830,2512.908122"
       style="stroke:#000000;stroke-width:0.9;fill:none;stroke-linecap: round"
       id="path1703" />
    <path
       d="M 306.856830,2591.362261 365.199478,2570.127274"
       style="stroke:#000000;stroke-width:0.9;fill:none;stroke-linecap: round"
       id="path1705" />
    <path
       d="M 299.670731,2617.014549 299.670731,2601.625075"
       style="stroke:#000000;stroke-width:0.9;fill:none;stroke-linecap: round"
       id="path1707" />
    <path
       d="M 365.199478,2648.512350 306.856830,2627.277363"
       style="stroke:#000000;stroke-width:0.9;fill:none;stroke-linecap: round"
       id="path1709" />
    <path
       d="M 306.856830,2705.731502 365.199478,2684.496515"
       style="stroke:#000000;stroke-width:0.9;fill:none;stroke-linecap: round"
       id="path1711" />
    <path
       d="M 299.670731,2731.383790 299.670731,2715.994315"
       style="stroke:#000000;stroke-width:0.9;fill:none;stroke-linecap: round"
       id="path1713" />
    <path
       d="M 306.856830,2362.623780 365.199478,2341.388793"
       style="stroke:#000000;stroke-width:0.9;fill:none;stroke-linecap: round"
       id="path1715" />
    <path
       d="M -29.123888,2648.512350 -29.123888,2684.496515"
       style="stroke:#000000;stroke-width:0.9;fill:none;stroke-linecap: round"
       id="path1717" />
    <path
       d="M -29.123888,2534.143109 -29.123888,2570.127274"
       style="stroke:#000000;stroke-width:0.9;fill:none;stroke-linecap: round"
       id="path1719" />
    <path
       d="M -29.123888,2419.773869 -29.123888,2455.758034"
       style="stroke:#000000;stroke-width:0.9;fill:none;stroke-linecap: round"
       id="path1721" />
    <path
       d="M -29.123888,2305.404628 -29.123888,2341.388793"
       style="stroke:#000000;stroke-width:0.9;fill:none;stroke-linecap: round"
       id="path1723" />
    <path
       d="M -29.123888,2191.035388 -29.123888,2227.019553"
       style="stroke:#000000;stroke-width:0.9;fill:none;stroke-linecap: round"
       id="path1725" />
    <path
       d="M -29.123888,2076.666147 -29.123888,2112.650312"
       style="stroke:#000000;stroke-width:0.9;fill:none;stroke-linecap: round"
       id="path1727" />
    <path
       d="M -29.123888,1962.296907 -29.123888,1998.281071"
       style="stroke:#000000;stroke-width:0.9;fill:none;stroke-linecap: round"
       id="path1729" />
    <path
       d="M -29.123888,1847.927666 -29.123888,1883.911831"
       style="stroke:#000000;stroke-width:0.9;fill:none;stroke-linecap: round"
       id="path1731" />
    <path
       d="M -29.123888,1733.558426 -29.123888,1769.542590"
       style="stroke:#000000;stroke-width:0.9;fill:none;stroke-linecap: round"
       id="path1733" />
    <path
       d="M -29.123888,1619.189185 -29.123888,1655.173350"
       style="stroke:#000000;stroke-width:0.9;fill:none;stroke-linecap: round"
       id="path1735" />
    <path
       d="M -29.123888,1504.819945 -29.123888,1540.804109"
       style="stroke:#000000;stroke-width:0.9;fill:none;stroke-linecap: round"
       id="path1737" />
    <path
       d="M -29.123888,1390.450704 -29.123888,1426.434869"
       style="stroke:#000000;stroke-width:0.9;fill:none;stroke-linecap: round"
       id="path1739" />
    <path
       d="M -29.123888,1276.081463 -29.123888,1312.065628"
       style="stroke:#000000;stroke-width:0.9;fill:none;stroke-linecap: round"
       id="path1741" />
    <path
       d="M -29.123888,1161.712223 -29.123888,1197.696388"
       style="stroke:#000000;stroke-width:0.9;fill:none;stroke-linecap: round"
       id="path1743" />
    <path
       d="M 365.199478,2648.512350 365.199478,2684.496515"
       style="stroke:#000000;stroke-width:0.9;fill:none;stroke-linecap: round"
       id="path1745" />
    <path
       d="M 365.199478,2534.143109 365.199478,2570.127274"
       style="stroke:#000000;stroke-width:0.9;fill:none;stroke-linecap: round"
       id="path1747" />
    <path
       d="M 365.199478,2419.773869 365.199478,2455.758034"
       style="stroke:#000000;stroke-width:0.9;fill:none;stroke-linecap: round"
       id="path1749" />
    <path
       d="M 365.199478,2305.404628 365.199478,2341.388793"
       style="stroke:#000000;stroke-width:0.9;fill:none;stroke-linecap: round"
       id="path1751" />
    <path
       d="M 365.199478,2191.035388 365.199478,2227.019553"
       style="stroke:#000000;stroke-width:0.9;fill:none;stroke-linecap: round"
       id="path1753" />
    <path
       d="M 365.199478,2076.666147 365.199478,2112.650312"
       style="stroke:#000000;stroke-width:0.9;fill:none;stroke-linecap: round"
       id="path1755" />
    <path
       d="M 365.199478,1962.296907 365.199478,1998.281071"
       style="stroke:#000000;stroke-width:0.9;fill:none;stroke-linecap: round"
       id="path1757" />
    <path
       d="M 365.199478,1847.927666 365.199478,1883.911831"
       style="stroke:#000000;stroke-width:0.9;fill:none;stroke-linecap: round"
       id="path1759" />
    <path
       d="M 365.199478,1733.558426 365.199478,1769.542590"
       style="stroke:#000000;stroke-width:0.9;fill:none;stroke-linecap: round"
       id="path1761" />
    <path
       d="M 365.199478,1619.189185 365.199478,1655.173350"
       style="stroke:#000000;stroke-width:0.9;fill:none;stroke-linecap: round"
       id="path1763" />
    <path
       d="M 365.199478,1504.819945 365.199478,1540.804109"
       style="stroke:#000000;stroke-width:0.9;fill:none;stroke-linecap: round"
       id="path1765" />
    <path
       d="M 365.199478,1390.450704 365.199478,1426.434869"
       style="stroke:#000000;stroke-width:0.9;fill:none;stroke-linecap: round"
       id="path1767" />
    <path
       d="M 365.199478,1276.081463 365.199478,1312.065628"
       style="stroke:#000000;stroke-width:0.9;fill:none;stroke-linecap: round"
       id="path1769" />
    <path
       d="M 365.199478,1161.712223 365.199478,1197.696388"
       style="stroke:#000000;stroke-width:0.9;fill:none;stroke-linecap: round"
       id="path1771" />
    <path
       d="M 29.218760,2741.646603 A 10.921458,10.921458 -0.000000 0 0 36.404859,2731.383790"
       style="stroke:#000000;stroke-width:0.9;fill:none;stroke-linecap: round"
       id="path1773" />
    <path
       d="M 36.404859,2715.994315 A 10.921458,10.921458 -0.000000 0 0 29.218760,2705.731502"
       style="stroke:#000000;stroke-width:0.9;fill:none;stroke-linecap: round"
       id="path1775" />
    <path
       d="M 29.218760,2627.277363 A 10.921458,10.921458 -0.000000 0 0 36.404859,2617.014549"
       style="stroke:#000000;stroke-width:0.9;fill:none;stroke-linecap: round"
       id="path1777" />
    <path
       d="M 36.404859,2601.625075 A 10.921458,10.921458 -0.000000 0 0 29.218760,2591.362261"
       style="stroke:#000000;stroke-width:0.9;fill:none;stroke-linecap: round"
       id="path1779" />
    <path
       d="M 29.218760,2512.908122 A 10.921458,10.921458 -0.000000 0 0 36.404859,2502.645309"
       style="stroke:#000000;stroke-width:0.9;fill:none;stroke-linecap: round"
       id="path1781" />
    <path
       d="M 36.404859,2487.255834 A 10.921458,10.921458 -0.000000 0 0 29.218760,2476.993021"
       style="stroke:#000000;stroke-width:0.9;fill:none;stroke-linecap: round"
       id="path1783" />
    <path
       d="M 29.218760,2398.538882 A 10.921458,10.921458 -0.000000 0 0 36.404859,2388.276068"
       style="stroke:#000000;stroke-width:0.9;fill:none;stroke-linecap: round"
       id="path1785" />
    <path
       d="M 36.404859,2372.886594 A 10.921458,10.921458 -0.000000 0 0 29.218760,2362.623780"
       style="stroke:#000000;stroke-width:0.9;fill:none;stroke-linecap: round"
       id="path1787" />
    <path
       d="M 29.218760,2284.169641 A 10.921458,10.921458 -0.000000 0 0 36.404859,2273.906828"
       style="stroke:#000000;stroke-width:0.9;fill:none;stroke-linecap: round"
       id="path1789" />
    <path
       d="M 36.404859,2258.517353 A 10.921458,10.921458 -0.000000 0 0 29.218760,2248.254540"
       style="stroke:#000000;stroke-width:0.9;fill:none;stroke-linecap: round"
       id="path1791" />
    <path
       d="M 29.218760,2169.800401 A 10.921458,10.921458 -0.000000 0 0 36.404859,2159.537587"
       style="stroke:#000000;stroke-width:0.9;fill:none;stroke-linecap: round"
       id="path1793" />
    <path
       d="M 36.404859,2144.148112 A 10.921458,10.921458 -0.000000 0 0 29.218760,2133.885299"
       style="stroke:#000000;stroke-width:0.9;fill:none;stroke-linecap: round"
       id="path1795" />
    <path
       d="M 29.218760,2055.431160 A 10.921458,10.921458 -0.000000 0 0 36.404859,2045.168347"
       style="stroke:#000000;stroke-width:0.9;fill:none;stroke-linecap: round"
       id="path1797" />
    <path
       d="M 36.404859,2029.778872 A 10.921458,10.921458 -0.000000 0 0 29.218760,2019.516059"
       style="stroke:#000000;stroke-width:0.9;fill:none;stroke-linecap: round"
       id="path1799" />
    <path
       d="M 29.218760,1941.061920 A 10.921458,10.921458 -0.000000 0 0 36.404859,1930.799106"
       style="stroke:#000000;stroke-width:0.9;fill:none;stroke-linecap: round"
       id="path1801" />
    <path
       d="M 36.404859,1915.409631 A 10.921458,10.921458 -0.000000 0 0 29.218760,1905.146818"
       style="stroke:#000000;stroke-width:0.9;fill:none;stroke-linecap: round"
       id="path1803" />
    <path
       d="M 29.218760,1826.692679 A 10.921458,10.921458 -0.000000 0 0 36.404859,1816.429866"
       style="stroke:#000000;stroke-width:0.9;fill:none;stroke-linecap: round"
       id="path1805" />
    <path
       d="M 36.404859,1801.040391 A 10.921458,10.921458 -0.000000 0 0 29.218760,1790.777578"
       style="stroke:#000000;stroke-width:0.9;fill:none;stroke-linecap: round"
       id="path1807" />
    <path
       d="M 29.218760,1712.323438 A 10.921458,10.921458 -0.000000 0 0 36.404859,1702.060625"
       style="stroke:#000000;stroke-width:0.9;fill:none;stroke-linecap: round"
       id="path1809" />
    <path
       d="M 36.404859,1686.671150 A 10.921458,10.921458 -0.000000 0 0 29.218760,1676.408337"
       style="stroke:#000000;stroke-width:0.9;fill:none;stroke-linecap: round"
       id="path1811" />
    <path
       d="M 29.218760,1597.954198 A 10.921458,10.921458 -0.000000 0 0 36.404859,1587.691385"
       style="stroke:#000000;stroke-width:0.9;fill:none;stroke-linecap: round"
       id="path1813" />
    <path
       d="M 36.404859,1572.301910 A 10.921458,10.921458 -0.000000 0 0 29.218760,1562.039096"
       style="stroke:#000000;stroke-width:0.9;fill:none;stroke-linecap: round"
       id="path1815" />
    <path
       d="M 29.218760,1483.584957 A 10.921458,10.921458 -0.000000 0 0 36.404859,1473.322144"
       style="stroke:#000000;stroke-width:0.9;fill:none;stroke-linecap: round"
       id="path1817" />
    <path
       d="M 36.404859,1457.932669 A 10.921458,10.921458 -0.000000 0 0 29.218760,1447.669856"
       style="stroke:#000000;stroke-width:0.9;fill:none;stroke-linecap: round"
       id="path1819" />
    <path
       d="M 29.218760,1369.215717 A 10.921458,10.921458 -0.000000 0 0 36.404859,1358.952904"
       style="stroke:#000000;stroke-width:0.9;fill:none;stroke-linecap: round"
       id="path1821" />
    <path
       d="M 36.404859,1343.563429 A 10.921458,10.921458 -0.000000 0 0 29.218760,1333.300615"
       style="stroke:#000000;stroke-width:0.9;fill:none;stroke-linecap: round"
       id="path1823" />
    <path
       d="M 29.218760,1254.846476 A 10.921458,10.921458 -0.000000 0 0 36.404859,1244.583663"
       style="stroke:#000000;stroke-width:0.9;fill:none;stroke-linecap: round"
       id="path1825" />
    <path
       d="M 36.404859,1229.194188 A 10.921458,10.921458 -0.000000 0 0 29.218760,1218.931375"
       style="stroke:#000000;stroke-width:0.9;fill:none;stroke-linecap: round"
       id="path1827" />
    <path
       d="M 29.218760,1140.477236 A 10.921458,10.921458 -0.000000 0 0 36.404859,1130.214422"
       style="stroke:#000000;stroke-width:0.9;fill:none;stroke-linecap: round"
       id="path1829" />
    <path
       d="M 36.404859,1114.824948 A 10.921458,10.921458 -0.000000 0 0 29.218760,1104.562134"
       style="stroke:#000000;stroke-width:0.9;fill:none;stroke-linecap: round"
       id="path1831" />
    <path
       d="M 306.856830,1104.562134 A 10.921458,10.921458 -0.000000 0 0 299.670731,1114.824948"
       style="stroke:#000000;stroke-width:0.9;fill:none;stroke-linecap: round"
       id="path1833" />
    <path
       d="M 299.670731,1130.214422 A 10.921458,10.921458 -0.000000 0 0 306.856830,1140.477236"
       style="stroke:#000000;stroke-width:0.9;fill:none;stroke-linecap: round"
       id="path1835" />
    <path
       d="M 306.856830,1218.931375 A 10.921458,10.921458 -0.000000 0 0 299.670731,1229.194188"
       style="stroke:#000000;stroke-width:0.9;fill:none;stroke-linecap: round"
       id="path1837" />
    <path
       d="M 299.670731,1244.583663 A 10.921458,10.921458 -0.000000 0 0 306.856830,1254.846476"
       style="stroke:#000000;stroke-width:0.9;fill:none;stroke-linecap: round"
       id="path1839" />
    <path
       d="M 306.856830,1333.300615 A 10.921458,10.921458 -0.000000 0 0 299.670731,1343.563429"
       style="stroke:#000000;stroke-width:0.9;fill:none;stroke-linecap: round"
       id="path1841" />
    <path
       d="M 299.670731,1358.952904 A 10.921458,10.921458 -0.000000 0 0 306.856830,1369.215717"
       style="stroke:#000000;stroke-width:0.9;fill:none;stroke-linecap: round"
       id="path1843" />
    <path
       d="M 306.856830,1447.669856 A 10.921458,10.921458 -0.000000 0 0 299.670731,1457.932669"
       style="stroke:#000000;stroke-width:0.9;fill:none;stroke-linecap: round"
       id="path1845" />
    <path
       d="M 299.670731,1473.322144 A 10.921458,10.921458 -0.000000 0 0 306.856830,1483.584957"
       style="stroke:#000000;stroke-width:0.9;fill:none;stroke-linecap: round"
       id="path1847" />
    <path
       d="M 306.856830,1562.039096 A 10.921458,10.921458 -0.000000 0 0 299.670731,1572.301910"
       style="stroke:#000000;stroke-width:0.9;fill:none;stroke-linecap: round"
       id="path1849" />
    <path
       d="M 299.670731,1587.691385 A 10.921458,10.921458 -0.000000 0 0 306.856830,1597.954198"
       style="stroke:#000000;stroke-width:0.9;fill:none;stroke-linecap: round"
       id="path1851" />
    <path
       d="M 306.856830,1676.408337 A 10.921458,10.921458 -0.000000 0 0 299.670731,1686.671150"
       style="stroke:#000000;stroke-width:0.9;fill:none;stroke-linecap: round"
       id="path1853" />
    <path
       d="M 299.670731,1702.060625 A 10.921458,10.921458 -0.000000 0 0 306.856830,1712.323438"
       style="stroke:#000000;stroke-width:0.9;fill:none;stroke-linecap: round"
       id="path1855" />
    <path
       d="M 306.856830,1790.777578 A 10.921458,10.921458 -0.000000 0 0 299.670731,1801.040391"
       style="stroke:#000000;stroke-width:0.9;fill:none;stroke-linecap: round"
       id="path1857" />
    <path
       d="M 299.670731,1816.429866 A 10.921458,10.921458 -0.000000 0 0 306.856830,1826.692679"
       style="stroke:#000000;stroke-width:0.9;fill:none;stroke-linecap: round"
       id="path1859" />
    <path
       d="M 306.856830,1905.146818 A 10.921458,10.921458 -0.000000 0 0 299.670731,1915.409631"
       style="stroke:#000000;stroke-width:0.9;fill:none;stroke-linecap: round"
       id="path1861" />
    <path
       d="M 299.670731,1930.799106 A 10.921458,10.921458 -0.000000 0 0 306.856830,1941.061920"
       style="stroke:#000000;stroke-width:0.9;fill:none;stroke-linecap: round"
       id="path1863" />
    <path
       d="M 306.856830,2019.516059 A 10.921458,10.921458 -0.000000 0 0 299.670731,2029.778872"
       style="stroke:#000000;stroke-width:0.9;fill:none;stroke-linecap: round"
       id="path1865" />
    <path
       d="M 299.670731,2045.168347 A 10.921458,10.921458 -0.000000 0 0 306.856830,2055.431160"
       style="stroke:#000000;stroke-width:0.9;fill:none;stroke-linecap: round"
       id="path1867" />
    <path
       d="M 306.856830,2133.885299 A 10.921458,10.921458 -0.000000 0 0 299.670731,2144.148112"
       style="stroke:#000000;stroke-width:0.9;fill:none;stroke-linecap: round"
       id="path1869" />
    <path
       d="M 299.670731,2159.537587 A 10.921458,10.921458 -0.000000 0 0 306.856830,2169.800401"
       style="stroke:#000000;stroke-width:0.9;fill:none;stroke-linecap: round"
       id="path1871" />
    <path
       d="M 306.856830,2248.254540 A 10.921458,10.921458 -0.000000 0 0 299.670731,2258.517353"
       style="stroke:#000000;stroke-width:0.9;fill:none;stroke-linecap: round"
       id="path1873" />
    <path
       d="M 299.670731,2273.906828 A 10.921458,10.921458 -0.000000 0 0 306.856830,2284.169641"
       style="stroke:#000000;stroke-width:0.9;fill:none;stroke-linecap: round"
       id="path1875" />
    <path
       d="M 306.856830,2362.623780 A 10.921458,10.921458 -0.000000 0 0 299.670731,2372.886594"
       style="stroke:#000000;stroke-width:0.9;fill:none;stroke-linecap: round"
       id="path1877" />
    <path
       d="M 299.670731,2388.276068 A 10.921458,10.921458 -0.000000 0 0 306.856830,2398.538882"
       style="stroke:#000000;stroke-width:0.9;fill:none;stroke-linecap: round"
       id="path1879" />
    <path
       d="M 306.856830,2476.993021 A 10.921458,10.921458 -0.000000 0 0 299.670731,2487.255834"
       style="stroke:#000000;stroke-width:0.9;fill:none;stroke-linecap: round"
       id="path1881" />
    <path
       d="M 299.670731,2502.645309 A 10.921458,10.921458 -0.000000 0 0 306.856830,2512.908122"
       style="stroke:#000000;stroke-width:0.9;fill:none;stroke-linecap: round"
       id="path1883" />
    <path
       d="M 306.856830,2591.362261 A 10.921458,10.921458 -0.000000 0 0 299.670731,2601.625075"
       style="stroke:#000000;stroke-width:0.9;fill:none;stroke-linecap: round"
       id="path1885" />
    <path
       d="M 299.670731,2617.014549 A 10.921458,10.921458 -0.000000 0 0 306.856830,2627.277363"
       style="stroke:#000000;stroke-width:0.9;fill:none;stroke-linecap: round"
       id="path1887" />
    <path
       d="M 306.856830,2705.731502 A 10.921458,10.921458 -0.000000 0 0 299.670731,2715.994315"
       style="stroke:#000000;stroke-width:0.9;fill:none;stroke-linecap: round"
       id="path1889" />
    <path
       d="M 299.670731,2731.383790 A 10.921458,10.921458 -0.000000 0 0 306.856830,2741.646603"
       style="stroke:#000000;stroke-width:0.9;fill:none;stroke-linecap: round"
       id="path1891" />
  </g>
</svg>
