  0
SECTION
  2
HEADER
  9
$ACADVER
  1
AC1014
  9
$HANDSEED
  5
FFFF
  9
$MEASUREMENT
 70
     1
  0
ENDSEC
  0
SECTION
  2
TABLES
  0
TABLE
  2
VPORT
  5
8
330
0
100
AcDbSymbolTable
 70
     4
  0
VPORT
  5
2E
330
8
100
AcDbSymbolTableRecord
100
AcDbViewportTableRecord
  2
*ACTIVE
 70
     0
 10
0.0
 20
0.0
 11
1.0
 21
1.0
 12
210.0
 22
148.5
 13
0.0
 23
0.0
 14
10.0
 24
10.0
 15
10.0
 25
10.0
 16
0.0
 26
0.0
 36
1.0
 17
0.0
 27
0.0
 37
0.0
 40
341.0
 41
1.24
 42
50.0
 43
0.0
 44
0.0
 50
0.0
 51
0.0
 71
     0
 72
   100
 73
     1
 74
     3
 75
     0
 76
     0
 77
     0
 78
     0
  0
ENDTAB
  0
TABLE
  2
LTYPE
  5
5
330
0
100
AcDbSymbolTable
 70
     1
  0
LTYPE
  5
14
330
5
100
AcDbSymbolTableRecord
100
AcDbLinetypeTableRecord
  2
BYBLOCK
 70
     0
  3

 72
    65
 73
     0
 40
0.0
  0
LTYPE
  5
15
330
5
100
AcDbSymbolTableRecord
100
AcDbLinetypeTableRecord
  2
BYLAYER
 70
     0
  3

 72
    65
 73
     0
 40
0.0
  0
LTYPE
  5
16
330
5
100
AcDbSymbolTableRecord
100
AcDbLinetypeTableRecord
  2
CONTINUOUS
 70
     0
  3
Solid line
 72
    65
 73
     0
 40
0.0
  0
ENDTAB
  0
TABLE
  2
LAYER
  5
2
100
AcDbSymbolTable
 70
2
  0
LAYER
  5
50
100
AcDbSymbolTableRecord
100
AcDbLayerTableRecord
  2
0
 70
0
  6
CONTINUOUS
  0
LAYER
  5
51
100
AcDbSymbolTableRecord
100
AcDbLayerTableRecord
  2
Layer_1
 70
0
  6
CONTINUOUS
  0
ENDTAB
  0
TABLE
  2
STYLE
  5
3
330
0
100
AcDbSymbolTable
 70
     1
  0
STYLE
  5
11
330
3
100
AcDbSymbolTableRecord
100
AcDbTextStyleTableRecord
  2
STANDARD
 70
     0
 40
0.0
 41
1.0
 50
0.0
 71
     0
 42
2.5
  3
txt
  4

  0
ENDTAB
  0
TABLE
  2
VIEW
  5
6
330
0
100
AcDbSymbolTable
 70
     0
  0
ENDTAB
  0
TABLE
  2
UCS
  5
7
330
0
100
AcDbSymbolTable
 70
     0
  0
ENDTAB
  0
TABLE
  2
APPID
  5
9
330
0
100
AcDbSymbolTable
 70
     2
  0
APPID
  5
12
330
9
100
AcDbSymbolTableRecord
100
AcDbRegAppTableRecord
  2
ACAD
 70
     0
  0
ENDTAB
  0
TABLE
  2
DIMSTYLE
  5
A
330
0
100
AcDbSymbolTable
 70
     1
  0
DIMSTYLE
105
27
330
A
100
AcDbSymbolTableRecord
100
AcDbDimStyleTableRecord
  2
ISO-25
 70
     0
  3

  4

  5

  6

  7

 40
1.0
 41
2.5
 42
0.625
 43
3.75
 44
1.25
 45
0.0
 46
0.0
 47
0.0
 48
0.0
140
2.5
141
2.5
142
0.0
143
0.03937007874016
144
1.0
145
0.0
146
1.0
147
0.625
 71
     0
 72
     0
 73
     0
 74
     0
 75
     0
 76
     0
 77
     1
 78
     8
170
     0
171
     3
172
     1
173
     0
174
     0
175
     0
176
     0
177
     0
178
     0
270
     2
271
     2
272
     2
273
     2
274
     3
340
11
275
     0
280
     0
281
     0
282
     0
283
     0
284
     8
285
     0
286
     0
287
     3
288
     0
  0
ENDTAB
  0
TABLE
  2
BLOCK_RECORD
  5
1
330
0
100
AcDbSymbolTable
 70
     1
  0
BLOCK_RECORD
  5
1F
330
1
100
AcDbSymbolTableRecord
100
AcDbBlockTableRecord
  2
*MODEL_SPACE
  0
BLOCK_RECORD
  5
1B
330
1
100
AcDbSymbolTableRecord
100
AcDbBlockTableRecord
  2
*PAPER_SPACE
  0
ENDTAB
  0
ENDSEC
  0
SECTION
  2
BLOCKS
  0
BLOCK
  5
20
330
1F
100
AcDbEntity
  8
0
100
AcDbBlockBegin
  2
*MODEL_SPACE
 70
     0
 10
0.0
 20
0.0
 30
0.0
  3
*MODEL_SPACE
  1

  0
ENDBLK
  5
21
330
1F
100
AcDbEntity
  8
0
100
AcDbBlockEnd
  0
BLOCK
  5
1C
330
1B
100
AcDbEntity
 67
     1
  8
0
100
AcDbBlockBegin
  2
*PAPER_SPACE
  1

  0
ENDBLK
  5
1D
330
1B
100
AcDbEntity
 67
     1
  8
0
100
AcDbBlockEnd
  0
ENDSEC
  0
SECTION
  2
ENTITIES
  0
SPLINE
  5
100
100
AcDbEntity
  8
0
 62
7
100
AcDbSpline
 70
8
 71
3
 72
8
 73
4
 74
0
 40
0
 40
0
 40
0
 40
0
 40
1
 40
1
 40
1
 40
1
 10
130.210768
 20
150.368223
 30
0.0
 10
130.187399
 20
149.705004
 30
0.0
 10
129.811982
 20
149.104631
 30
0.0
 10
129.225933
 20
148.793260
 30
0.0
  0
SPLINE
  5
101
100
AcDbEntity
  8
0
 62
7
100
AcDbSpline
 70
8
 71
3
 72
8
 73
4
 74
0
 40
0
 40
0
 40
0
 40
0
 40
1
 40
1
 40
1
 40
1
 10
129.225933
 20
148.793260
 30
0.0
 10
128.639884
 20
148.481888
 30
0.0
 10
127.932238
 20
148.506823
 30
0.0
 10
127.369558
 20
148.858671
 30
0.0
  0
SPLINE
  5
102
100
AcDbEntity
  8
0
 62
7
100
AcDbSpline
 70
8
 71
3
 72
8
 73
4
 74
0
 40
0
 40
0
 40
0
 40
0
 40
1
 40
1
 40
1
 40
1
 10
127.369558
 20
148.858671
 30
0.0
 10
126.806878
 20
149.210518
 30
0.0
 10
126.474649
 20
149.835825
 30
0.0
 10
126.498018
 20
150.499044
 30
0.0
  0
SPLINE
  5
103
100
AcDbEntity
  8
0
 62
7
100
AcDbSpline
 70
8
 71
3
 72
8
 73
4
 74
0
 40
0
 40
0
 40
0
 40
0
 40
1
 40
1
 40
1
 40
1
 10
126.498018
 20
150.499044
 30
0.0
 10
126.521387
 20
151.162263
 30
0.0
 10
126.896804
 20
151.762636
 30
0.0
 10
127.482853
 20
152.074007
 30
0.0
  0
SPLINE
  5
104
100
AcDbEntity
  8
0
 62
7
100
AcDbSpline
 70
8
 71
3
 72
8
 73
4
 74
0
 40
0
 40
0
 40
0
 40
0
 40
1
 40
1
 40
1
 40
1
 10
127.482853
 20
152.074007
 30
0.0
 10
128.068902
 20
152.385378
 30
0.0
 10
128.776548
 20
152.360444
 30
0.0
 10
129.339228
 20
152.008596
 30
0.0
  0
SPLINE
  5
105
100
AcDbEntity
  8
0
 62
7
100
AcDbSpline
 70
8
 71
3
 72
8
 73
4
 74
0
 40
0
 40
0
 40
0
 40
0
 40
1
 40
1
 40
1
 40
1
 10
129.339228
 20
152.008596
 30
0.0
 10
129.901908
 20
151.656748
 30
0.0
 10
130.234138
 20
151.031442
 30
0.0
 10
130.210768
 20
150.368223
 30
0.0
  0
LWPOLYLINE
  5
106
100
AcDbEntity
  8
0
 62
7
100
AcDbPolyline
 90
240
 70
1
 10
144.901436
 20
150.964016
 30
0.0
 10
145.014194
 20
150.968047
 30
0.0
 10
146.089883
 20
150.738026
 30
0.0
 10
147.273623
 20
150.203630
 30
0.0
 10
147.242919
 20
149.332251
 30
0.0
 10
146.024502
 20
148.882497
 30
0.0
 10
144.935291
 20
148.728757
 30
0.0
 10
144.823096
 20
148.740715
 30
0.0
 10
144.650147
 20
147.512924
 30
0.0
 10
144.761176
 20
147.493002
 30
0.0
 10
145.765536
 20
147.044356
 30
0.0
 10
146.812305
 20
146.275529
 30
0.0
 10
146.601099
 20
145.429571
 30
0.0
 10
145.315797
 20
145.242976
 30
0.0
 10
144.218430
 20
145.319066
 30
0.0
 10
144.111072
 20
145.353668
 30
0.0
 10
143.686630
 20
144.188682
 30
0.0
 10
143.791092
 20
144.146077
 30
0.0
 10
144.680227
 20
143.498425
 30
0.0
 10
145.544275
 20
142.528757
 30
0.0
 10
145.161795
 20
141.745200
 30
0.0
 10
143.865785
 20
141.829890
 30
0.0
 10
142.808213
 20
142.132459
 30
0.0
 10
142.710401
 20
142.188638
 30
0.0
 10
142.053021
 20
141.137345
 30
0.0
 10
142.146359
 20
141.074019
 30
0.0
 10
142.881407
 20
140.255657
 30
0.0
 10
143.524965
 20
139.127546
 30
0.0
 10
142.987941
 20
138.440620
 30
0.0
 10
141.737862
 20
138.792939
 30
0.0
 10
140.766310
 20
139.308781
 30
0.0
 10
140.682310
 20
139.384086
 30
0.0
 10
139.820720
 20
138.492443
 30
0.0
 10
139.898852
 20
138.411041
 30
0.0
 10
140.447685
 20
137.457733
 30
0.0
 10
140.842635
 20
136.220468
 30
0.0
 10
140.174521
 20
135.660218
 30
0.0
 10
139.025010
 20
136.264731
 30
0.0
 10
138.181941
 20
136.971297
 30
0.0
 10
138.115428
 20
137.062396
 30
0.0
 10
137.087286
 20
136.369371
 30
0.0
 10
137.146788
 20
136.273516
 30
0.0
 10
137.485428
 20
135.226932
 30
0.0
 10
137.614497
 20
133.934586
 30
0.0
 10
136.844508
 20
133.525476
 30
0.0
 10
135.845799
 20
134.355790
 30
0.0
 10
135.168052
 20
135.222193
 30
0.0
 10
135.121939
 20
135.325141
 30
0.0
 10
133.972176
 20
134.861031
 30
0.0
 10
134.010454
 20
134.754917
 30
0.0
 10
134.124096
 20
133.660807
 30
0.0
 10
133.981658
 20
132.369862
 30
0.0
 10
133.143428
 20
132.129790
 30
0.0
 10
132.339179
 20
133.149594
 30
0.0
 10
131.856381
 20
134.137988
 30
0.0
 10
131.832680
 20
134.248271
 30
0.0
 10
130.611550
 20
134.033348
 30
0.0
 10
130.626935
 20
133.921597
 30
0.0
 10
130.510614
 20
132.827765
 30
0.0
 10
130.102886
 20
131.594648
 30
0.0
 10
129.233062
 20
131.534140
 30
0.0
 10
128.658417
 20
132.698868
 30
0.0
 10
128.391671
 20
133.766043
 30
0.0
 10
128.391443
 20
133.878841
 30
0.0
 10
127.152307
 20
133.922503
 30
0.0
 10
127.144141
 20
133.810001
 30
0.0
 10
126.802944
 20
132.764247
 30
0.0
 10
126.147745
 20
131.642854
 30
0.0
 10
125.284337
 20
131.764434
 30
0.0
 10
124.964412
 20
133.023190
 30
0.0
 10
124.925369
 20
134.122497
 30
0.0
 10
124.948581
 20
134.232888
 30
0.0
 10
123.745607
 20
134.533226
 30
0.0
 10
123.714202
 20
134.424884
 30
0.0
 10
123.163034
 20
133.472923
 30
0.0
 10
122.289002
 20
132.512255
 30
0.0
 10
121.469747
 20
132.810729
 30
0.0
 10
121.418525
 20
134.108498
 30
0.0
 10
121.608894
 20
135.191896
 30
0.0
 10
121.654545
 20
135.295053
 30
0.0
 10
120.540300
 20
135.838937
 30
0.0
 10
120.487055
 20
135.739490
 30
0.0
 10
119.750008
 20
134.922938
 30
0.0
 10
118.695335
 20
134.164977
 30
0.0
 10
117.956050
 20
134.627267
 30
0.0
 10
118.175760
 20
135.907324
 30
0.0
 10
118.587223
 20
136.927477
 30
0.0
 10
118.653324
 20
137.018907
 30
0.0
 10
117.676510
 20
137.782578
 30
0.0
 10
117.603750
 20
137.696386
 30
0.0
 10
116.713041
 20
137.050911
 30
0.0
 10
115.523833
 20
136.528804
 30
0.0
 10
114.896808
 20
137.134690
 30
0.0
 10
115.377863
 20
138.341088
 30
0.0
 10
115.992432
 20
139.253403
 30
0.0
 10
116.076100
 20
139.329104
 30
0.0
 10
115.279404
 20
140.279178
 30
0.0
 10
115.190312
 20
140.209972
 30
0.0
 10
114.184863
 20
139.763791
 30
0.0
 10
112.913087
 20
139.500332
 30
0.0
 10
112.425743
 20
140.223352
 30
0.0
 10
113.147106
 20
141.303369
 30
0.0
 10
113.937931
 20
142.067966
 30
0.0
 10
114.035494
 20
142.124565
 30
0.0
 10
113.453739
 20
143.219520
 30
0.0
 10
113.352215
 20
143.170365
 30
0.0
 10
112.275971
 20
142.942982
 30
0.0
 10
110.977214
 20
142.949721
 30
0.0
 10
110.650832
 20
143.758256
 30
0.0
 10
111.580986
 20
144.664703
 30
0.0
 10
112.513501
 20
145.248168
 30
0.0
 10
112.620703
 20
145.283315
 30
0.0
 10
112.279310
 20
146.475286
 30
0.0
 10
112.169783
 20
146.448326
 30
0.0
 10
111.069782
 20
146.449662
 30
0.0
 10
109.800801
 20
146.726259
 30
0.0
 10
109.649661
 20
147.584984
 30
0.0
 10
110.747947
 20
148.278229
 30
0.0
 10
111.781393
 20
148.655071
 30
0.0
 10
111.893549
 20
148.667129
 30
0.0
 10
111.807447
 20
149.904048
 30
0.0
 10
111.694688
 20
149.900016
 30
0.0
 10
110.619000
 20
150.130038
 30
0.0
 10
109.435260
 20
150.664434
 30
0.0
 10
109.465964
 20
151.535813
 30
0.0
 10
110.684381
 20
151.985567
 30
0.0
 10
111.773591
 20
152.139307
 30
0.0
 10
111.885787
 20
152.127349
 30
0.0
 10
112.058735
 20
153.355140
 30
0.0
 10
111.947706
 20
153.375062
 30
0.0
 10
110.943347
 20
153.823708
 30
0.0
 10
109.896578
 20
154.592535
 30
0.0
 10
110.107783
 20
155.438493
 30
0.0
 10
111.393085
 20
155.625088
 30
0.0
 10
112.490452
 20
155.548998
 30
0.0
 10
112.597811
 20
155.514396
 30
0.0
 10
113.022253
 20
156.679382
 30
0.0
 10
112.917790
 20
156.721987
 30
0.0
 10
112.028655
 20
157.369639
 30
0.0
 10
111.164607
 20
158.339307
 30
0.0
 10
111.547087
 20
159.122864
 30
0.0
 10
112.843098
 20
159.038174
 30
0.0
 10
113.900669
 20
158.735605
 30
0.0
 10
113.998481
 20
158.679426
 30
0.0
 10
114.655861
 20
159.730719
 30
0.0
 10
114.562523
 20
159.794045
 30
0.0
 10
113.827475
 20
160.612406
 30
0.0
 10
113.183917
 20
161.740518
 30
0.0
 10
113.720942
 20
162.427444
 30
0.0
 10
114.971021
 20
162.075125
 30
0.0
 10
115.942572
 20
161.559283
 30
0.0
 10
116.026573
 20
161.483978
 30
0.0
 10
116.888162
 20
162.375621
 30
0.0
 10
116.810030
 20
162.457023
 30
0.0
 10
116.261198
 20
163.410331
 30
0.0
 10
115.866248
 20
164.647596
 30
0.0
 10
116.534362
 20
165.207846
 30
0.0
 10
117.683872
 20
164.603333
 30
0.0
 10
118.526941
 20
163.896767
 30
0.0
 10
118.593455
 20
163.805668
 30
0.0
 10
119.621596
 20
164.498693
 30
0.0
 10
119.562095
 20
164.594548
 30
0.0
 10
119.223454
 20
165.641132
 30
0.0
 10
119.094386
 20
166.933478
 30
0.0
 10
119.864375
 20
167.342587
 30
0.0
 10
120.863083
 20
166.512274
 30
0.0
 10
121.540830
 20
165.645871
 30
0.0
 10
121.586944
 20
165.542923
 30
0.0
 10
122.736706
 20
166.007033
 30
0.0
 10
122.698429
 20
166.113147
 30
0.0
 10
122.584786
 20
167.207257
 30
0.0
 10
122.727224
 20
168.498202
 30
0.0
 10
123.565455
 20
168.738273
 30
0.0
 10
124.369703
 20
167.718470
 30
0.0
 10
124.852501
 20
166.730076
 30
0.0
 10
124.876203
 20
166.619793
 30
0.0
 10
126.097332
 20
166.834715
 30
0.0
 10
126.081948
 20
166.946467
 30
0.0
 10
126.198268
 20
168.040299
 30
0.0
 10
126.605996
 20
169.273416
 30
0.0
 10
127.475820
 20
169.333923
 30
0.0
 10
128.050466
 20
168.169196
 30
0.0
 10
128.317212
 20
167.102021
 30
0.0
 10
128.317440
 20
166.989223
 30
0.0
 10
129.556575
 20
166.945561
 30
0.0
 10
129.564742
 20
167.058063
 30
0.0
 10
129.905938
 20
168.103816
 30
0.0
 10
130.561137
 20
169.225210
 30
0.0
 10
131.424546
 20
169.103630
 30
0.0
 10
131.744470
 20
167.844874
 30
0.0
 10
131.783514
 20
166.745567
 30
0.0
 10
131.760302
 20
166.635176
 30
0.0
 10
132.963276
 20
166.334838
 30
0.0
 10
132.994680
 20
166.443180
 30
0.0
 10
133.545849
 20
167.395141
 30
0.0
 10
134.419881
 20
168.355809
 30
0.0
 10
135.239135
 20
168.057335
 30
0.0
 10
135.290357
 20
166.759566
 30
0.0
 10
135.099989
 20
165.676168
 30
0.0
 10
135.054338
 20
165.573011
 30
0.0
 10
136.168583
 20
165.029127
 30
0.0
 10
136.221827
 20
165.128574
 30
0.0
 10
136.958875
 20
165.945126
 30
0.0
 10
138.013547
 20
166.703087
 30
0.0
 10
138.752832
 20
166.240797
 30
0.0
 10
138.533123
 20
164.960740
 30
0.0
 10
138.121659
 20
163.940586
 30
0.0
 10
138.055558
 20
163.849157
 30
0.0
 10
139.032372
 20
163.085486
 30
0.0
 10
139.105133
 20
163.171678
 30
0.0
 10
139.995842
 20
163.817153
 30
0.0
 10
141.185050
 20
164.339260
 30
0.0
 10
141.812074
 20
163.733374
 30
0.0
 10
141.331020
 20
162.526975
 30
0.0
 10
140.716450
 20
161.614661
 30
0.0
 10
140.632783
 20
161.538960
 30
0.0
 10
141.429478
 20
160.588886
 30
0.0
 10
141.518570
 20
160.658092
 30
0.0
 10
142.524020
 20
161.104273
 30
0.0
 10
143.795796
 20
161.367732
 30
0.0
 10
144.283140
 20
160.644712
 30
0.0
 10
143.561777
 20
159.564694
 30
0.0
 10
142.770952
 20
158.800098
 30
0.0
 10
142.673388
 20
158.743499
 30
0.0
 10
143.255143
 20
157.648544
 30
0.0
 10
143.356667
 20
157.697699
 30
0.0
 10
144.432912
 20
157.925082
 30
0.0
 10
145.731669
 20
157.918343
 30
0.0
 10
146.058050
 20
157.109808
 30
0.0
 10
145.127896
 20
156.203361
 30
0.0
 10
144.195382
 20
155.619896
 30
0.0
 10
144.088179
 20
155.584749
 30
0.0
 10
144.429572
 20
154.392778
 30
0.0
 10
144.539099
 20
154.419738
 30
0.0
 10
145.639101
 20
154.418402
 30
0.0
 10
146.908082
 20
154.141805
 30
0.0
 10
147.059221
 20
153.283080
 30
0.0
 10
145.960935
 20
152.589835
 30
0.0
 10
144.927489
 20
152.212993
 30
0.0
 10
144.815333
 20
152.200935
 30
0.0
  0
LWPOLYLINE
  5
107
100
AcDbEntity
  8
0
 62
7
100
AcDbPolyline
 90
1
 70
1
 10
130.210768
 20
150.368223
 30
0.0
  0
LWPOLYLINE
  5
108
100
AcDbEntity
  8
Layer_1
 62
7
100
AcDbPolyline
 90
120
 70
1
 10
154.789771
 20
138.837439
 30
0.0
 10
158.199125
 20
139.669869
 30
0.0
 10
158.199125
 20
141.124679
 30
0.0
 10
154.789772
 20
141.957109
 30
0.0
 10
154.789772
 20
143.411919
 30
0.0
 10
158.199125
 20
144.244359
 30
0.0
 10
158.199125
 20
145.698299
 30
0.0
 10
154.789772
 20
146.531599
 30
0.0
 10
154.789772
 20
147.985539
 30
0.0
 10
158.199125
 20
148.817979
 30
0.0
 10
158.199125
 20
150.272789
 30
0.0
 10
154.789772
 20
151.105219
 30
0.0
 10
154.789772
 20
152.560029
 30
0.0
 10
158.199125
 20
153.392459
 30
0.0
 10
158.199125
 20
154.847269
 30
0.0
 10
154.789772
 20
155.679699
 30
0.0
 10
154.789772
 20
157.134509
 30
0.0
 10
158.199125
 20
157.966939
 30
0.0
 10
158.199125
 20
159.420889
 30
0.0
 10
154.789772
 20
160.254189
 30
0.0
 10
154.789772
 20
161.708129
 30
0.0
 10
158.199125
 20
162.540559
 30
0.0
 10
158.199125
 20
163.995369
 30
0.0
 10
154.789772
 20
164.827809
 30
0.0
 10
154.789772
 20
166.282619
 30
0.0
 10
158.199125
 20
167.115049
 30
0.0
 10
158.199125
 20
168.569859
 30
0.0
 10
154.789772
 20
169.402289
 30
0.0
 10
154.789772
 20
170.857099
 30
0.0
 10
158.199125
 20
171.689529
 30
0.0
 10
158.199125
 20
173.143479
 30
0.0
 10
154.789772
 20
173.976779
 30
0.0
 10
154.789772
 20
175.430719
 30
0.0
 10
158.199125
 20
176.263149
 30
0.0
 10
158.199125
 20
177.717959
 30
0.0
 10
154.789772
 20
178.550399
 30
0.0
 10
154.789772
 20
180.005209
 30
0.0
 10
158.199125
 20
180.837639
 30
0.0
 10
158.199125
 20
182.292449
 30
0.0
 10
154.789772
 20
183.124879
 30
0.0
 10
154.789772
 20
184.579689
 30
0.0
 10
158.199125
 20
185.412119
 30
0.0
 10
158.199125
 20
186.866069
 30
0.0
 10
154.789772
 20
187.699369
 30
0.0
 10
154.789772
 20
189.153309
 30
0.0
 10
158.199125
 20
189.985739
 30
0.0
 10
158.199125
 20
191.440549
 30
0.0
 10
154.789772
 20
192.272989
 30
0.0
 10
154.789772
 20
193.727799
 30
0.0
 10
158.199125
 20
194.560229
 30
0.0
 10
158.199125
 20
196.015039
 30
0.0
 10
154.789772
 20
196.847469
 30
0.0
 10
154.789772
 20
198.302279
 30
0.0
 10
158.199125
 20
199.134709
 30
0.0
 10
158.199125
 20
200.588659
 30
0.0
 10
154.789772
 20
201.421949
 30
0.0
 10
154.789772
 20
202.875899
 30
0.0
 10
158.199125
 20
203.708329
 30
0.0
 10
158.199125
 20
205.163139
 30
0.0
 10
154.789771
 20
205.995579
 30
0.0
 10
172.009833
 20
205.995569
 30
0.0
 10
168.600482
 20
205.163139
 30
0.0
 10
168.600482
 20
203.708329
 30
0.0
 10
172.009835
 20
202.875899
 30
0.0
 10
172.009835
 20
201.421089
 30
0.0
 10
168.600482
 20
200.588649
 30
0.0
 10
168.600482
 20
199.134709
 30
0.0
 10
172.009835
 20
198.301409
 30
0.0
 10
172.009835
 20
196.847469
 30
0.0
 10
168.600482
 20
196.015029
 30
0.0
 10
168.600482
 20
194.560219
 30
0.0
 10
172.009835
 20
193.727789
 30
0.0
 10
172.009835
 20
192.272979
 30
0.0
 10
168.600482
 20
191.440549
 30
0.0
 10
168.600482
 20
189.985739
 30
0.0
 10
172.009835
 20
189.153309
 30
0.0
 10
172.009835
 20
187.698499
 30
0.0
 10
168.600482
 20
186.866069
 30
0.0
 10
168.600482
 20
185.412119
 30
0.0
 10
172.009835
 20
184.578819
 30
0.0
 10
172.009835
 20
183.124879
 30
0.0
 10
168.600482
 20
182.292449
 30
0.0
 10
168.600482
 20
180.837629
 30
0.0
 10
172.009835
 20
180.005199
 30
0.0
 10
172.009835
 20
178.550389
 30
0.0
 10
168.600482
 20
177.717959
 30
0.0
 10
168.600482
 20
176.263149
 30
0.0
 10
172.009835
 20
175.430719
 30
0.0
 10
172.009835
 20
173.975909
 30
0.0
 10
168.600482
 20
173.143479
 30
0.0
 10
168.600482
 20
171.689529
 30
0.0
 10
172.009835
 20
170.856229
 30
0.0
 10
172.009835
 20
169.402289
 30
0.0
 10
168.600482
 20
168.569859
 30
0.0
 10
168.600482
 20
167.115039
 30
0.0
 10
172.009835
 20
166.282609
 30
0.0
 10
172.009835
 20
164.827799
 30
0.0
 10
168.600482
 20
163.995369
 30
0.0
 10
168.600482
 20
162.540559
 30
0.0
 10
172.009835
 20
161.708129
 30
0.0
 10
172.009835
 20
160.253319
 30
0.0
 10
168.600482
 20
159.420889
 30
0.0
 10
168.600482
 20
157.966939
 30
0.0
 10
172.009835
 20
157.133639
 30
0.0
 10
172.009835
 20
155.679699
 30
0.0
 10
168.600482
 20
154.847269
 30
0.0
 10
168.600482
 20
153.392449
 30
0.0
 10
172.009835
 20
152.560019
 30
0.0
 10
172.009835
 20
151.105209
 30
0.0
 10
168.600482
 20
150.272779
 30
0.0
 10
168.600482
 20
148.817969
 30
0.0
 10
172.009835
 20
147.985539
 30
0.0
 10
172.009835
 20
146.530729
 30
0.0
 10
168.600482
 20
145.698299
 30
0.0
 10
168.600482
 20
144.244349
 30
0.0
 10
172.009835
 20
143.411049
 30
0.0
 10
172.009835
 20
141.957109
 30
0.0
 10
168.600482
 20
141.124679
 30
0.0
 10
168.600482
 20
139.669859
 30
0.0
 10
172.009833
 20
138.837439
 30
0.0
  0
LWPOLYLINE
  5
109
100
AcDbEntity
  8
Layer_1
 62
7
100
AcDbPolyline
 90
10
 70
1
 10
158.199125
 20
205.163139
 30
0.0
 10
154.789771
 20
205.995579
 30
0.0
 10
152.340486
 20
210.076829
 30
0.0
 10
158.199128
 20
210.076829
 30
0.0
 10
158.199128
 20
223.494989
 30
0.0
 10
168.215502
 20
223.494989
 30
0.0
 10
168.215502
 20
210.076829
 30
0.0
 10
173.696144
 20
210.076829
 30
0.0
 10
172.009833
 20
205.995569
 30
0.0
 10
168.215491
 20
205.163139
 30
0.0
  0
LWPOLYLINE
  5
10a
100
AcDbEntity
  8
Layer_1
 62
7
100
AcDbPolyline
 90
10
 70
1
 10
168.215491
 20
139.669869
 30
0.0
 10
172.009833
 20
138.837439
 30
0.0
 10
174.074130
 20
134.756179
 30
0.0
 10
168.215488
 20
134.756179
 30
0.0
 10
168.215488
 20
121.338019
 30
0.0
 10
158.199114
 20
121.338019
 30
0.0
 10
158.199114
 20
134.756179
 30
0.0
 10
152.718472
 20
134.756179
 30
0.0
 10
154.789771
 20
138.837439
 30
0.0
 10
158.199125
 20
139.669869
 30
0.0
  0
SPLINE
  5
10b
100
AcDbEntity
  8
Layer_1
 62
7
100
AcDbSpline
 70
8
 71
3
 72
8
 73
4
 74
0
 40
0
 40
0
 40
0
 40
0
 40
1
 40
1
 40
1
 40
1
 10
130.002578
 20
175.645787
 30
0.0
 10
130.052915
 20
174.830400
 30
0.0
 10
129.664426
 20
174.050097
 30
0.0
 10
128.983449
 20
173.598811
 30
0.0
  0
SPLINE
  5
10c
100
AcDbEntity
  8
Layer_1
 62
7
100
AcDbSpline
 70
8
 71
3
 72
8
 73
4
 74
0
 40
0
 40
0
 40
0
 40
0
 40
1
 40
1
 40
1
 40
1
 10
128.983449
 20
173.598811
 30
0.0
 10
128.302472
 20
173.147524
 30
0.0
 10
127.432465
 20
173.093814
 30
0.0
 10
126.701151
 20
173.457914
 30
0.0
  0
SPLINE
  5
10d
100
AcDbEntity
  8
Layer_1
 62
7
100
AcDbSpline
 70
8
 71
3
 72
8
 73
4
 74
0
 40
0
 40
0
 40
0
 40
0
 40
1
 40
1
 40
1
 40
1
 10
126.701151
 20
173.457914
 30
0.0
 10
125.969837
 20
173.822013
 30
0.0
 10
125.488320
 20
174.548607
 30
0.0
 10
125.437982
 20
175.363993
 30
0.0
  0
SPLINE
  5
10e
100
AcDbEntity
  8
Layer_1
 62
7
100
AcDbSpline
 70
8
 71
3
 72
8
 73
4
 74
0
 40
0
 40
0
 40
0
 40
0
 40
1
 40
1
 40
1
 40
1
 10
125.437982
 20
175.363993
 30
0.0
 10
125.387645
 20
176.179380
 30
0.0
 10
125.776134
 20
176.959683
 30
0.0
 10
126.457111
 20
177.410969
 30
0.0
  0
SPLINE
  5
10f
100
AcDbEntity
  8
Layer_1
 62
7
100
AcDbSpline
 70
8
 71
3
 72
8
 73
4
 74
0
 40
0
 40
0
 40
0
 40
0
 40
1
 40
1
 40
1
 40
1
 10
126.457111
 20
177.410969
 30
0.0
 10
127.138088
 20
177.862256
 30
0.0
 10
128.008095
 20
177.915966
 30
0.0
 10
128.739409
 20
177.551866
 30
0.0
  0
SPLINE
  5
110
100
AcDbEntity
  8
Layer_1
 62
7
100
AcDbSpline
 70
8
 71
3
 72
8
 73
4
 74
0
 40
0
 40
0
 40
0
 40
0
 40
1
 40
1
 40
1
 40
1
 10
128.739409
 20
177.551866
 30
0.0
 10
129.470723
 20
177.187767
 30
0.0
 10
129.952240
 20
176.461173
 30
0.0
 10
130.002578
 20
175.645787
 30
0.0
  0
LWPOLYLINE
  5
111
100
AcDbEntity
  8
Layer_1
 62
7
100
AcDbPolyline
 90
3
 70
1
 10
276.724240
 20
151.801380
 30
0.0
 10
276.724240
 20
151.801380
 30
0.0
 10
276.724240
 20
151.801380
 30
0.0
  0
SPLINE
  5
112
100
AcDbEntity
  8
Layer_1
 62
7
100
AcDbSpline
 70
8
 71
3
 72
8
 73
4
 74
0
 40
0
 40
0
 40
0
 40
0
 40
1
 40
1
 40
1
 40
1
 10
58.178828
 20
175.645787
 30
0.0
 10
58.229165
 20
174.830400
 30
0.0
 10
57.840676
 20
174.050097
 30
0.0
 10
57.159699
 20
173.598811
 30
0.0
  0
SPLINE
  5
113
100
AcDbEntity
  8
Layer_1
 62
7
100
AcDbSpline
 70
8
 71
3
 72
8
 73
4
 74
0
 40
0
 40
0
 40
0
 40
0
 40
1
 40
1
 40
1
 40
1
 10
57.159699
 20
173.598811
 30
0.0
 10
56.478722
 20
173.147524
 30
0.0
 10
55.608715
 20
173.093814
 30
0.0
 10
54.877401
 20
173.457914
 30
0.0
  0
SPLINE
  5
114
100
AcDbEntity
  8
Layer_1
 62
7
100
AcDbSpline
 70
8
 71
3
 72
8
 73
4
 74
0
 40
0
 40
0
 40
0
 40
0
 40
1
 40
1
 40
1
 40
1
 10
54.877401
 20
173.457914
 30
0.0
 10
54.146087
 20
173.822013
 30
0.0
 10
53.664570
 20
174.548607
 30
0.0
 10
53.614232
 20
175.363993
 30
0.0
  0
SPLINE
  5
115
100
AcDbEntity
  8
Layer_1
 62
7
100
AcDbSpline
 70
8
 71
3
 72
8
 73
4
 74
0
 40
0
 40
0
 40
0
 40
0
 40
1
 40
1
 40
1
 40
1
 10
53.614232
 20
175.363993
 30
0.0
 10
53.563895
 20
176.179380
 30
0.0
 10
53.952384
 20
176.959683
 30
0.0
 10
54.633361
 20
177.410969
 30
0.0
  0
SPLINE
  5
116
100
AcDbEntity
  8
Layer_1
 62
7
100
AcDbSpline
 70
8
 71
3
 72
8
 73
4
 74
0
 40
0
 40
0
 40
0
 40
0
 40
1
 40
1
 40
1
 40
1
 10
54.633361
 20
177.410969
 30
0.0
 10
55.314338
 20
177.862256
 30
0.0
 10
56.184345
 20
177.915966
 30
0.0
 10
56.915659
 20
177.551866
 30
0.0
  0
SPLINE
  5
117
100
AcDbEntity
  8
Layer_1
 62
7
100
AcDbSpline
 70
8
 71
3
 72
8
 73
4
 74
0
 40
0
 40
0
 40
0
 40
0
 40
1
 40
1
 40
1
 40
1
 10
56.915659
 20
177.551866
 30
0.0
 10
57.646973
 20
177.187767
 30
0.0
 10
58.128490
 20
176.461173
 30
0.0
 10
58.178828
 20
175.645787
 30
0.0
  0
LWPOLYLINE
  5
118
100
AcDbEntity
  8
Layer_1
 62
7
100
AcDbPolyline
 90
1
 70
1
 10
130.002578
 20
175.645787
 30
0.0
  0
LWPOLYLINE
  5
119
100
AcDbEntity
  8
Layer_1
 62
7
100
AcDbPolyline
 90
1
 70
1
 10
58.178828
 20
175.645787
 30
0.0
  0
SPLINE
  5
11a
100
AcDbEntity
  8
Layer_1
 62
7
100
AcDbSpline
 70
8
 71
3
 72
8
 73
4
 74
0
 40
0
 40
0
 40
0
 40
0
 40
1
 40
1
 40
1
 40
1
 10
118.315020
 20
213.373703
 30
0.0
 10
117.683717
 20
213.619844
 30
0.0
 10
117.012367
 20
213.747211
 30
0.0
 10
116.334780
 20
213.749390
 30
0.0
  0
SPLINE
  5
11b
100
AcDbEntity
  8
Layer_1
 62
7
100
AcDbSpline
 70
8
 71
3
 72
8
 73
4
 74
0
 40
0
 40
0
 40
0
 40
0
 40
1
 40
1
 40
1
 40
1
 10
116.334780
 20
213.749390
 30
0.0
 10
114.876026
 20
213.749371
 30
0.0
 10
113.477031
 20
213.169841
 30
0.0
 10
112.445583
 20
212.138298
 30
0.0
  0
SPLINE
  5
11c
100
AcDbEntity
  8
Layer_1
 62
7
100
AcDbSpline
 70
8
 71
3
 72
8
 73
4
 74
0
 40
0
 40
0
 40
0
 40
0
 40
1
 40
1
 40
1
 40
1
 10
112.445583
 20
212.138298
 30
0.0
 10
111.414136
 20
211.106755
 30
0.0
 10
110.834734
 20
209.707706
 30
0.0
 10
110.834850
 20
208.248952
 30
0.0
  0
SPLINE
  5
11d
100
AcDbEntity
  8
Layer_1
 62
7
100
AcDbSpline
 70
8
 71
3
 72
8
 73
4
 74
0
 40
0
 40
0
 40
0
 40
0
 40
1
 40
1
 40
1
 40
1
 10
110.834850
 20
208.248952
 30
0.0
 10
110.835217
 20
206.810670
 30
0.0
 10
111.398974
 20
205.429756
 30
0.0
 10
112.405300
 20
204.402156
 30
0.0
  0
LWPOLYLINE
  5
11e
100
AcDbEntity
  8
Layer_1
 62
7
100
AcDbPolyline
 90
5
 70
0
 10
142.410190
 20
224.284665
 30
0.0
 10
140.841810
 20
224.043851
 30
0.0
 10
139.408820
 20
223.575663
 30
0.0
 10
139.408820
 20
223.575147
 30
0.0
 10
118.315020
 20
213.373703
 30
0.0
  0
SPLINE
  5
11f
100
AcDbEntity
  8
Layer_1
 62
7
100
AcDbSpline
 70
8
 71
3
 72
8
 73
4
 74
0
 40
0
 40
0
 40
0
 40
0
 40
1
 40
1
 40
1
 40
1
 10
136.737670
 20
217.726409
 30
0.0
 10
137.100180
 20
217.763449
 30
0.0
 10
137.268210
 20
217.374245
 30
0.0
 10
137.651820
 20
216.484108
 30
0.0
  0
SPLINE
  5
120
100
AcDbEntity
  8
Layer_1
 62
7
100
AcDbSpline
 70
8
 71
3
 72
8
 73
4
 74
0
 40
0
 40
0
 40
0
 40
0
 40
1
 40
1
 40
1
 40
1
 10
137.651820
 20
216.484108
 30
0.0
 10
139.734710
 20
211.073498
 30
0.0
 10
139.624440
 20
204.967211
 30
0.0
 10
137.496790
 20
199.565761
 30
0.0
  0
SPLINE
  5
121
100
AcDbEntity
  8
Layer_1
 62
7
100
AcDbSpline
 70
8
 71
3
 72
8
 73
4
 74
0
 40
0
 40
0
 40
0
 40
0
 40
1
 40
1
 40
1
 40
1
 10
137.496790
 20
199.565761
 30
0.0
 10
136.565560
 20
197.498939
 30
0.0
 10
136.565560
 20
197.498621
 30
0.0
 10
134.982220
 20
198.733252
 30
0.0
  0
LWPOLYLINE
  5
122
100
AcDbEntity
  8
Layer_1
 62
7
100
AcDbPolyline
 90
90
 70
0
 10
112.405300
 20
204.402156
 30
0.0
 10
112.271980
 20
180.926070
 30
0.0
 10
112.271980
 20
180.925070
 30
0.0
 10
112.454910
 20
179.428520
 30
0.0
 10
112.901400
 20
177.905620
 30
0.0
 10
114.003650
 20
177.800200
 30
0.0
 10
114.730740
 20
179.210450
 30
0.0
 10
115.194280
 20
180.645500
 30
0.0
 10
116.601430
 20
180.621200
 30
0.0
 10
117.016390
 20
179.172200
 30
0.0
 10
117.695420
 20
177.738180
 30
0.0
 10
118.800260
 20
177.806380
 30
0.0
 10
119.297900
 20
179.312740
 30
0.0
 10
119.531480
 20
180.802060
 30
0.0
 10
120.925190
 20
180.998950
 30
0.0
 10
121.561850
 20
179.632100
 30
0.0
 10
122.456880
 20
178.322110
 30
0.0
 10
123.537440
 20
178.562400
 30
0.0
 10
123.793240
 20
180.128200
 30
0.0
 10
123.790240
 20
181.636120
 30
0.0
 10
125.135890
 20
182.047980
 30
0.0
 10
125.978220
 20
180.797920
 30
0.0
 10
127.067560
 20
179.643990
 30
0.0
 10
128.097470
 20
180.050170
 30
0.0
 10
128.105470
 20
181.637150
 30
0.0
 10
127.867240
 20
183.125950
 30
0.0
 10
129.131760
 20
183.743480
 30
0.0
 10
130.159610
 20
182.640190
 30
0.0
 10
131.415860
 20
181.670740
 30
0.0
 10
132.369290
 20
182.233490
 30
0.0
 10
132.128990
 20
183.801880
 30
0.0
 10
131.660810
 20
185.234860
 30
0.0
 10
132.813190
 20
186.042570
 30
0.0
 10
134.000720
 20
185.113940
 30
0.0
 10
135.392880
 20
184.352750
 30
0.0
 10
136.247090
 20
185.057610
 30
0.0
 10
135.763910
 20
186.569150
 30
0.0
 10
135.077140
 20
187.911190
 30
0.0
 10
136.088960
 20
188.889420
 30
0.0
 10
137.407230
 20
188.158200
 30
0.0
 10
138.901710
 20
187.624380
 30
0.0
 10
139.634480
 20
188.453790
 30
0.0
 10
138.921350
 20
189.871270
 30
0.0
 10
138.033030
 20
191.089290
 30
0.0
 10
138.879490
 20
192.213770
 30
0.0
 10
140.295940
 20
191.697520
 30
0.0
 10
141.855020
 20
191.403990
 30
0.0
 10
142.449810
 20
192.338300
 30
0.0
 10
141.523250
 20
193.626080
 30
0.0
 10
140.455100
 20
194.690620
 30
0.0
 10
141.115530
 20
195.933950
 30
0.0
 10
142.595020
 20
195.645600
 30
0.0
 10
144.180970
 20
195.599600
 30
0.0
 10
144.622290
 20
196.615040
 30
0.0
 10
143.505560
 20
197.742619
 30
0.0
 10
142.284450
 20
198.626803
 30
0.0
 10
142.741780
 20
199.957472
 30
0.0
 10
144.248670
 20
199.904242
 30
0.0
 10
145.822220
 20
200.106815
 30
0.0
 10
146.098680
 20
201.179100
 30
0.0
 10
144.819690
 20
202.118061
 30
0.0
 10
143.475070
 20
202.800192
 30
0.0
 10
143.718990
 20
204.186153
 30
0.0
 10
145.215530
 20
204.369605
 30
0.0
 10
146.737920
 20
204.815571
 30
0.0
 10
146.843340
 20
205.917830
 30
0.0
 10
145.433090
 20
206.644918
 30
0.0
 10
143.998550
 20
207.108971
 30
0.0
 10
144.022350
 20
208.516120
 30
0.0
 10
145.471880
 20
208.931082
 30
0.0
 10
146.905900
 20
209.610112
 30
0.0
 10
146.837700
 20
210.714953
 30
0.0
 10
145.330810
 20
211.212597
 30
0.0
 10
143.841500
 20
211.446174
 30
0.0
 10
143.645130
 20
212.839372
 30
0.0
 10
145.011450
 20
213.476026
 30
0.0
 10
146.321970
 20
214.371061
 30
0.0
 10
146.081670
 20
215.452133
 30
0.0
 10
144.515360
 20
215.707929
 30
0.0
 10
143.007960
 20
215.705829
 30
0.0
 10
142.595580
 20
217.051484
 30
0.0
 10
143.846150
 20
217.893809
 30
0.0
 10
145.000080
 20
218.982632
 30
0.0
 10
144.593390
 20
220.012542
 30
0.0
 10
143.006920
 20
220.020842
 30
0.0
 10
141.518120
 20
219.782614
 30
0.0
 10
140.900590
 20
221.047137
 30
0.0
 10
142.003370
 20
222.074982
 30
0.0
 10
142.972820
 20
223.331234
 30
0.0
 10
142.410190
 20
224.284665
 30
0.0
  0
SPLINE
  5
123
100
AcDbEntity
  8
Layer_1
 62
7
100
AcDbSpline
 70
8
 71
3
 72
8
 73
4
 74
0
 40
0
 40
0
 40
0
 40
0
 40
1
 40
1
 40
1
 40
1
 10
124.590090
 20
206.837151
 30
0.0
 10
123.022340
 20
208.059671
 30
0.0
 10
123.022580
 20
208.059830
 30
0.0
 10
124.643790
 20
209.223052
 30
0.0
  0
LWPOLYLINE
  5
124
100
AcDbEntity
  8
Layer_1
 62
7
100
AcDbPolyline
 90
2
 70
0
 10
134.982220
 20
198.733252
 30
0.0
 10
124.590090
 20
206.837151
 30
0.0
  0
SPLINE
  5
125
100
AcDbEntity
  8
Layer_1
 62
7
100
AcDbSpline
 70
8
 71
3
 72
8
 73
4
 74
0
 40
0
 40
0
 40
0
 40
0
 40
1
 40
1
 40
1
 40
1
 10
135.345460
 20
216.901136
 30
0.0
 10
136.056090
 20
217.411001
 30
0.0
 10
136.455670
 20
217.697601
 30
0.0
 10
136.737620
 20
217.726409
 30
0.0
  0
LWPOLYLINE
  5
126
100
AcDbEntity
  8
Layer_1
 62
7
100
AcDbPolyline
 90
2
 70
0
 10
124.643790
 20
209.223052
 30
0.0
 10
135.345460
 20
216.901136
 30
0.0
  0
SPLINE
  5
127
100
AcDbEntity
  8
Layer_1
 62
7
100
AcDbSpline
 70
8
 71
3
 72
8
 73
4
 74
0
 40
0
 40
0
 40
0
 40
0
 40
1
 40
1
 40
1
 40
1
 10
119.693740
 20
201.791465
 30
0.0
 10
119.973480
 20
201.761815
 30
0.0
 10
120.390240
 20
201.549805
 30
0.0
 10
121.056970
 20
201.210104
 30
0.0
  0
LWPOLYLINE
  5
128
100
AcDbEntity
  8
Layer_1
 62
7
100
AcDbPolyline
 90
1
 70
1
 10
136.737620
 20
217.726409
 30
0.0
  0
SPLINE
  5
129
100
AcDbEntity
  8
Layer_1
 62
7
100
AcDbSpline
 70
8
 71
3
 72
8
 73
4
 74
0
 40
0
 40
0
 40
0
 40
0
 40
1
 40
1
 40
1
 40
1
 10
132.792690
 20
195.230620
 30
0.0
 10
134.573940
 20
194.323070
 30
0.0
 10
134.573980
 20
194.323090
 30
0.0
 10
133.481530
 20
192.990450
 30
0.0
  0
SPLINE
  5
12a
100
AcDbEntity
  8
Layer_1
 62
7
100
AcDbSpline
 70
8
 71
3
 72
8
 73
4
 74
0
 40
0
 40
0
 40
0
 40
0
 40
1
 40
1
 40
1
 40
1
 10
133.481530
 20
192.990450
 30
0.0
 10
129.632080
 20
188.655170
 30
0.0
 10
124.157450
 20
185.947730
 30
0.0
 10
118.382200
 20
185.356810
 30
0.0
  0
SPLINE
  5
12b
100
AcDbEntity
  8
Layer_1
 62
7
100
AcDbSpline
 70
8
 71
3
 72
8
 73
4
 74
0
 40
0
 40
0
 40
0
 40
0
 40
1
 40
1
 40
1
 40
1
 10
118.382200
 20
185.356810
 30
0.0
 10
116.118580
 20
185.234710
 30
0.0
 10
116.118790
 20
185.234860
 30
0.0
 10
116.488260
 20
187.208370
 30
0.0
  0
LWPOLYLINE
  5
12c
100
AcDbEntity
  8
Layer_1
 62
7
100
AcDbPolyline
 90
2
 70
0
 10
121.056970
 20
201.210104
 30
0.0
 10
132.792690
 20
195.230620
 30
0.0
  0
SPLINE
  5
12d
100
AcDbEntity
  8
Layer_1
 62
7
100
AcDbSpline
 70
8
 71
3
 72
8
 73
4
 74
0
 40
0
 40
0
 40
0
 40
0
 40
1
 40
1
 40
1
 40
1
 10
118.912910
 20
200.161589
 30
0.0
 10
119.141570
 20
201.382922
 30
0.0
 10
119.227520
 20
201.840873
 30
0.0
 10
119.693740
 20
201.791465
 30
0.0
  0
LWPOLYLINE
  5
12e
100
AcDbEntity
  8
Layer_1
 62
7
100
AcDbPolyline
 90
2
 70
0
 10
116.488260
 20
187.208370
 30
0.0
 10
118.912910
 20
200.161589
 30
0.0
  0
LWPOLYLINE
  5
12f
100
AcDbEntity
  8
Layer_1
 62
7
100
AcDbPolyline
 90
1
 70
1
 10
119.693740
 20
201.791465
 30
0.0
  0
ENDSEC
  0
SECTION
  2
OBJECTS
  0
DICTIONARY
  5
C
330
0
100
AcDbDictionary
  3
ACAD_GROUP
350
D
  3
ACAD_MLINESTYLE
350
17
  0
DICTIONARY
  5
D
330
C
100
AcDbDictionary
  0
DICTIONARY
  5
1A
330
C
100
AcDbDictionary
  0
DICTIONARY
  5
17
330
C
100
AcDbDictionary
  3
STANDARD
350
18
  0
DICTIONARY
  5
19
330
C
100
AcDbDictionary
  0
ENDSEC
  0
EOF
